<?xml version="1.0" encoding="utf-8"?>
<!-- Generator: Adobe Illustrator 27.7.0, SVG Export Plug-In . SVG Version: 6.00 Build 0)  -->
<svg version="1.1" id="Calque_1" xmlns="http://www.w3.org/2000/svg" xmlns:xlink="http://www.w3.org/1999/xlink" x="0px" y="0px"
	 viewBox="0 0 24 24" style="enable-background:new 0 0 24 24;" xml:space="preserve">
<style type="text/css">
	.st0{fill:#FFFFFF;}
	.st1{fill:url(#Tracé_78_00000145050106689671123330000009694021684704447891_);}
	.st2{fill:#1C1B49;}
</style>
<g>
	<circle class="st0" cx="12" cy="12" r="12"/>
	<g>
		
			<linearGradient id="Tracé_78_00000068636241888059991430000015229333566172239544_" gradientUnits="userSpaceOnUse" x1="21.6049" y1="3.24" x2="16.6798" y2="11.2295" gradientTransform="matrix(1 0 0 -1 0 25)">
			<stop  offset="0" style="stop-color:#2743A6"/>
			<stop  offset="0.46" style="stop-color:#8F1AEB"/>
			<stop  offset="0.734" style="stop-color:#C860D5"/>
			<stop  offset="1" style="stop-color:#FFA4C0"/>
		</linearGradient>
		
			<path id="Tracé_78_00000086681869697096963020000011118363208903027847_" style="fill:url(#Tracé_78_00000068636241888059991430000015229333566172239544_);" d="
			M14.8,16.9l2,3.6h3.6l-1.8-3.1c1.6-1.9,1.8-4,1.8-4h-2.9C17.5,13.3,17.1,15.5,14.8,16.9z"/>
		<path class="st2" d="M20.5,12.2h-2.8c0-2.4-1.1-3.9-2.1-4.7c-1.5-1.2-3.3-1.2-3.3-1.2C10.1,6.3,8.7,7.2,8,8
			c-1.1,1.1-1.7,2.6-1.6,4.2c0.1,2.5,1.9,4.7,4.3,5.2c0.6,0.1,0.9,0.1,1.1,0.2c1.2,0,1.4,0,2.2,0l1.6,2.9c0,0-2.7,0-3.5,0
			c-5.3-0.1-7.8-4-8.4-6.4c-0.6-2-0.1-4-0.1-4c0.9-4,4.4-6.8,8.6-6.7c0.5,0.1,3.1,0,5.6,2.4C19.2,7.2,20.5,9.2,20.5,12.2"/>
	</g>
</g>
</svg>
