<svg width="51" height="50" viewBox="0 0 51 50" fill="none" xmlns="http://www.w3.org/2000/svg" class="featureSvg_src-components-HomepageFeatures-styles-module" role="test">
  <circle cx="25.5" cy="25" r="25" fill="url(#gradient)"></circle>
  <defs>
    <linearGradient id="gradient" x1="0%" y1="0%" x2="100%" y2="0%">
      <stop offset="0%" style="stop-color:rgb(204, 117, 202)"/>
      <stop offset="100%" style="stop-color:rgb(72, 55, 188)"/>
    </linearGradient>
  </defs>
  <path fill-rule="evenodd" clip-rule="evenodd" d="M19.616 21.897h-3.581v-6.205h3.581v6.205Zm-5.116.17c0 .84.618 1.523 1.381 1.523h3.889c.763 0 1.381-.682 1.381-1.523V19.64h2.814c.707 0 1.28.631 1.28 1.41v7.898c0 .779-.573 1.41-1.280 1.41h-2.814v-2.426c0-.84-.618-1.523-1.381-1.523H15.88c-.763 0-1.381.682-1.381 1.523v6.544c0 .841.618 1.523 1.381 1.523h3.889c.763 0 1.381-.682 1.381-1.523V32.05h2.814c1.554 0 2.814-1.389 2.814-3.102v-3.103h3.07v2.426c0 .841.618 1.523 1.381 1.523h3.889c.763 0 1.381-.682 1.381-1.523v-6.544c0-.841-.618-1.523-1.381-1.523H31.23c-.763 0-1.381.682-1.381 1.523v2.426h-3.07V21.05c0-1.713-1.26-3.102-2.814-3.102h-2.814v-2.426c0-.841-.618-1.523-1.381-1.523H15.88c-.763 0-1.381.682-1.381 1.523v6.544Zm16.884 6.036h3.581v-6.206h-3.581v6.206Zm-15.35 6.205h3.582v-6.205h-3.581v6.205Z" fill="#fff"></path>
</svg>