<svg width="51" height="50" viewBox="0 0 51 50" fill="none" xmlns="http://www.w3.org/2000/svg">
  <circle cx="25.5" cy="25" r="25" fill="url(#gradient)"></circle>
  <defs>
    <linearGradient id="gradient" x1="0%" y1="0%" x2="100%" y2="0%">
      <stop offset="0%" style="stop-color:rgb(204, 117, 202)"/>
      <stop offset="100%" style="stop-color:rgb(72, 55, 188)"/>
    </linearGradient>
  </defs>
  <path fill-rule="evenodd" clip-rule="evenodd" d="M36.3105 17.7321L33.2647 14L30.2189 17.7321C29.9662 18.0417 29.9662 18.5437 30.2189 18.8534C30.4716 19.163 30.8813 19.163 31.134 18.8534L32.6176 17.0354V34.4143H15.7941V28.5978C15.7941 28.1599 15.5044 27.8049 15.1471 27.8049C14.7897 27.8049 14.5 28.1599 14.5 28.5978V36H33.9118V17.0354L35.3954 18.8534C35.6481 19.163 36.0578 19.163 36.3105 18.8534C36.5632 18.5437 36.5632 18.0417 36.3105 17.7321Z" fill="white"/>
  <path fill-rule="evenodd" clip-rule="evenodd" d="M22.9966 19.3954C23.0921 19.1566 23.3234 19 23.5807 19H25.3548C25.6653 19 25.9294 19.2265 25.9766 19.5334L26.1788 20.8478L27.5406 20.3031C27.7798 20.2074 28.0532 20.2672 28.2305 20.4542L29.4241 21.7122C29.6231 21.922 29.6535 22.2405 29.4976 22.4842L28.8499 23.4965L29.9399 23.6167C30.2587 23.6518 30.5 23.9212 30.5 24.2419V26.3387C30.5 26.6386 30.2884 26.8967 29.9943 26.9555L28.8031 27.1938L29.4966 28.2702C29.6425 28.4968 29.6279 28.7912 29.4602 29.0022L28.2667 30.5042C28.0703 30.7514 27.7212 30.8147 27.4506 30.6523L26.146 29.8696L25.8785 31.4744C25.828 31.7777 25.5656 32 25.2581 32H23.1613C22.8615 32 22.6033 31.7884 22.5445 31.4943L22.2718 30.1307L20.8024 30.6995C20.564 30.7918 20.2935 30.7306 20.118 30.5448L18.9298 29.2867C18.7402 29.086 18.7037 28.785 18.8398 28.5447L19.6544 27.1073L17.925 26.5144C17.6507 26.4203 17.4762 26.1509 17.5026 25.8621L17.677 23.9535C17.7048 23.6493 17.9471 23.4091 18.2515 23.3839L19.5431 23.2769L18.8398 22.0359C18.7004 21.7899 18.7423 21.481 18.9423 21.281L20.2004 20.0229C20.4045 19.8188 20.7213 19.7798 20.9688 19.9284L22.4322 20.8064L22.9966 19.3954ZM24.0065 20.2581L23.326 21.9594C23.2575 22.1306 23.1174 22.2631 22.9428 22.3219C22.7681 22.3808 22.5764 22.36 22.4183 22.2652L20.7427 21.2598L20.1704 21.8321L21.1226 23.5125C21.2283 23.6991 21.2317 23.9269 21.1314 24.1166C21.0311 24.3063 20.841 24.4318 20.6272 24.4495L18.8818 24.594L18.8004 25.4846L20.7793 26.163C20.9563 26.2237 21.0971 26.3601 21.1634 26.535C21.2298 26.71 21.2148 26.9054 21.1226 27.0682L20.1635 28.7607L20.7424 29.3737L22.5149 28.6876C22.688 28.6206 22.8819 28.6334 23.0446 28.7228C23.2074 28.8121 23.3224 28.9688 23.3588 29.1508L23.677 30.7419H24.7252L25.057 28.7514C25.0912 28.5461 25.2247 28.371 25.4137 28.2838C25.6027 28.1965 25.8226 28.2084 26.0011 28.3154L27.6249 29.2897L28.1948 28.5725L27.2454 27.0987C27.1327 26.9238 27.1138 26.7044 27.195 26.5128C27.2761 26.3211 27.4468 26.1821 27.6508 26.1412L29.2419 25.823V24.8054L27.7053 24.636C27.489 24.6122 27.3005 24.4783 27.2067 24.2821C27.1129 24.0858 27.1271 23.855 27.2443 23.6718L28.1725 22.2209L27.6116 21.6296L25.911 22.3098C25.733 22.3811 25.5321 22.3672 25.3655 22.2721C25.1989 22.177 25.0849 22.011 25.0557 21.8215L24.8152 20.2581H24.0065Z" fill="white"/>
  <path fill-rule="evenodd" clip-rule="evenodd" d="M24 24.3636C23.3724 24.3636 22.8636 24.8724 22.8636 25.5C22.8636 26.1276 23.3724 26.6364 24 26.6364C24.6276 26.6364 25.1364 26.1276 25.1364 25.5C25.1364 24.8724 24.6276 24.3636 24 24.3636ZM21.5 25.5C21.5 24.1193 22.6193 23 24 23C25.3807 23 26.5 24.1193 26.5 25.5C26.5 26.8807 25.3807 28 24 28C22.6193 28 21.5 26.8807 21.5 25.5Z" fill="white"/>
</svg>