<svg width="51" height="50" viewBox="0 0 51 50" fill="none" xmlns="http://www.w3.org/2000/svg">
<circle cx="25.5" cy="25" r="25" fill="#5C2EC9"/>
<path fill-rule="evenodd" clip-rule="evenodd" d="M17.427 31.1649C17.3495 31.1989 17.3109 31.233 17.202 31.3436C17.1461 31.4003 17.0323 31.5701 16.8863 31.8975C16.7495 32.2042 16.6117 32.5861 16.4836 33.0019C16.3406 33.4657 16.2155 33.9525 16.1198 34.3972C16.6296 34.3221 17.1748 34.2297 17.6721 34.1278C18.0924 34.0416 18.4639 33.9516 18.7454 33.8637C18.8867 33.8196 18.9919 33.7801 19.0636 33.7475C19.0873 33.7366 19.1033 33.7284 19.1132 33.723C19.2748 33.5552 19.4772 33.3137 19.6382 33.0821C19.7233 32.9598 19.7862 32.8554 19.8247 32.7771C19.8362 32.7538 19.8435 32.7369 19.848 32.7257C19.8817 32.3488 20.1938 32.0536 20.5738 32.0536C20.9763 32.0536 21.3027 32.3849 21.3027 32.7936C21.3027 33.0567 21.1992 33.2955 21.1285 33.439C21.0456 33.6073 20.9385 33.7783 20.8291 33.9356C20.6104 34.2502 20.3405 34.5701 20.1174 34.7967C19.9726 34.9437 19.7914 35.0379 19.661 35.0974C19.5143 35.1642 19.347 35.2242 19.174 35.2782C18.8268 35.3866 18.4026 35.4878 17.9605 35.5784C17.0737 35.7601 16.056 35.9112 15.3094 35.9955C15.0875 36.0205 14.8667 35.941 14.71 35.7797C14.5532 35.6184 14.478 35.3931 14.5056 35.1683C14.5932 34.4574 14.8151 33.4595 15.0924 32.56C15.2316 32.1083 15.3894 31.6659 15.5583 31.2872C15.7179 30.9292 15.9197 30.5525 16.1712 30.2972C16.1741 30.2943 16.177 30.2913 16.18 30.2883C16.3031 30.1631 16.5061 29.9569 16.8484 29.8066C17.1853 29.6587 17.6002 29.5872 18.1443 29.5872C18.5468 29.5872 18.8731 29.9184 18.8731 30.3271C18.8731 30.7358 18.5468 31.067 18.1443 31.067C17.7166 31.067 17.5182 31.1249 17.427 31.1649Z" fill="white"/>
<path fill-rule="evenodd" clip-rule="evenodd" d="M29.806 19.228C29.1351 19.228 28.5912 19.7801 28.5912 20.4612C28.5912 21.1423 29.1351 21.6945 29.806 21.6945C30.4769 21.6945 31.0207 21.1423 31.0207 20.4612C31.0207 19.7801 30.4769 19.228 29.806 19.228ZM27.1335 20.4612C27.1335 18.9628 28.33 17.7481 29.806 17.7481C31.2819 17.7481 32.4785 18.9628 32.4785 20.4612C32.4785 21.9596 31.2819 23.1743 29.806 23.1743C28.33 23.1743 27.1335 21.9596 27.1335 20.4612Z" fill="white"/>
<path fill-rule="evenodd" clip-rule="evenodd" d="M33.4013 15.5246C32.2625 15.6402 30.7556 15.9906 29.1213 16.7017C27.5105 17.4025 26.035 18.4631 24.8769 19.4794C23.7109 20.5027 22.9126 21.4399 22.638 21.8582C22.5168 22.0427 22.3206 22.1623 22.1033 22.1841C21.9395 22.2006 21.7768 22.1602 21.6404 22.0722C21.6092 22.0682 21.5607 22.0644 21.4925 22.0644C21.2928 22.0644 21.0072 22.0964 20.6671 22.171C19.9847 22.3208 19.1843 22.6198 18.5486 23.0501C16.9059 24.1619 16.2382 25.8145 16.033 27.0254L19.5215 26.6319C19.7276 26.6087 19.9336 26.6756 20.0881 26.816C20.2426 26.9564 20.3309 27.1569 20.3309 27.3673V28.5407L21.8475 30.0805L23.0033 30.0804C23.2176 30.0804 23.421 30.1761 23.5595 30.3421C23.6979 30.5081 23.7575 30.7275 23.7223 30.942C23.5981 31.6984 23.3872 33.1594 23.2936 34.3053C24.8616 33.8754 25.8387 33.387 26.4669 32.9314C27.1914 32.4061 27.4878 31.8995 27.6964 31.4761C27.8309 31.2028 27.9419 30.6961 28.014 30.1224C28.0831 29.5729 28.1053 29.0616 28.1053 28.8472C28.1053 28.5998 28.2271 28.3688 28.4299 28.2315C29.3091 27.6365 31.5497 25.6254 33.0413 22.5968C33.789 21.0785 34.3791 19.2845 34.7209 17.8126C34.892 17.076 34.9958 16.4416 35.03 15.9773C35.0432 15.7977 35.0448 15.658 35.0394 15.5558C34.9702 15.5385 34.879 15.5215 34.7637 15.508C34.4343 15.4694 33.9724 15.4666 33.4013 15.5246ZM35.0195 15.3988C35.0197 15.3985 35.021 15.4024 35.023 15.4111C35.0203 15.4035 35.0193 15.3991 35.0195 15.3988ZM21.6839 22.0805C21.6837 22.0807 21.6804 22.0799 21.6747 22.078C21.6812 22.0795 21.684 22.0804 21.6839 22.0805ZM35.5721 14.1721C35.7527 14.2323 35.9752 14.3321 36.1522 14.5118C36.4013 14.7647 36.4588 15.1121 36.4805 15.3002C36.5076 15.535 36.5043 15.8056 36.4836 16.0875C36.4418 16.656 36.3209 17.372 36.1397 18.1522C35.777 19.7141 35.1523 21.6197 34.3451 23.2586C32.8705 26.2527 30.7267 28.3439 29.5524 29.2365C29.5385 29.5315 29.5099 29.9131 29.46 30.3098C29.3863 30.8954 29.2543 31.6219 29.0002 32.1379C28.7228 32.7011 28.2904 33.4277 27.3142 34.1356C26.3582 34.8289 24.9205 35.4759 22.6755 35.9823C22.4597 36.031 22.2338 35.9776 22.0614 35.8372C21.8889 35.6968 21.7886 35.4845 21.7886 35.26C21.7886 34.2946 21.9871 32.6932 22.1518 31.5603L21.5456 31.5603C21.3523 31.5603 21.1669 31.4824 21.0302 31.3436L19.0866 29.3704C18.9499 29.2317 18.8731 29.0435 18.8731 28.8472V28.1941L15.3093 28.5961C15.1033 28.6193 14.8972 28.5524 14.7428 28.412C14.5883 28.2716 14.5 28.0711 14.5 27.8606C14.5 26.3832 15.1437 23.576 17.74 21.8187C18.562 21.2624 19.5432 20.9036 20.359 20.7246C20.768 20.6348 21.1607 20.5845 21.4925 20.5845C21.5769 20.5845 21.663 20.5877 21.7485 20.5957C22.2136 20.0085 22.9714 19.1955 23.9237 18.3599C25.1546 17.2797 26.7565 16.1205 28.5471 15.3414C30.3141 14.5726 31.9655 14.1831 33.2563 14.052C33.8999 13.9867 34.4706 13.9839 34.9308 14.0378C35.1603 14.0647 35.3787 14.1076 35.5721 14.1721Z" fill="white"/>
</svg>
