<svg width="279" height="282" viewBox="0 0 279 282" fill="none" xmlns="http://www.w3.org/2000/svg">
<g opacity="0.1">
<path d="M186.97 219.89L220.307 281.194H279L248.369 227.853C274.47 197.869 278.392 162.01 278.392 162.01H229.477C229.477 162.01 222.351 198.787 186.97 219.89Z" fill="url(#paint0_linear_318_12546)"/>
<path d="M278.393 144.22H231.992C232.82 104.827 213.403 79.6591 197.107 66.7134C172.912 46.752 143.718 46.4736 143.718 46.4736C107.784 45.7497 86.2129 62.0084 73.9772 74.2024C55.6099 92.6605 46.2467 118.023 47.2134 144.109C48.5115 185.702 78.645 221.032 117.783 230.609C127.45 232.947 132.615 232.919 135.819 233.253C155.18 233.588 161.091 233.643 174.238 233.643L200.201 281.222C200.201 281.222 154.876 281.222 141.729 281.222C54.4774 280.108 14.3731 215.631 4.4575 176.125C-4.7676 142.606 3.18698 110.255 3.18698 110.255C18.019 44.6361 75.9106 -1.96837 144.933 0.063965C152.667 1.06621 195.892 0.342366 237.709 40.5158C258.424 61.4238 279.029 94.5536 278.393 144.22Z" fill="#19194D"/>
</g>
<path d="M27.3578 215.928L139.481 281.305L248.179 219.44V215.093L135.255 153.568L27.3578 211.581V215.928Z" fill="#3A3A3A"/>
<path d="M27.3578 211.581L139.481 276.975L248.179 215.093L135.255 149.221L27.3578 211.581Z" fill="#F3F3FD"/>
<path d="M139.481 277.179L139.395 277.128L27 211.581L135.272 149.017L135.358 149.068L248.554 215.093L248.281 215.246L139.481 277.179ZM27.7156 211.581L139.481 276.77L247.821 215.093L135.255 149.443L27.7156 211.581Z" fill="#3A3A3A"/>
<path d="M205.602 214.359L212.06 218.127L217.358 215.109L210.867 211.308L205.602 214.359Z" fill="#3A3A3A"/>
<path d="M130.264 169.763L136.721 173.531L142.036 170.513L135.528 166.729L130.264 169.763Z" fill="#3A3A3A"/>
<path d="M134.267 255.171L140.724 258.938L146.023 255.921L139.515 252.119L134.267 255.171Z" fill="#3A3A3A"/>
<path d="M58.928 210.575L65.3851 214.342L70.6838 211.325L64.1925 207.541L58.928 210.575Z" fill="#3A3A3A"/>
<path d="M35.4675 211.598L139.515 272.27L240.035 215.041L135.255 153.926L35.4675 211.598ZM139.549 263.746L50.1708 211.615L135.221 162.467L225.23 214.956L139.549 263.729V263.746Z" fill="#ADADFA"/>
<path d="M139.498 272.474L139.412 272.423L35.1097 211.598L135.255 153.739L135.341 153.79L240.393 215.058L240.12 215.212L139.498 272.491V272.474ZM35.8253 211.598L139.498 272.065L239.66 215.041L135.238 154.148L35.8253 211.598ZM139.549 263.967L139.464 263.916L49.813 211.632L135.238 162.279L135.323 162.33L225.587 214.99L225.315 215.143L139.532 263.967H139.549ZM50.5285 211.632L139.549 263.558L224.872 214.99L135.238 162.705L50.5456 211.649L50.5285 211.632Z" fill="#3A3A3A"/>
<path d="M38 54.5166H242.286C245.324 54.5166 247.786 56.979 247.786 60.0166V202.857H32.5V60.0166C32.5 56.979 34.9624 54.5166 38 54.5166Z" fill="#7879F1" stroke="#0E092B"/>
<path d="M41.5828 59.6663H238.711C240.644 59.6663 242.211 61.2333 242.211 63.1663V183.908C242.211 185.841 240.644 187.408 238.711 187.408H41.5828C39.6498 187.408 38.0828 185.841 38.0828 183.908V63.1663C38.0828 61.2333 39.6498 59.6663 41.5828 59.6663Z" fill="#F8F9FB" stroke="#0E092B"/>
<path d="M88.7135 87.907H196.961C197.237 87.907 197.461 88.1308 197.461 88.407V165.769C197.461 166.045 197.237 166.269 196.961 166.269H88.7135C88.4374 166.269 88.2135 166.045 88.2135 165.769V88.407C88.2135 88.1308 88.4374 87.907 88.7135 87.907Z" fill="white" stroke="#5D5FEF"/>
<path d="M91.6128 109.952H140.385C140.661 109.952 140.885 110.176 140.885 110.452V128.292C140.885 128.568 140.661 128.792 140.385 128.792H91.6128C91.3367 128.792 91.1128 128.568 91.1128 128.292V110.452C91.1128 110.176 91.3367 109.952 91.6128 109.952Z" stroke="#5D5FEF"/>
<path d="M145.286 109.952H194.058C194.335 109.952 194.558 110.176 194.558 110.452V116.167C194.558 116.444 194.335 116.667 194.058 116.667H145.286C145.01 116.667 144.786 116.444 144.786 116.167V110.452C144.786 110.176 145.01 109.952 145.286 109.952Z" stroke="#5D5FEF"/>
<path d="M145.286 118.769H194.058C194.335 118.769 194.558 118.993 194.558 119.269V128.292C194.558 128.568 194.335 128.792 194.058 128.792H145.286C145.01 128.792 144.786 128.568 144.786 128.292V119.269C144.786 118.993 145.01 118.769 145.286 118.769Z" stroke="#5D5FEF"/>
<path d="M91.6128 90.1116H194.058C194.334 90.1116 194.558 90.3354 194.558 90.6116V101.839C194.558 102.115 194.334 102.339 194.058 102.339H91.6128C91.3367 102.339 91.1128 102.115 91.1128 101.839V90.6116C91.1128 90.3354 91.3367 90.1116 91.6128 90.1116Z" stroke="#5D5FEF"/>
<path d="M108.47 98.4292H97.4144C96.8621 98.4292 96.4144 98.8769 96.4144 99.4292V106.247C96.4144 106.799 96.8621 107.247 97.4144 107.247H108.47C109.022 107.247 109.47 106.799 109.47 106.247V99.4292C109.47 98.8769 109.022 98.4292 108.47 98.4292Z" fill="#5D5FEF"/>
<path d="M124.429 98.4292H113.373C112.821 98.4292 112.373 98.8769 112.373 99.4292V106.247C112.373 106.799 112.821 107.247 113.373 107.247H124.429C124.981 107.247 125.429 106.799 125.429 106.247V99.4292C125.429 98.8769 124.981 98.4292 124.429 98.4292Z" fill="#5D5FEF"/>
<path d="M140.383 98.4292H129.327C128.775 98.4292 128.327 98.8769 128.327 99.4292V106.247C128.327 106.799 128.775 107.247 129.327 107.247H140.383C140.935 107.247 141.383 106.799 141.383 106.247V99.4292C141.383 98.8769 140.935 98.4292 140.383 98.4292Z" fill="#5D5FEF"/>
<path d="M156.342 98.4292H145.286C144.734 98.4292 144.286 98.8769 144.286 99.4292V106.247C144.286 106.799 144.734 107.247 145.286 107.247H156.342C156.894 107.247 157.342 106.799 157.342 106.247V99.4292C157.342 98.8769 156.894 98.4292 156.342 98.4292Z" fill="#5D5FEF"/>
<path d="M172.297 98.4292H161.241C160.689 98.4292 160.241 98.8769 160.241 99.4292V106.247C160.241 106.799 160.689 107.247 161.241 107.247H172.297C172.849 107.247 173.297 106.799 173.297 106.247V99.4292C173.297 98.8769 172.849 98.4292 172.297 98.4292Z" fill="#5D5FEF"/>
<path d="M188.256 98.4292H177.2C176.648 98.4292 176.2 98.8769 176.2 99.4292V106.247C176.2 106.799 176.648 107.247 177.2 107.247H188.256C188.808 107.247 189.256 106.799 189.256 106.247V99.4292C189.256 98.8769 188.808 98.4292 188.256 98.4292Z" fill="#5D5FEF"/>
<path d="M112.822 79.6904H88.7106C88.1583 79.6904 87.7106 80.1381 87.7106 80.6904V84.2017C87.7106 84.754 88.1583 85.2017 88.7106 85.2017H112.822C113.374 85.2017 113.822 84.754 113.822 84.2017V80.6904C113.822 80.1381 113.374 79.6904 112.822 79.6904Z" fill="#5D5FEF"/>
<path d="M140.384 79.6904H116.272C115.72 79.6904 115.272 80.1381 115.272 80.6904V84.2017C115.272 84.754 115.72 85.2017 116.272 85.2017H140.384C140.936 85.2017 141.384 84.754 141.384 84.2017V80.6904C141.384 80.1381 140.936 79.6904 140.384 79.6904Z" fill="#5D5FEF"/>
<path d="M169.396 79.6904H143.834C143.282 79.6904 142.834 80.1381 142.834 80.6904V84.2017C142.834 84.754 143.282 85.2017 143.834 85.2017H169.396C169.949 85.2017 170.396 84.754 170.396 84.2017V80.6904C170.396 80.1381 169.949 79.6904 169.396 79.6904Z" fill="#5D5FEF"/>
<path d="M196.959 79.6904H172.847C172.295 79.6904 171.847 80.1381 171.847 80.6904V84.2017C171.847 84.754 172.295 85.2017 172.847 85.2017H196.959C197.511 85.2017 197.959 84.754 197.959 84.2017V80.6904C197.959 80.1381 197.511 79.6904 196.959 79.6904Z" fill="#5D5FEF"/>
<path d="M83.809 79.6904H43.7408C43.1886 79.6904 42.7408 80.1381 42.7408 80.6904V84.2017C42.7408 84.754 43.1886 85.2017 43.7408 85.2017H83.809C84.3613 85.2017 84.809 84.754 84.809 84.2017V80.6904C84.809 80.1381 84.3613 79.6904 83.809 79.6904Z" fill="#5D5FEF"/>
<path d="M83.8097 114.962H43.7416C43.1893 114.962 42.7416 115.41 42.7416 115.962V119.473C42.7416 120.025 43.1893 120.473 43.7416 120.473H83.8097C84.362 120.473 84.8097 120.025 84.8097 119.473V115.962C84.8097 115.41 84.362 114.962 83.8097 114.962Z" fill="#5D5FEF"/>
<path d="M83.8097 138.109H43.7416C43.1893 138.109 42.7416 138.557 42.7416 139.109V142.621C42.7416 143.173 43.1893 143.621 43.7416 143.621H83.8097C84.362 143.621 84.8097 143.173 84.8097 142.621V139.109C84.8097 138.557 84.362 138.109 83.8097 138.109Z" fill="#5D5FEF"/>
<path d="M83.8097 122.678H43.7416C43.1893 122.678 42.7416 123.126 42.7416 123.678V127.189C42.7416 127.742 43.1893 128.189 43.7416 128.189H83.8097C84.362 128.189 84.8097 127.741 84.8097 127.189V123.678C84.8097 123.126 84.362 122.678 83.8097 122.678Z" fill="#5D5FEF"/>
<path d="M83.8097 145.825H43.7416C43.1893 145.825 42.7416 146.273 42.7416 146.825V150.336C42.7416 150.889 43.1893 151.336 43.7416 151.336H83.8097C84.362 151.336 84.8097 150.889 84.8097 150.336V146.825C84.8097 146.273 84.362 145.825 83.8097 145.825Z" fill="#5D5FEF"/>
<path d="M83.8097 130.394H43.7416C43.1893 130.394 42.7416 130.842 42.7416 131.394V134.906C42.7416 135.458 43.1893 135.906 43.7416 135.906H83.8097C84.362 135.906 84.8097 135.458 84.8097 134.906V131.394C84.8097 130.842 84.362 130.394 83.8097 130.394Z" fill="#5D5FEF"/>
<path d="M83.8097 153.541H43.7416C43.1893 153.541 42.7416 153.989 42.7416 154.541V158.052C42.7416 158.605 43.1893 159.052 43.7416 159.052H83.8097C84.362 159.052 84.8097 158.605 84.8097 158.052V154.541C84.8097 153.989 84.362 153.541 83.8097 153.541Z" fill="#5D5FEF"/>
<path d="M83.8097 161.257H43.7416C43.1893 161.257 42.7416 161.705 42.7416 162.257V165.768C42.7416 166.32 43.1893 166.768 43.7416 166.768H83.8097C84.362 166.768 84.8097 166.32 84.8097 165.768V162.257C84.8097 161.705 84.362 161.257 83.8097 161.257Z" fill="#5D5FEF"/>
<path d="M48.9855 87.4055H43.7324C43.1801 87.4055 42.7324 87.8532 42.7324 88.4055V91.9168C42.7324 92.469 43.1801 92.9168 43.7324 92.9168H48.9855C49.5378 92.9168 49.9855 92.469 49.9855 91.9168V88.4055C49.9855 87.8532 49.5378 87.4055 48.9855 87.4055Z" fill="#5D5FEF"/>
<path d="M57.6882 87.4055H52.4351C51.8828 87.4055 51.4351 87.8532 51.4351 88.4055V91.9168C51.4351 92.469 51.8828 92.9168 52.4351 92.9168H57.6882C58.2405 92.9168 58.6882 92.469 58.6882 91.9168V88.4055C58.6882 87.8532 58.2405 87.4055 57.6882 87.4055Z" fill="#5D5FEF"/>
<path d="M66.3947 87.4055H61.1416C60.5893 87.4055 60.1416 87.8532 60.1416 88.4055V91.9168C60.1416 92.469 60.5893 92.9168 61.1416 92.9168H66.3947C66.947 92.9168 67.3947 92.469 67.3947 91.9168V88.4055C67.3947 87.8532 66.947 87.4055 66.3947 87.4055Z" fill="#5D5FEF"/>
<path d="M75.0972 87.4055H69.8441C69.2918 87.4055 68.8441 87.8532 68.8441 88.4055V91.9168C68.8441 92.469 69.2918 92.9168 69.8441 92.9168H75.0972C75.6495 92.9168 76.0972 92.469 76.0972 91.9168V88.4055C76.0972 87.8532 75.6495 87.4055 75.0972 87.4055Z" fill="#5D5FEF"/>
<path d="M83.7998 87.4055H78.5466C77.9943 87.4055 77.5466 87.8532 77.5466 88.4055V91.9168C77.5466 92.469 77.9943 92.9168 78.5466 92.9168H83.7998C84.352 92.9168 84.7998 92.469 84.7998 91.9168V88.4055C84.7998 87.8532 84.352 87.4055 83.7998 87.4055Z" fill="#5D5FEF"/>
<path d="M48.9855 94.0193H43.7324C43.1801 94.0193 42.7324 94.467 42.7324 95.0193V98.5305C42.7324 99.0828 43.1801 99.5305 43.7324 99.5305H48.9855C49.5378 99.5305 49.9855 99.0828 49.9855 98.5305V95.0193C49.9855 94.467 49.5378 94.0193 48.9855 94.0193Z" fill="#5D5FEF"/>
<path d="M57.6882 94.0193H52.4351C51.8828 94.0193 51.4351 94.467 51.4351 95.0193V98.5305C51.4351 99.0828 51.8828 99.5305 52.4351 99.5305H57.6882C58.2405 99.5305 58.6882 99.0828 58.6882 98.5305V95.0193C58.6882 94.467 58.2405 94.0193 57.6882 94.0193Z" fill="#5D5FEF"/>
<path d="M66.3947 94.0193H61.1416C60.5893 94.0193 60.1416 94.467 60.1416 95.0193V98.5305C60.1416 99.0828 60.5893 99.5305 61.1416 99.5305H66.3947C66.947 99.5305 67.3947 99.0828 67.3947 98.5305V95.0193C67.3947 94.467 66.947 94.0193 66.3947 94.0193Z" fill="#5D5FEF"/>
<path d="M75.0972 94.0193H69.8441C69.2918 94.0193 68.8441 94.467 68.8441 95.0193V98.5305C68.8441 99.0828 69.2918 99.5305 69.8441 99.5305H75.0972C75.6495 99.5305 76.0972 99.0828 76.0972 98.5305V95.0193C76.0972 94.467 75.6495 94.0193 75.0972 94.0193Z" fill="#5D5FEF"/>
<path d="M83.7998 94.0193H78.5466C77.9943 94.0193 77.5466 94.467 77.5466 95.0193V98.5305C77.5466 99.0828 77.9943 99.5305 78.5466 99.5305H83.7998C84.352 99.5305 84.7998 99.0828 84.7998 98.5305V95.0193C84.7998 94.467 84.352 94.0193 83.7998 94.0193Z" fill="#5D5FEF"/>
<path d="M48.9855 100.633H43.7324C43.1801 100.633 42.7324 101.081 42.7324 101.633V105.145C42.7324 105.697 43.1801 106.145 43.7324 106.145H48.9855C49.5378 106.145 49.9855 105.697 49.9855 105.145V101.633C49.9855 101.081 49.5378 100.633 48.9855 100.633Z" fill="#5D5FEF"/>
<path d="M57.6882 100.633H52.4351C51.8828 100.633 51.4351 101.081 51.4351 101.633V105.145C51.4351 105.697 51.8828 106.145 52.4351 106.145H57.6882C58.2405 106.145 58.6882 105.697 58.6882 105.145V101.633C58.6882 101.081 58.2405 100.633 57.6882 100.633Z" fill="#5D5FEF"/>
<path d="M66.3947 100.633H61.1416C60.5893 100.633 60.1416 101.081 60.1416 101.633V105.145C60.1416 105.697 60.5893 106.145 61.1416 106.145H66.3947C66.947 106.145 67.3947 105.697 67.3947 105.145V101.633C67.3947 101.081 66.947 100.633 66.3947 100.633Z" fill="#5D5FEF"/>
<path d="M75.0972 100.633H69.8441C69.2918 100.633 68.8441 101.081 68.8441 101.633V105.145C68.8441 105.697 69.2918 106.145 69.8441 106.145H75.0972C75.6495 106.145 76.0972 105.697 76.0972 105.145V101.633C76.0972 101.081 75.6495 100.633 75.0972 100.633Z" fill="#5D5FEF"/>
<path d="M83.7998 100.633H78.5466C77.9943 100.633 77.5466 101.081 77.5466 101.633V105.145C77.5466 105.697 77.9943 106.145 78.5466 106.145H83.7998C84.352 106.145 84.7998 105.697 84.7998 105.145V101.633C84.7998 101.081 84.352 100.633 83.7998 100.633Z" fill="#5D5FEF"/>
<path d="M48.9855 107.246H43.7324C43.1801 107.246 42.7324 107.694 42.7324 108.246V111.758C42.7324 112.31 43.1801 112.758 43.7324 112.758H48.9855C49.5378 112.758 49.9855 112.31 49.9855 111.758V108.246C49.9855 107.694 49.5378 107.246 48.9855 107.246Z" fill="#5D5FEF"/>
<path d="M57.6882 107.246H52.4351C51.8828 107.246 51.4351 107.694 51.4351 108.246V111.758C51.4351 112.31 51.8828 112.758 52.4351 112.758H57.6882C58.2405 112.758 58.6882 112.31 58.6882 111.758V108.246C58.6882 107.694 58.2405 107.246 57.6882 107.246Z" fill="#5D5FEF"/>
<path d="M66.3947 107.246H61.1416C60.5893 107.246 60.1416 107.694 60.1416 108.246V111.758C60.1416 112.31 60.5893 112.758 61.1416 112.758H66.3947C66.947 112.758 67.3947 112.31 67.3947 111.758V108.246C67.3947 107.694 66.947 107.246 66.3947 107.246Z" fill="#5D5FEF"/>
<path d="M75.0972 107.246H69.8441C69.2918 107.246 68.8441 107.694 68.8441 108.246V111.758C68.8441 112.31 69.2918 112.758 69.8441 112.758H75.0972C75.6495 112.758 76.0972 112.31 76.0972 111.758V108.246C76.0972 107.694 75.6495 107.246 75.0972 107.246Z" fill="#5D5FEF"/>
<path d="M83.7998 107.246H78.5466C77.9943 107.246 77.5466 107.694 77.5466 108.246V111.758C77.5466 112.31 77.9943 112.758 78.5466 112.758H83.7998C84.352 112.758 84.7998 112.31 84.7998 111.758V108.246C84.7998 107.694 84.352 107.246 83.7998 107.246Z" fill="#5D5FEF"/>
<path d="M236.562 79.6904H201.862C201.31 79.6904 200.862 80.1381 200.862 80.6904V97.4286C200.862 97.9809 201.31 98.4286 201.862 98.4286H236.562C237.114 98.4286 237.562 97.9809 237.562 97.4286V80.6904C237.562 80.1381 237.114 79.6904 236.562 79.6904Z" fill="#5D5FEF"/>
<path d="M233.087 92.9167H205.34C204.427 92.9167 203.687 93.657 203.687 94.5701C203.687 95.4833 204.427 96.2235 205.34 96.2235H233.087C234 96.2235 234.741 95.4833 234.741 94.5701C234.741 93.657 234 92.9167 233.087 92.9167Z" fill="white"/>
<path d="M236.562 100.633H201.862C201.31 100.633 200.862 101.081 200.862 101.633V118.372C200.862 118.924 201.31 119.372 201.862 119.372H236.562C237.114 119.372 237.562 118.924 237.562 118.372V101.633C237.562 101.081 237.114 100.633 236.562 100.633Z" fill="#5D5FEF"/>
<path d="M233.087 113.86H205.34C204.427 113.86 203.687 114.6 203.687 115.513C203.687 116.427 204.427 117.167 205.34 117.167H233.087C234 117.167 234.741 116.427 234.741 115.513C234.741 114.6 234 113.86 233.087 113.86Z" fill="white"/>
<path d="M201.862 121.988H236.562C236.838 121.988 237.062 122.211 237.062 122.488V139.226C237.062 139.502 236.838 139.726 236.562 139.726H201.862C201.586 139.726 201.362 139.502 201.362 139.226V122.488C201.362 122.211 201.586 121.988 201.862 121.988Z" fill="white" stroke="#5D5FEF"/>
<path d="M233.087 134.714H205.34C204.427 134.714 203.687 135.455 203.687 136.368C203.687 137.281 204.427 138.021 205.34 138.021H233.087C234 138.021 234.741 137.281 234.741 136.368C234.741 135.455 234 134.714 233.087 134.714Z" fill="#5D5FEF"/>
<path d="M236.558 72.7239H43.7388C43.1865 72.7239 42.7388 73.1716 42.7388 73.7239V76.9485C42.7388 77.5008 43.1865 77.9485 43.7388 77.9485H236.558C237.11 77.9485 237.558 77.5008 237.558 76.9485V73.7239C237.558 73.1716 237.11 72.7239 236.558 72.7239Z" fill="#ADADFA"/>
<path d="M236.558 64.0166H43.7385C43.1862 64.0166 42.7385 64.4643 42.7385 65.0166V69.9828C42.7385 70.5351 43.1862 70.9828 43.7385 70.9828H236.558C237.11 70.9828 237.558 70.5351 237.558 69.9828V65.0166C237.558 64.4643 237.11 64.0166 236.558 64.0166Z" fill="#ADADFA"/>
<path d="M86.7215 222.597L91.4962 209.865H187.808L193.379 222.597H86.7215Z" fill="#7879F1" stroke="#0E092B"/>
<rect x="100.5" y="202.517" width="79" height="12" fill="#7879F1" stroke="#0E092B"/>
<rect x="86.5" y="221.517" width="107" height="4" fill="#5556EF" stroke="#0E092B"/>
<defs>
<linearGradient id="paint0_linear_318_12546" x1="298.693" y1="302.279" x2="216.173" y2="169.472" gradientUnits="userSpaceOnUse">
<stop stop-color="#2743A6"/>
<stop offset="0.46" stop-color="#8F1AEB"/>
<stop offset="0.734" stop-color="#C860D5"/>
<stop offset="1" stop-color="#FFA4C0"/>
</linearGradient>
</defs>
</svg>
