<?xml version="1.0" encoding="utf-8"?>
<!-- Generator: Adobe Illustrator 27.0.1, SVG Export Plug-In . SVG Version: 6.00 Build 0)  -->
<svg version="1.1" id="Calque_1" xmlns="http://www.w3.org/2000/svg" xmlns:xlink="http://www.w3.org/1999/xlink" x="0px" y="0px"
	 viewBox="0 0 381.34 132.23" style="enable-background:new 0 0 381.34 132.23;" xml:space="preserve">
<style type="text/css">
	.st0{fill:#1C1B49;}
	.st1{opacity:0.64;fill:url(#Tracé_78_00000152221740218578664220000012003499872502314391_);}
</style>
<path id="Tracé_79_00000114751899486760160160000011407963804603312021_" class="st0" d="M294.93,0.03h-18.97l-0.14,102.04h19.11
	V0.03z"/>
<path id="Tracé_80_00000019669413645412910270000009697167659510729907_" class="st0" d="M360.31,28.77v0.14
	c-2,5.75-3.87,11.07-5.6,15.96c-1.73,4.89-3.36,9.48-4.89,13.79c-2.01,5.74-3.83,10.89-5.46,15.44c-1.63,4.55-3.11,8.55-4.45,12
	c-1.34,3.45-2.64,6.42-3.88,8.91c-1.08,2.2-2.33,4.32-3.74,6.32c-1.09,1.65-2.42,3.13-3.95,4.39c-1.37,1.09-2.9,1.96-4.53,2.58
	c-1.73,0.65-3.54,1.06-5.38,1.22c-1.97,0.19-4.19,0.28-6.68,0.29h-17.31v19.54h17.31c8.14,0,14.92-1.39,20.33-4.17
	c5.41-2.78,10.27-7.28,14.58-13.51c4.31-6.04,8.36-13.87,12.14-23.49s8.07-21.15,12.86-34.56c1.34-3.64,2.78-7.55,4.32-11.71
	s3.11-8.45,4.74-12.86l0.14-0.28H360.31z"/>
<path id="Tracé_81_00000144305425196971868500000001123177911134545823_" class="st0" d="M214.1,50.75
	c1.78-1.82,3.9-3.26,6.25-4.24c2.46-1.02,5.1-1.53,7.76-1.51c2.68-0.02,5.35,0.49,7.83,1.51c2.36,0.95,4.51,2.37,6.32,4.17
	c1.8,1.81,3.26,3.92,4.31,6.25c1.1,2.39,1.66,4.99,1.65,7.62l-0.14,37.52h19.26V0.03h-19.12v38.8
	c-5.17-7.28-12.64-10.93-22.41-10.93c-9.85-0.06-19.32,3.82-26.29,10.79c-3.38,3.39-6.09,7.38-7.98,11.78
	c-3.92,9.18-3.92,19.56,0,28.74c1.89,4.4,4.6,8.39,7.98,11.78c6.97,6.96,16.44,10.84,26.29,10.77c6.8,0,12.55-1.82,17.24-5.46
	l0.15-0.14l0.24-16.23l-7.57,3.3c-1.18,0.58-2.44,0.97-3.74,1.15c-1.33,0.19-2.68,0.28-4.02,0.29c-2.67,0.02-5.31-0.52-7.76-1.58
	c-4.71-2.02-8.47-5.77-10.49-10.49c-2.11-4.96-2.11-10.56,0-15.52C210.88,54.73,212.32,52.59,214.1,50.75L214.1,50.75z"/>
<path id="Tracé_82_00000025414962505235152570000012722247465456131491_" class="st0" d="M171.93,38.55
	c-3.39-3.38-7.39-6.09-11.78-7.98c-9.28-3.92-19.75-3.92-29.03,0c-8.88,3.81-15.96,10.88-19.76,19.76c-0.9,2.05-1.59,4.18-2.07,6.36
	c-0.08,0.36-0.16,0.73-0.23,1.1c-0.43,2.28-0.65,4.59-0.65,6.91c-0.03,4.94,0.98,9.84,2.94,14.37c3.8,8.88,10.88,15.96,19.76,19.75
	c9.28,3.92,19.75,3.92,29.03,0c8.88-3.8,15.95-10.88,19.75-19.75c3.92-9.18,3.92-19.56,0-28.74
	C178.01,45.93,175.3,41.93,171.93,38.55z M161.5,72.24c-0.86,2.36-2.12,4.55-3.73,6.47c-1.51,1.81-3.37,3.3-5.46,4.38
	c-2.07,1.06-4.36,1.6-6.68,1.58c-2.35,0.01-4.66-0.53-6.76-1.58c-2.13-1.06-4.01-2.55-5.53-4.38c-1.61-1.92-2.87-4.11-3.73-6.47
	c-0.93-2.55-1.4-5.26-1.37-7.97c-0.01-2.62,0.45-5.23,1.37-7.69c0.84-2.32,2.11-4.46,3.73-6.32c1.56-1.75,3.44-3.19,5.53-4.24
	c2.1-1.05,4.41-1.6,6.76-1.58c2.32-0.02,4.61,0.53,6.68,1.58c2.07,1.06,3.92,2.5,5.46,4.23c1.63,1.86,2.89,4,3.73,6.32
	c0.92,2.46,1.38,5.06,1.37,7.69C162.9,66.98,162.44,69.68,161.5,72.24L161.5,72.24z"/>
<path id="Tracé_83_00000049943501633166456510000004295481306689030584_" class="st0" d="M331.71,90.66
	c1.25-2.49,2.54-5.46,3.88-8.91c0.71-1.85,1.47-3.84,2.27-6.01l-16.64-46.83v-0.14h-20.55l27.8,67.49
	C329.68,94.47,330.76,92.6,331.71,90.66z"/>
<path id="Tracé_84_00000163070251946199766360000015622397004785668234_" class="st0" d="M379.7,28.77h-19.39v0.14
	c-2,5.75-3.87,11.07-5.6,15.96c-1.73,4.89-3.36,9.48-4.89,13.79c-2.01,5.74-3.83,10.89-5.46,15.44c-1.63,4.55-3.11,8.55-4.45,12
	c-1.34,3.45-2.64,6.42-3.88,8.91c-1.08,2.2-2.33,4.32-3.74,6.32c-1.09,1.65-2.42,3.13-3.95,4.39c-1.37,1.09-2.9,1.96-4.53,2.58
	c-1.73,0.65-3.54,1.06-5.38,1.22c-1.97,0.19-4.19,0.28-6.68,0.29h-17.31v19.54h17.31c8.14,0,14.92-1.39,20.33-4.17
	c5.41-2.78,10.27-7.28,14.58-13.51c4.31-6.04,8.36-13.87,12.14-23.49s8.07-21.15,12.86-34.56c1.34-3.64,2.78-7.55,4.32-11.71
	s3.11-8.45,4.74-12.86l0.14-0.28H379.7z"/>
<path id="Tracé_86_00000044165002431495898210000006460583977660948152_" class="st0" d="M290.27,114.55
	c-2.21-2.31-5.59-2.31-8.11-2.31c-0.79,0-1.48,0.04-1.53,0.04c-0.54,0.06-0.49-0.19-0.84-0.21c-0.22-0.01-0.36,0.08-0.69,0.45
	c-0.17,0.2-8.39,10.07-8.54,10.22c-0.15,0.14-0.24,0.33-0.27,0.53c0,0.22,0.27,0.31,0.51,0.31h6.29V122h-4.65
	c0.69-0.91,4.82-5.67,5.28-6.26v7.84c0,0,0,1.35-0.06,2.45c-0.04,0.63-0.18,0.94-0.95,1.03c-0.32,0.04-0.63,0.06-0.95,0.06
	c-0.1,0-0.16,0.13-0.16,0.26s0.1,0.24,0.32,0.24c1.11,0,2.21-0.06,2.77-0.06c1.77,0,3.77,0.15,4.54,0.15c3.75,0,5.85-1.44,6.79-2.39
	c1.45-1.52,2.24-3.55,2.21-5.65C292.28,117.77,291.57,115.93,290.27,114.55L290.27,114.55z M287.82,125.32
	c-1.3,1.07-2.97,1.59-4.65,1.46c-1.6,0-2.41-0.42-2.67-0.81c-0.19-0.49-0.28-1.01-0.27-1.54c-0.01-0.14-0.01-0.43-0.02-0.84h1.45
	c0.34,0,0.44-0.08,0.55-0.26c0.17-0.41,0.29-0.84,0.34-1.27c0-0.16-0.08-0.24-0.18-0.24c-0.3,0.11-0.61,0.18-0.93,0.2h-1.24v-8.27
	c-0.02-0.18,0.09-0.35,0.26-0.41c0.45-0.1,0.92-0.15,1.38-0.14c2.11-0.11,4.17,0.62,5.75,2.02c1.32,1.35,2.02,3.18,1.95,5.06
	C289.53,122.36,289.12,124.2,287.82,125.32L287.82,125.32z"/>
<path id="Tracé_2019_00000163771303054438986750000011185356020011335092_" class="st0" d="M250.28,112.07v7.51
	c0.69-0.79,1.69-1.26,2.74-1.27c1.13-0.02,2.21,0.47,2.94,1.33c0.79,0.91,1.21,2.09,1.17,3.3c0.05,1.23-0.38,2.44-1.18,3.38
	c-0.74,0.86-1.83,1.35-2.97,1.32c-1.03-0.01-2-0.43-2.71-1.18v0.92h-2.02v-15.32H250.28z M255.07,123.04
	c0.03-0.75-0.21-1.49-0.68-2.07c-0.42-0.52-1.06-0.83-1.73-0.82c-0.69-0.02-1.36,0.27-1.81,0.79c-0.48,0.57-0.72,1.29-0.69,2.03
	c-0.04,0.75,0.21,1.48,0.68,2.06c0.45,0.52,1.11,0.81,1.79,0.79c0.67,0.01,1.31-0.28,1.74-0.79
	C254.85,124.48,255.1,123.77,255.07,123.04z M261.34,125.75l-3.93-7.19h2.34l2.67,5.08l2.49-5.08h2.28l-6.96,13.64h-2.3
	L261.34,125.75z"/>
<g>
	
		<linearGradient id="Tracé_78_00000044884371823549553720000006694096742159052426_" gradientUnits="userSpaceOnUse" x1="110.4784" y1="109.1133" x2="80.9427" y2="61.1999">
		<stop  offset="0" style="stop-color:#2743A6"/>
		<stop  offset="0.46" style="stop-color:#8F1AEB"/>
		<stop  offset="0.734" style="stop-color:#C860D5"/>
		<stop  offset="1" style="stop-color:#FFA4C0"/>
	</linearGradient>
	
		<path id="Tracé_78_00000032617979700307533910000012564404900004210108_" style="opacity:0.64;fill:url(#Tracé_78_00000044884371823549553720000006694096742159052426_);" d="
		M70.02,79.52l12.07,22.02h21.25L92.26,82.38c9.45-10.77,10.87-23.65,10.87-23.65H85.41C85.41,58.73,82.83,71.94,70.02,79.52z"/>
	<path class="st0" d="M103.13,52.34l-16.8,0c0.3-14.15-6.73-23.19-12.63-27.84c-8.76-7.17-19.33-7.27-19.33-7.27
		c-13.01-0.26-20.82,5.58-25.25,9.96c-6.65,6.63-10.04,15.74-9.69,25.11c0.47,14.94,11.38,27.63,25.55,31.07
		c3.5,0.84,5.37,0.83,6.53,0.95c7.01,0.12,9.15,0.14,13.91,0.14l9.4,17.09c0,0-16.41,0-21.17,0C22.05,101.15,7.54,77.99,3.95,63.8
		C0.61,51.75,3.5,40.14,3.5,40.14C8.86,16.57,29.82-0.17,54.81,0.56c2.8,0.36,18.45,0.1,33.59,14.53
		C95.9,22.6,103.36,34.5,103.13,52.34"/>
</g>
</svg>
