<?xml version="1.0" encoding="UTF-8"?><svg xmlns="http://www.w3.org/2000/svg" xmlns:xlink="http://www.w3.org/1999/xlink" viewBox="0 0 507.9 174.14"><defs><style>.g{fill:url(#e);}.h{letter-spacing:-.02em;}.i{fill:#f2f2f2;}.j{fill:#fff;font-family:Futura-Medium, Futura;font-size:20px;}</style><linearGradient id="e" x1="139.22" y1="138.44" x2="106.67" y2="82.06" gradientTransform="matrix(1, 0, 0, 1, 0, 0)" gradientUnits="userSpaceOnUse"><stop offset="0" stop-color="#2743a6"/><stop offset=".46" stop-color="#8f1aeb"/><stop offset="1" stop-color="#ffa4c0"/></linearGradient></defs><g id="a"/><g id="b"><g id="c"><g id="d"><g><path class="g" d="M134.13,79.9l.25-1.2h-21.87l-.21,.7c-.03,.08-2.41,7.72-7.11,14.56-5.87,8.54-12.57,12.63-12.63,12.67l-1,.6,24.25,28.96h27.33l-22.61-26.46c2.2-2.67,10.06-13.09,13.6-29.83Z"/><polygon class="i" points="393.45 .08 368.19 .08 368 135.99 393.45 135.99 393.45 .08"/><path class="i" d="M480.53,38.36v.19c-2.67,7.66-5.16,14.74-7.46,21.25-2.3,6.5-4.47,12.63-6.51,18.37-2.68,7.65-5.1,14.51-7.27,20.57-2.17,6.06-4.15,11.39-5.93,15.98-1.79,4.6-3.51,8.55-5.17,11.87-1.66,3.32-3.32,6.12-4.98,8.42-1.65,2.42-3.41,4.37-5.26,5.84-1.85,1.46-3.86,2.61-6.03,3.44-2.17,.83-4.56,1.37-7.17,1.63-2.62,.25-5.59,.38-8.9,.38h-23.05v26.03h23.05c10.84,0,19.87-1.85,27.08-5.55,7.2-3.7,13.68-9.7,19.42-17.99,5.74-8.04,11.13-18.47,16.17-31.29,5.04-12.82,10.75-28.17,17.13-46.03,1.79-4.85,3.7-10.05,5.75-15.6,2.03-5.55,4.14-11.26,6.31-17.13l.19-.38h-27.37Z"/><path class="i" d="M285.8,67.64c2.36-2.42,5.14-4.3,8.33-5.64,3.18-1.34,6.63-2.01,10.33-2.01s7.18,.67,10.43,2.01c3.26,1.34,6.06,3.19,8.42,5.55,2.36,2.36,4.28,5.13,5.74,8.32,1.47,3.19,2.2,6.58,2.2,10.15l-.19,49.97h25.65V.08h-25.46V51.76c-6.89-9.7-16.84-14.55-29.85-14.55-6.89,0-13.34,1.28-19.33,3.83-6,2.55-11.23,6.06-15.69,10.53-4.47,4.46-8.01,9.69-10.63,15.69-2.61,6-3.92,12.38-3.92,19.14s1.31,13.14,3.92,19.14c2.62,6,6.16,11.23,10.63,15.69,4.46,4.47,9.69,7.98,15.69,10.53,5.99,2.55,12.44,3.82,19.33,3.82,9.06,0,16.71-2.42,22.96-7.27l.2-.19,.32-21.62-10.08,4.4c-1.54,.76-3.19,1.27-4.98,1.53-1.79,.25-3.57,.38-5.36,.38-3.7,0-7.15-.7-10.33-2.11-3.19-1.4-5.97-3.28-8.33-5.64-2.36-2.36-4.24-5.14-5.64-8.33-1.41-3.18-2.11-6.63-2.11-10.33s.7-7.15,2.11-10.34c1.4-3.18,3.28-5.99,5.64-8.42Z"/><path class="i" d="M229.63,51.38c-4.47-4.47-9.7-8.01-15.69-10.63-6-2.61-12.44-3.92-19.33-3.92s-13.34,1.31-19.33,3.92c-6,2.62-11.23,6.16-15.7,10.63-4.46,4.46-8,9.69-10.62,15.69-1.2,2.74-2.12,5.56-2.76,8.47-.11,.48-.21,.97-.3,1.47-.57,2.98-.86,6.05-.86,9.2,0,6.76,1.31,13.14,3.92,19.14,2.62,5.99,6.16,11.22,10.62,15.69,4.47,4.47,9.7,8.01,15.7,10.62,5.99,2.61,12.44,3.92,19.33,3.92s13.33-1.31,19.33-3.92c5.99-2.61,11.22-6.15,15.69-10.62,4.46-4.47,8.01-9.7,10.62-15.69,2.62-6,3.92-12.38,3.92-19.14s-1.3-13.14-3.92-19.14c-2.61-6-6.16-11.23-10.62-15.69Zm-13.88,44.87c-1.21,3.26-2.87,6.13-4.97,8.62-2.11,2.49-4.53,4.43-7.27,5.83-2.75,1.41-5.72,2.11-8.9,2.11s-6.19-.7-9-2.11c-2.81-1.4-5.26-3.34-7.37-5.83-2.1-2.49-3.76-5.36-4.97-8.62-1.22-3.25-1.82-6.79-1.82-10.62,0-3.57,.6-6.98,1.82-10.24,1.21-3.25,2.87-6.05,4.97-8.42,2.11-2.36,4.56-4.24,7.37-5.64,2.81-1.41,5.81-2.11,9-2.11s6.15,.7,8.9,2.11c2.74,1.4,5.16,3.28,7.27,5.64,2.1,2.37,3.76,5.17,4.97,8.42,1.22,3.26,1.82,6.67,1.82,10.24,0,3.83-.6,7.37-1.82,10.62Z"/><path class="i" d="M442.44,120.79c1.66-3.32,3.38-7.27,5.17-11.87,.95-2.46,1.96-5.12,3.03-8l-22.16-62.37v-.19h-27.37l37.02,89.89c1.44-2.11,2.87-4.59,4.31-7.46Z"/><path class="i" d="M506.36,38.36h-25.83v.19c-2.67,7.66-5.16,14.74-7.46,21.25-2.3,6.5-4.47,12.63-6.51,18.37-2.68,7.65-5.1,14.51-7.27,20.57-2.17,6.06-4.15,11.39-5.93,15.98-1.79,4.6-3.51,8.55-5.17,11.87-1.66,3.32-3.32,6.12-4.98,8.42-1.65,2.42-3.41,4.37-5.26,5.84-1.85,1.46-3.86,2.61-6.03,3.44-2.17,.83-4.56,1.37-7.17,1.63-2.62,.25-5.59,.38-8.9,.38h-23.05v26.03h23.05c10.84,0,19.87-1.85,27.08-5.55,7.2-3.7,13.68-9.7,19.42-17.99,5.74-8.04,11.13-18.47,16.17-31.29,5.04-12.82,10.75-28.17,17.13-46.03,1.79-4.85,3.7-10.05,5.75-15.6,2.03-5.55,4.14-11.26,6.31-17.13l.19-.38h-1.54Z"/></g><path class="i" d="M83.08,113.64l18.93,22.6-33.68,.03-11.17-.03c-9.38,.01-18.55-2.45-26.56-7.11-2.94-1.71-5.72-3.71-8.29-6-8.79-7.8-17.6-19.72-20.92-37.37-.01-.02-.02-.03-.03-.05v-.09c-1.68-9.04-1.93-19.58,0-31.84C8.57,21.67,36.68-.66,69.93,.02c12.81,.27,25.06,4.28,35.59,11.48,.31,.2,.62,.41,.92,.62,.25,.18,.5,.35,.74,.53,8.82,6.31,16.06,14.69,21.02,24.42,.17,.33,.34,.65,.5,.98,.1,.21,.2,.41,.3,.61,4.35,8.92,6.63,18.54,6.54,28.06,0,.36,.02,.71,.02,1.06,0,.82-.03,1.62-.06,2.43h-22c.04-.81,.06-1.61,.06-2.43,0-1.52-.08-3.02-.23-4.5-2.68-22.17-21.26-39.86-43.98-40.63-4.43-.15-8.75,.29-12.88,1.28-.02,0-.04,.01-.05,.01-.48,.12-.95,.24-1.42,.38-.97,.26-1.94,.56-2.89,.9-.23,.07-.46,.15-.69,.24-6.2,2.27-11.84,5.87-16.59,10.67-8.99,9.09-13.84,21.44-13.3,33.9,0,19.98,17.86,39.48,35.59,42.56,6.4,1.37,24.04,1.24,25.96,1.05Z"/><g id="f"><path class="i" d="M384.1,151.42c-3.09-3.23-7.82-3.23-11.35-3.23-1.11,0-2.07,.05-2.14,.06-.76,.09-.69-.26-1.17-.29-.31-.01-.51,.11-.96,.63-.24,.28-11.74,14.08-11.94,14.3-.11,.14-.37,.4-.37,.74,0,.31,.37,.43,.71,.43h8.79v-2.21h-6.5c.96-1.27,6.74-7.93,7.39-8.75v10.96s0,1.89-.09,3.42c-.05,.88-.25,1.32-1.33,1.44-.45,.06-1.08,.09-1.33,.09-.14,0-.23,.18-.23,.37s.14,.34,.45,.34c1.56,0,3.09-.09,3.88-.09,2.48,0,5.27,.21,6.35,.21,5.24,0,8.18-2.01,9.49-3.34,1.59-1.61,3.09-4.33,3.09-7.9,0-3.37-1.34-5.72-2.75-7.19Zm-3.43,15.07c-1.7,1.47-3.62,2.04-6.51,2.04-2.24,0-3.37-.59-3.73-1.13-.23-.31-.35-1.44-.38-2.15-.01-.19-.02-.6-.03-1.17h2.03c.48,0,.62-.11,.77-.37,.2-.37,.48-1.53,.48-1.78,0-.23-.11-.34-.25-.34-.17,0-.54,.28-1.3,.28h-1.74v-11.57c0-.31,.11-.45,.36-.57,.23-.11,1.36-.2,1.93-.2,2.21,0,5.44,.34,8.04,2.83,1.22,1.16,2.72,3.48,2.72,7.08,0,2.91-.57,5.49-2.38,7.05Z"/></g><text class="j" transform="translate(328.58 168.37)"><tspan class="h" x="0" y="0">b</tspan><tspan x="11.63" y="0">y</tspan></text></g></g></g></svg>