<svg width="160" height="160" viewBox="0 0 160 160" fill="none" xmlns="http://www.w3.org/2000/svg">
<g opacity="0.1">
<path d="M107.223 125.106L126.341 159.984H160L142.434 129.636C157.402 112.577 159.652 92.1753 159.652 92.1753H131.6C131.6 92.1753 127.513 113.099 107.223 125.106Z" fill="url(#paint0_linear_318_12546)"/>
<path d="M159.652 82.0536H133.042C133.517 59.6406 122.382 45.3217 113.037 37.9563C99.1611 26.5993 82.4188 26.4409 82.4188 26.4409C61.8117 26.0291 49.4411 35.2794 42.4242 42.2171C31.891 52.7187 26.5214 67.1486 27.0758 81.9902C27.8202 105.655 45.1011 125.755 67.5456 131.204C73.0894 132.534 76.0514 132.518 77.8888 132.708C88.9922 132.899 92.3819 132.93 99.9214 132.93L114.811 160C114.811 160 88.818 160 81.2784 160C31.2415 159.366 8.24264 122.682 2.55627 100.206C-2.73411 81.1349 1.82766 62.7293 1.82766 62.7293C10.3334 25.3955 43.533 -1.11989 83.1158 0.0363926C87.5508 0.606616 112.34 0.194787 136.321 23.0513C148.2 34.9468 160.016 53.7958 159.652 82.0536Z" fill="#19194D"/>
</g>
<path d="M16.7014 121.521L79.9728 158.414L141.312 123.503V121.05L77.5885 86.3315L16.7014 119.068V121.521Z" fill="#3A3A3A"/>
<path d="M16.7014 119.068L79.9728 155.97L141.312 121.05L77.5885 83.8784L16.7014 119.068Z" fill="#F3F3FD"/>
<path d="M79.9728 156.086L79.9247 156.057L16.4995 119.068L77.5981 83.7632L77.6462 83.792L141.523 121.05L141.369 121.137L79.9728 156.086ZM16.9033 119.068L79.9728 155.855L141.11 121.05L77.5885 84.0037L16.9033 119.068Z" fill="#3A3A3A"/>
<path d="M117.286 120.636L120.929 122.762L123.919 121.06L120.256 118.914L117.286 120.636Z" fill="#3A3A3A"/>
<path d="M74.7715 95.4704L78.4153 97.5964L81.4149 95.8937L77.7423 93.7581L74.7715 95.4704Z" fill="#3A3A3A"/>
<path d="M77.0308 143.667L80.6746 145.793L83.6646 144.09L79.9919 141.945L77.0308 143.667Z" fill="#3A3A3A"/>
<path d="M34.5166 118.501L38.1604 120.627L41.1504 118.924L37.4874 116.788L34.5166 118.501Z" fill="#3A3A3A"/>
<path d="M21.2778 119.078L79.9921 153.315L136.716 121.021L77.5885 86.5334L21.2778 119.078ZM80.0113 148.505L29.5749 119.087L77.5693 91.353L128.361 120.973L80.0113 148.496V148.505Z" fill="#ADADFA"/>
<path d="M79.9822 153.431L79.9342 153.402L21.0757 119.078L77.5883 86.4277L77.6363 86.4566L136.918 121.031L136.764 121.117L79.9822 153.44V153.431ZM21.4795 119.078L79.9822 153.2L136.504 121.021L77.5787 86.6586L21.4795 119.078ZM80.0111 148.63L79.963 148.602L29.3728 119.097L77.5787 91.2473L77.6267 91.2762L128.563 120.992L128.409 121.079L80.0015 148.63H80.0111ZM29.7766 119.097L80.0111 148.399L128.159 120.992L77.5787 91.4878L29.7862 119.107L29.7766 119.097Z" fill="#3A3A3A"/>
<path d="M25.321 30.6541H135.372C138.41 30.6541 140.872 33.1165 140.872 36.1541V113.928H19.821V36.1541C19.821 33.1165 22.2835 30.6541 25.321 30.6541Z" fill="#7879F1" stroke="#0E092B"/>
<path d="M26.4714 33.5601H134.226C136.159 33.5601 137.726 35.1271 137.726 37.0601V101.71C137.726 103.643 136.159 105.21 134.226 105.21H26.4714C24.5384 105.21 22.9714 103.643 22.9714 101.71V37.0601C22.9714 35.1271 24.5384 33.5601 26.4714 33.5601Z" fill="#F8F9FB" stroke="#0E092B"/>
<path d="M51.7603 49.4963H111.973C112.25 49.4963 112.473 49.7202 112.473 49.9963V92.7806C112.473 93.0567 112.25 93.2806 111.973 93.2806H51.7603C51.4841 93.2806 51.2603 93.0567 51.2603 92.7806V49.9963C51.2603 49.7202 51.4841 49.4963 51.7603 49.4963Z" fill="white" stroke="#5D5FEF"/>
<path d="M53.3962 61.9365H80.047C80.3232 61.9365 80.547 62.1604 80.547 62.4365V71.6326C80.547 71.9087 80.3232 72.1326 80.047 72.1326H53.3962C53.1201 72.1326 52.8962 71.9087 52.8962 71.6326V62.4365C52.8962 62.1604 53.1201 61.9365 53.3962 61.9365Z" stroke="#5D5FEF"/>
<path d="M83.6843 61.9365H110.335C110.611 61.9365 110.835 62.1604 110.835 62.4365V64.7905C110.835 65.0667 110.611 65.2905 110.335 65.2905H83.6843C83.4082 65.2905 83.1843 65.0667 83.1843 64.7905V62.4365C83.1843 62.1604 83.4082 61.9365 83.6843 61.9365Z" stroke="#5D5FEF"/>
<path d="M83.6843 66.9121H110.335C110.611 66.9121 110.835 67.136 110.835 67.4121V71.6321C110.835 71.9083 110.611 72.1321 110.335 72.1321H83.6843C83.4082 72.1321 83.1843 71.9083 83.1843 71.6321V67.4121C83.1843 67.136 83.4082 66.9121 83.6843 66.9121Z" stroke="#5D5FEF"/>
<path d="M53.3962 50.7402H110.335C110.611 50.7402 110.835 50.9641 110.835 51.2402V56.7043C110.835 56.9804 110.611 57.2043 110.335 57.2043H53.3962C53.1201 57.2043 52.8962 56.9804 52.8962 56.7043V51.2402C52.8962 50.9641 53.1201 50.7402 53.3962 50.7402Z" stroke="#5D5FEF"/>
<path d="M62.0375 55.2163H56.6702C56.1179 55.2163 55.6702 55.664 55.6702 56.2163V59.1923C55.6702 59.7446 56.1179 60.1923 56.6702 60.1923H62.0375C62.5898 60.1923 63.0375 59.7446 63.0375 59.1923V56.2163C63.0375 55.664 62.5898 55.2163 62.0375 55.2163Z" fill="#5D5FEF"/>
<path d="M71.0429 55.2163H65.6755C65.1233 55.2163 64.6755 55.664 64.6755 56.2163V59.1923C64.6755 59.7446 65.1233 60.1923 65.6755 60.1923H71.0429C71.5952 60.1923 72.0429 59.7446 72.0429 59.1923V56.2163C72.0429 55.664 71.5952 55.2163 71.0429 55.2163Z" fill="#5D5FEF"/>
<path d="M80.0461 55.2163H74.6787C74.1264 55.2163 73.6787 55.664 73.6787 56.2163V59.1923C73.6787 59.7446 74.1264 60.1923 74.6787 60.1923H80.0461C80.5983 60.1923 81.0461 59.7446 81.0461 59.1923V56.2163C81.0461 55.664 80.5983 55.2163 80.0461 55.2163Z" fill="#5D5FEF"/>
<path d="M89.0517 55.2163H83.6843C83.132 55.2163 82.6843 55.664 82.6843 56.2163V59.1923C82.6843 59.7446 83.132 60.1923 83.6843 60.1923H89.0517C89.604 60.1923 90.0517 59.7446 90.0517 59.1923V56.2163C90.0517 55.664 89.604 55.2163 89.0517 55.2163Z" fill="#5D5FEF"/>
<path d="M98.0551 55.2163H92.6877C92.1355 55.2163 91.6877 55.664 91.6877 56.2163V59.1923C91.6877 59.7446 92.1355 60.1923 92.6877 60.1923H98.0551C98.6074 60.1923 99.0551 59.7446 99.0551 59.1923V56.2163C99.0551 55.664 98.6074 55.2163 98.0551 55.2163Z" fill="#5D5FEF"/>
<path d="M107.061 55.2163H101.694C101.141 55.2163 100.694 55.664 100.694 56.2163V59.1923C100.694 59.7446 101.141 60.1923 101.694 60.1923H107.061C107.613 60.1923 108.061 59.7446 108.061 59.1923V56.2163C108.061 55.664 107.613 55.2163 107.061 55.2163Z" fill="#5D5FEF"/>
<path d="M64.4932 44.6421H51.7585C51.2063 44.6421 50.7585 45.0898 50.7585 45.6421V46.7521C50.7585 47.3044 51.2063 47.7521 51.7585 47.7521H64.4932C65.0455 47.7521 65.4932 47.3044 65.4932 46.7521V45.6421C65.4932 45.0898 65.0455 44.6421 64.4932 44.6421Z" fill="#5D5FEF"/>
<path d="M80.0467 44.6421H67.312C66.7597 44.6421 66.312 45.0898 66.312 45.6421V46.7521C66.312 47.3044 66.7597 47.7521 67.312 47.7521H80.0467C80.599 47.7521 81.0467 47.3044 81.0467 46.7521V45.6421C81.0467 45.0898 80.599 44.6421 80.0467 44.6421Z" fill="#5D5FEF"/>
<path d="M96.4188 44.6421H82.8655C82.3132 44.6421 81.8655 45.0898 81.8655 45.6421V46.7521C81.8655 47.3044 82.3132 47.7521 82.8655 47.7521H96.4188C96.9711 47.7521 97.4188 47.3044 97.4188 46.7521V45.6421C97.4188 45.0898 96.9711 44.6421 96.4188 44.6421Z" fill="#5D5FEF"/>
<path d="M111.972 44.6421H99.2375C98.6853 44.6421 98.2375 45.0898 98.2375 45.6421V46.7521C98.2375 47.3044 98.6853 47.7521 99.2375 47.7521H111.972C112.525 47.7521 112.972 47.3044 112.972 46.7521V45.6421C112.972 45.0898 112.525 44.6421 111.972 44.6421Z" fill="#5D5FEF"/>
<path d="M48.1213 44.6421H26.3821C25.8298 44.6421 25.3821 45.0898 25.3821 45.6421V46.7521C25.3821 47.3044 25.8298 47.7521 26.3821 47.7521H48.1213C48.6736 47.7521 49.1213 47.3044 49.1213 46.7521V45.6421C49.1213 45.0898 48.6736 44.6421 48.1213 44.6421Z" fill="#5D5FEF"/>
<path d="M48.1216 64.5459H26.3823C25.83 64.5459 25.3823 64.9936 25.3823 65.5459V66.6559C25.3823 67.2082 25.83 67.6559 26.3823 67.6559H48.1216C48.6738 67.6559 49.1216 67.2082 49.1216 66.6559V65.5459C49.1216 64.9936 48.6738 64.5459 48.1216 64.5459Z" fill="#5D5FEF"/>
<path d="M48.1216 77.6079H26.3823C25.83 77.6079 25.3823 78.0556 25.3823 78.6079V79.7179C25.3823 80.2702 25.83 80.7179 26.3823 80.7179H48.1216C48.6738 80.7179 49.1216 80.2702 49.1216 79.7179V78.6079C49.1216 78.0556 48.6738 77.6079 48.1216 77.6079Z" fill="#5D5FEF"/>
<path d="M48.1216 68.8999H26.3823C25.83 68.8999 25.3823 69.3476 25.3823 69.8999V71.0099C25.3823 71.5622 25.83 72.0099 26.3823 72.0099H48.1216C48.6738 72.0099 49.1216 71.5622 49.1216 71.0099V69.8999C49.1216 69.3476 48.6738 68.8999 48.1216 68.8999Z" fill="#5D5FEF"/>
<path d="M48.1216 81.9622H26.3823C25.83 81.9622 25.3823 82.4099 25.3823 82.9622V84.0722C25.3823 84.6245 25.83 85.0722 26.3823 85.0722H48.1216C48.6738 85.0722 49.1216 84.6245 49.1216 84.0722V82.9622C49.1216 82.4099 48.6738 81.9622 48.1216 81.9622Z" fill="#5D5FEF"/>
<path d="M48.1216 73.2544H26.3823C25.83 73.2544 25.3823 73.7021 25.3823 74.2544V75.3644C25.3823 75.9167 25.83 76.3644 26.3823 76.3644H48.1216C48.6738 76.3644 49.1216 75.9167 49.1216 75.3644V74.2544C49.1216 73.7021 48.6738 73.2544 48.1216 73.2544Z" fill="#5D5FEF"/>
<path d="M48.1216 86.3164H26.3823C25.83 86.3164 25.3823 86.7641 25.3823 87.3164V88.4264C25.3823 88.9787 25.83 89.4264 26.3823 89.4264H48.1216C48.6738 89.4264 49.1216 88.9787 49.1216 88.4264V87.3164C49.1216 86.7641 48.6738 86.3164 48.1216 86.3164Z" fill="#5D5FEF"/>
<path d="M48.1216 90.6702H26.3823C25.83 90.6702 25.3823 91.1179 25.3823 91.6702V92.7802C25.3823 93.3325 25.83 93.7802 26.3823 93.7802H48.1216C48.6738 93.7802 49.1216 93.3325 49.1216 92.7802V91.6702C49.1216 91.1179 48.6738 90.6702 48.1216 90.6702Z" fill="#5D5FEF"/>
<path d="M28.4704 48.9956H26.3774C25.8252 48.9956 25.3774 49.4433 25.3774 49.9956V51.1056C25.3774 51.6579 25.8252 52.1056 26.3774 52.1056H28.4704C29.0227 52.1056 29.4704 51.6579 29.4704 51.1056V49.9956C29.4704 49.4433 29.0227 48.9956 28.4704 48.9956Z" fill="#5D5FEF"/>
<path d="M33.3813 48.9956H31.2883C30.736 48.9956 30.2883 49.4433 30.2883 49.9956V51.1056C30.2883 51.6579 30.736 52.1056 31.2883 52.1056H33.3813C33.9336 52.1056 34.3813 51.6579 34.3813 51.1056V49.9956C34.3813 49.4433 33.9336 48.9956 33.3813 48.9956Z" fill="#5D5FEF"/>
<path d="M38.2944 48.9956H36.2014C35.6491 48.9956 35.2014 49.4433 35.2014 49.9956V51.1056C35.2014 51.6579 35.6491 52.1056 36.2014 52.1056H38.2944C38.8467 52.1056 39.2944 51.6579 39.2944 51.1056V49.9956C39.2944 49.4433 38.8467 48.9956 38.2944 48.9956Z" fill="#5D5FEF"/>
<path d="M43.2053 48.9956H41.1123C40.56 48.9956 40.1123 49.4433 40.1123 49.9956V51.1056C40.1123 51.6579 40.56 52.1056 41.1123 52.1056H43.2053C43.7576 52.1056 44.2053 51.6579 44.2053 51.1056V49.9956C44.2053 49.4433 43.7576 48.9956 43.2053 48.9956Z" fill="#5D5FEF"/>
<path d="M48.1162 48.9956H46.0232C45.4709 48.9956 45.0232 49.4433 45.0232 49.9956V51.1056C45.0232 51.6579 45.4709 52.1056 46.0232 52.1056H48.1162C48.6684 52.1056 49.1162 51.6579 49.1162 51.1056V49.9956C49.1162 49.4433 48.6684 48.9956 48.1162 48.9956Z" fill="#5D5FEF"/>
<path d="M28.4704 52.728H26.3774C25.8252 52.728 25.3774 53.1757 25.3774 53.728V54.838C25.3774 55.3903 25.8252 55.838 26.3774 55.838H28.4704C29.0227 55.838 29.4704 55.3903 29.4704 54.838V53.728C29.4704 53.1757 29.0227 52.728 28.4704 52.728Z" fill="#5D5FEF"/>
<path d="M33.3813 52.728H31.2883C30.736 52.728 30.2883 53.1757 30.2883 53.728V54.838C30.2883 55.3903 30.736 55.838 31.2883 55.838H33.3813C33.9336 55.838 34.3813 55.3903 34.3813 54.838V53.728C34.3813 53.1757 33.9336 52.728 33.3813 52.728Z" fill="#5D5FEF"/>
<path d="M38.2944 52.728H36.2014C35.6491 52.728 35.2014 53.1757 35.2014 53.728V54.838C35.2014 55.3903 35.6491 55.838 36.2014 55.838H38.2944C38.8467 55.838 39.2944 55.3903 39.2944 54.838V53.728C39.2944 53.1757 38.8467 52.728 38.2944 52.728Z" fill="#5D5FEF"/>
<path d="M43.2053 52.728H41.1123C40.56 52.728 40.1123 53.1757 40.1123 53.728V54.838C40.1123 55.3903 40.56 55.838 41.1123 55.838H43.2053C43.7576 55.838 44.2053 55.3903 44.2053 54.838V53.728C44.2053 53.1757 43.7576 52.728 43.2053 52.728Z" fill="#5D5FEF"/>
<path d="M48.1162 52.728H46.0232C45.4709 52.728 45.0232 53.1757 45.0232 53.728V54.838C45.0232 55.3903 45.4709 55.838 46.0232 55.838H48.1162C48.6684 55.838 49.1162 55.3903 49.1162 54.838V53.728C49.1162 53.1757 48.6684 52.728 48.1162 52.728Z" fill="#5D5FEF"/>
<path d="M28.4704 56.46H26.3774C25.8252 56.46 25.3774 56.9077 25.3774 57.46V58.57C25.3774 59.1223 25.8252 59.57 26.3774 59.57H28.4704C29.0227 59.57 29.4704 59.1223 29.4704 58.57V57.46C29.4704 56.9077 29.0227 56.46 28.4704 56.46Z" fill="#5D5FEF"/>
<path d="M33.3813 56.46H31.2883C30.736 56.46 30.2883 56.9077 30.2883 57.46V58.57C30.2883 59.1223 30.736 59.57 31.2883 59.57H33.3813C33.9336 59.57 34.3813 59.1223 34.3813 58.57V57.46C34.3813 56.9077 33.9336 56.46 33.3813 56.46Z" fill="#5D5FEF"/>
<path d="M38.2944 56.46H36.2014C35.6491 56.46 35.2014 56.9077 35.2014 57.46V58.57C35.2014 59.1223 35.6491 59.57 36.2014 59.57H38.2944C38.8467 59.57 39.2944 59.1223 39.2944 58.57V57.46C39.2944 56.9077 38.8467 56.46 38.2944 56.46Z" fill="#5D5FEF"/>
<path d="M43.2053 56.46H41.1123C40.56 56.46 40.1123 56.9077 40.1123 57.46V58.57C40.1123 59.1223 40.56 59.57 41.1123 59.57H43.2053C43.7576 59.57 44.2053 59.1223 44.2053 58.57V57.46C44.2053 56.9077 43.7576 56.46 43.2053 56.46Z" fill="#5D5FEF"/>
<path d="M48.1162 56.46H46.0232C45.4709 56.46 45.0232 56.9077 45.0232 57.46V58.57C45.0232 59.1223 45.4709 59.57 46.0232 59.57H48.1162C48.6684 59.57 49.1162 59.1223 49.1162 58.57V57.46C49.1162 56.9077 48.6684 56.46 48.1162 56.46Z" fill="#5D5FEF"/>
<path d="M28.4704 60.1919H26.3774C25.8252 60.1919 25.3774 60.6396 25.3774 61.1919V62.3019C25.3774 62.8542 25.8252 63.3019 26.3774 63.3019H28.4704C29.0227 63.3019 29.4704 62.8542 29.4704 62.3019V61.1919C29.4704 60.6396 29.0227 60.1919 28.4704 60.1919Z" fill="#5D5FEF"/>
<path d="M33.3813 60.1919H31.2883C30.736 60.1919 30.2883 60.6396 30.2883 61.1919V62.3019C30.2883 62.8542 30.736 63.3019 31.2883 63.3019H33.3813C33.9336 63.3019 34.3813 62.8542 34.3813 62.3019V61.1919C34.3813 60.6396 33.9336 60.1919 33.3813 60.1919Z" fill="#5D5FEF"/>
<path d="M38.2944 60.1919H36.2014C35.6491 60.1919 35.2014 60.6396 35.2014 61.1919V62.3019C35.2014 62.8542 35.6491 63.3019 36.2014 63.3019H38.2944C38.8467 63.3019 39.2944 62.8542 39.2944 62.3019V61.1919C39.2944 60.6396 38.8467 60.1919 38.2944 60.1919Z" fill="#5D5FEF"/>
<path d="M43.2053 60.1919H41.1123C40.56 60.1919 40.1123 60.6396 40.1123 61.1919V62.3019C40.1123 62.8542 40.56 63.3019 41.1123 63.3019H43.2053C43.7576 63.3019 44.2053 62.8542 44.2053 62.3019V61.1919C44.2053 60.6396 43.7576 60.1919 43.2053 60.1919Z" fill="#5D5FEF"/>
<path d="M48.1162 60.1919H46.0232C45.4709 60.1919 45.0232 60.6396 45.0232 61.1919V62.3019C45.0232 62.8542 45.4709 63.3019 46.0232 63.3019H48.1162C48.6684 63.3019 49.1162 62.8542 49.1162 62.3019V61.1919C49.1162 60.6396 48.6684 60.1919 48.1162 60.1919Z" fill="#5D5FEF"/>
<path d="M134.321 44.6421H115.611C115.058 44.6421 114.611 45.0898 114.611 45.6421V54.2161C114.611 54.7684 115.058 55.2161 115.611 55.2161H134.321C134.873 55.2161 135.321 54.7684 135.321 54.2161V45.6421C135.321 45.0898 134.873 44.6421 134.321 44.6421Z" fill="#5D5FEF"/>
<path d="M132.795 52.1055H117.138C116.622 52.1055 116.205 52.5232 116.205 53.0385C116.205 53.5538 116.622 53.9715 117.138 53.9715H132.795C133.311 53.9715 133.728 53.5538 133.728 53.0385C133.728 52.5232 133.311 52.1055 132.795 52.1055Z" fill="white"/>
<path d="M134.321 56.46H115.611C115.058 56.46 114.611 56.9077 114.611 57.46V66.034C114.611 66.5863 115.058 67.034 115.611 67.034H134.321C134.873 67.034 135.321 66.5863 135.321 66.034V57.46C135.321 56.9077 134.873 56.46 134.321 56.46Z" fill="#5D5FEF"/>
<path d="M132.795 63.9241H117.138C116.622 63.9241 116.205 64.3418 116.205 64.8571C116.205 65.3724 116.622 65.7901 117.138 65.7901H132.795C133.311 65.7901 133.728 65.3724 133.728 64.8571C133.728 64.3418 133.311 63.9241 132.795 63.9241Z" fill="white"/>
<path d="M115.611 68.7283H134.321C134.597 68.7283 134.821 68.9521 134.821 69.2283V77.8023C134.821 78.0785 134.597 78.3023 134.321 78.3023H115.611C115.334 78.3023 115.111 78.0785 115.111 77.8023V69.2283C115.111 68.9521 115.334 68.7283 115.611 68.7283Z" fill="white" stroke="#5D5FEF"/>
<path d="M132.795 75.6919H117.138C116.622 75.6919 116.205 76.1096 116.205 76.6249C116.205 77.1402 116.622 77.5579 117.138 77.5579H132.795C133.311 77.5579 133.728 77.1402 133.728 76.6249C133.728 76.1096 133.311 75.6919 132.795 75.6919Z" fill="#5D5FEF"/>
<path d="M134.318 40.7104H26.3811C25.8288 40.7104 25.3811 41.1582 25.3811 41.7105V42.6587C25.3811 43.211 25.8288 43.6587 26.3811 43.6587H134.318C134.871 43.6587 135.318 43.211 135.318 42.6587V41.7104C135.318 41.1582 134.871 40.7104 134.318 40.7104Z" fill="#ADADFA"/>
<path d="M134.318 35.7971H26.3806C25.8283 35.7971 25.3806 36.2448 25.3806 36.7971V38.7282C25.3806 39.2805 25.8283 39.7282 26.3806 39.7282H134.318C134.87 39.7282 135.318 39.2805 135.318 38.7282V36.7971C135.318 36.2448 134.87 35.7971 134.318 35.7971Z" fill="#ADADFA"/>
<path d="M50.515 125.067L53.0459 118.318H107.102L110.055 125.067H50.515Z" fill="#7879F1" stroke="#0E092B"/>
<rect x="58.1938" y="114.171" width="44.1444" height="6.33596" fill="#7879F1" stroke="#0E092B"/>
<rect x="50.2935" y="124.893" width="59.9449" height="1.82152" fill="#5556EF" stroke="#0E092B"/>
<defs>
<linearGradient id="paint0_linear_318_12546" x1="171.293" y1="171.98" x2="124.51" y2="96.0878" gradientUnits="userSpaceOnUse">
<stop stop-color="#2743A6"/>
<stop offset="0.46" stop-color="#8F1AEB"/>
<stop offset="0.734" stop-color="#C860D5"/>
<stop offset="1" stop-color="#FFA4C0"/>
</linearGradient>
</defs>
</svg>
