<svg width="160" height="160" viewBox="0 0 160 160" fill="none" xmlns="http://www.w3.org/2000/svg">
<g opacity="0.1">
<path d="M107.223 125.106L126.341 159.984H160L142.434 129.636C157.402 112.577 159.652 92.1753 159.652 92.1753H131.6C131.6 92.1753 127.513 113.099 107.223 125.106Z" fill="url(#paint0_linear_318_12545)"/>
<path d="M159.652 82.0536H133.042C133.517 59.6406 122.382 45.3217 113.037 37.9563C99.1611 26.5993 82.4188 26.4409 82.4188 26.4409C61.8117 26.0291 49.4411 35.2794 42.4242 42.2171C31.891 52.7187 26.5214 67.1486 27.0758 81.9902C27.8202 105.655 45.1011 125.755 67.5456 131.204C73.0894 132.534 76.0514 132.518 77.8888 132.708C88.9922 132.899 92.3819 132.93 99.9214 132.93L114.811 160C114.811 160 88.818 160 81.2784 160C31.2415 159.366 8.24264 122.682 2.55627 100.206C-2.73411 81.1349 1.82766 62.7293 1.82766 62.7293C10.3334 25.3955 43.533 -1.11989 83.1158 0.0363926C87.5508 0.606616 112.34 0.194787 136.321 23.0513C148.2 34.9468 160.016 53.7958 159.652 82.0536Z" fill="#19194D"/>
</g>
<path d="M17.4634 121.355L80.9341 158.071L142.466 123.327V120.886L78.5423 86.333L17.4634 118.913V121.355Z" fill="#3A3A3A"/>
<path d="M17.4634 118.914L80.9341 155.64L142.466 120.886L78.5423 83.8918L17.4634 118.914Z" fill="#F3F3FD"/>
<path d="M80.934 155.754L80.8858 155.726L17.2607 118.913L78.5518 83.7769L78.6001 83.8056L142.678 120.886L142.524 120.972L80.934 155.754ZM17.6658 118.913L80.934 155.525L142.264 120.886L78.5422 84.0162L17.6658 118.913Z" fill="#3A3A3A"/>
<path d="M118.365 120.474L122.02 122.59L125.019 120.895L121.345 118.76L118.365 120.474Z" fill="#3A3A3A"/>
<path d="M75.7163 95.4283L79.3716 97.5442L82.3807 95.8496L78.6965 93.7241L75.7163 95.4283Z" fill="#3A3A3A"/>
<path d="M77.9829 143.394L81.6382 145.51L84.6376 143.815L80.9534 141.68L77.9829 143.394Z" fill="#3A3A3A"/>
<path d="M35.3345 118.348L38.9898 120.464L41.9892 118.77L38.3146 116.644L35.3345 118.348Z" fill="#3A3A3A"/>
<path d="M22.0542 118.923L80.9534 152.997L137.856 120.857L78.5423 86.5342L22.0542 118.923ZM80.0959 147.8L29.9976 119.158L78.523 91.3308L129.345 120.281L80.662 147.8H80.0959Z" fill="#ADADFA"/>
<path d="M80.9439 153.112L80.8957 153.083L21.8518 118.923L78.5425 86.429L78.5907 86.4577L138.059 120.867L137.905 120.953L80.9439 153.122V153.112ZM22.2569 118.923L80.9439 152.882L137.644 120.857L78.5328 86.6587L22.2569 118.923ZM80.3791 148.362L80.0961 148.081L29.7148 119.158L78.5328 91.2255L78.581 91.2543L129.628 120.282L129.474 120.368L80.6622 148.362H80.3791ZM30.3974 119.071L80.6192 147.957L129.223 120.282L78.5328 91.4649L30.5898 118.952L30.3974 119.071Z" fill="#3A3A3A"/>
<path d="M33.3914 105.993L80.5407 133.149L127.424 106.783L79.9377 79.4185L33.3914 105.993Z" fill="#5D5FEF"/>
<path d="M80.5412 133.316L80.471 133.275L33.1113 105.979L79.9521 79.2388L80.0223 79.2804L127.733 106.77L127.508 106.894L80.5552 133.302L80.5412 133.316ZM33.7003 105.993L80.5412 132.983L127.13 106.783L79.9381 79.5992L33.7003 105.993Z" fill="#3A3A3A"/>
<path d="M33.3914 121.311L80.5407 148.467V133.149L33.3914 105.993V121.311Z" fill="#D3D3FF"/>
<path d="M80.6812 148.731L80.4568 148.606L33.2373 121.408V105.744L33.4617 105.868L80.6812 133.067V148.731ZM33.5458 121.228L80.3866 148.218V133.233L33.5458 106.243V121.228Z" fill="#3A3A3A"/>
<path d="M80.5405 148.537L127.648 121.976V106.589L80.5405 133.15V148.537Z" fill="#A5A6F6"/>
<path d="M80.3867 148.786V133.052L80.4568 133.011L127.789 106.326V122.06L127.718 122.101L80.3867 148.786ZM80.6812 133.233V148.287L127.494 121.893V106.839L80.6812 133.233Z" fill="#3A3A3A"/>
<path d="M83.3459 143.768L108 129.864V120.854L83.3459 134.758V143.768Z" fill="#F3F3FD"/>
<path d="M83.1919 144.018V134.674L83.262 134.633L108.141 120.604V129.947L108.071 129.989L83.1919 144.018ZM83.4864 134.841V143.505L107.846 129.767V121.089L83.4864 134.827V134.841Z" fill="#3A3A3A"/>
<path d="M107.145 129.033L83.3459 142.438V143.768L108 129.864V120.854L107.145 121.339V129.033Z" fill="#3A3A3A"/>
<path d="M84.9165 136.588L86.2628 135.825V134.481L84.9165 135.243V136.588Z" fill="#3A3A3A"/>
<path d="M84.9165 138.528L86.2628 137.78V136.435L84.9165 137.197V138.528Z" fill="#ADADFA"/>
<path d="M84.9165 140.483L86.2628 139.734V138.389L84.9165 139.152V140.483Z" fill="#3A3A3A"/>
<path d="M86.8237 135.52L88.1701 134.757V133.413L86.8237 134.175V135.52Z" fill="#3A3A3A"/>
<path d="M86.8237 137.475L88.1701 136.712V135.368L86.8237 136.13V137.475Z" fill="#3A3A3A"/>
<path d="M86.8237 139.429L88.1701 138.667V137.322L86.8237 138.084V139.429Z" fill="#ADADFA"/>
<path d="M88.7451 134.453L90.0774 133.704V132.359L88.7451 133.108V134.453Z" fill="#ADADFA"/>
<path d="M88.7451 136.407L90.0774 135.645V134.314L88.7451 135.063V136.407Z" fill="#3A3A3A"/>
<path d="M88.7451 138.362L90.0774 137.599V136.255L88.7451 137.017V138.362Z" fill="#3A3A3A"/>
<path d="M90.6523 133.399L91.9987 132.637V131.292L90.6523 132.054V133.399Z" fill="#ADADFA"/>
<path d="M90.6523 135.34L91.9987 134.591V133.247L90.6523 134.009V135.34Z" fill="#3A3A3A"/>
<path d="M90.6523 137.295L91.9987 136.546V135.201L90.6523 135.964V137.295Z" fill="#ADADFA"/>
<path d="M92.5176 132.346L93.8639 131.583V130.239L92.5176 131.001V132.346Z" fill="#3A3A3A"/>
<path d="M92.5176 136.255L93.8639 135.492V134.147L92.5176 134.91V136.255Z" fill="#3A3A3A"/>
<path d="M94.4248 133.233L95.7711 132.47V131.126L94.4248 131.888V133.233Z" fill="#3A3A3A"/>
<path d="M94.4248 135.188L95.7711 134.425V133.081L94.4248 133.843V135.188Z" fill="#ADADFA"/>
<path d="M96.3459 130.211L97.6923 129.462V128.118L96.3459 128.88V130.211Z" fill="#ADADFA"/>
<path d="M96.3459 134.12L97.6923 133.372V132.027L96.3459 132.775V134.12Z" fill="#3A3A3A"/>
<path d="M98.2534 131.112L99.5997 130.349V129.005L98.2534 129.767V131.112Z" fill="#3A3A3A"/>
<path d="M36.1821 119.481L54.1752 129.628V120.618L36.1821 110.47V119.481Z" fill="#3A3A3A"/>
<path d="M38.1599 120.604L39.5203 121.367V112.356L38.1599 111.594V120.604Z" fill="#5D5FEF"/>
<path d="M39.6741 121.616L38.0193 120.673V111.33L39.6741 112.273V121.616ZM38.3138 120.507L39.3796 121.103V112.425L38.3138 111.829V120.507Z" fill="#3A3A3A"/>
<path d="M38.1599 120.604L39.5203 121.367V118.816L38.1599 118.04V120.604Z" fill="#ADADFA"/>
<path d="M38.1599 115.392L39.5203 116.168V112.356L38.1599 111.594V115.392Z" fill="#ADADFA"/>
<path d="M40.4031 121.866L41.7774 122.628V113.617L40.4031 112.855V121.866Z" fill="#5D5FEF"/>
<path d="M41.9183 122.877L40.2634 121.935V112.591L41.9183 113.534V122.877ZM40.5579 121.768L41.6238 122.364V113.686L40.5579 113.09V121.768Z" fill="#3A3A3A"/>
<path d="M40.4031 115.406L41.7774 116.182V113.617L40.4031 112.855V115.406Z" fill="#ADADFA"/>
<path d="M40.4031 121.866L41.7774 122.628V118.816L40.4031 118.053V121.866Z" fill="#ADADFA"/>
<path d="M42.6333 123.113L44.0077 123.876V114.865L42.6333 114.103V123.113Z" fill="#5D5FEF"/>
<path d="M44.1483 124.125L42.4934 123.183V113.839L44.1483 114.768V124.111V124.125ZM42.7879 123.016L43.8538 123.612V114.934L42.7879 114.338V123.002V123.016Z" fill="#3A3A3A"/>
<path d="M42.6333 123.113L44.0077 123.876V121.325L42.6333 120.549V123.113Z" fill="#ADADFA"/>
<path d="M42.6333 117.901L44.0077 118.677V114.865L42.6333 114.103V117.901Z" fill="#ADADFA"/>
<path d="M44.8911 124.375L46.2515 125.137V116.126L44.8911 115.364V124.375Z" fill="#5D5FEF"/>
<path d="M46.4061 125.4L44.7512 124.458V115.115L46.4061 116.043V125.387V125.4ZM45.0457 124.291L46.1116 124.888V116.21L45.0457 115.614V124.291Z" fill="#3A3A3A"/>
<path d="M44.8911 117.915L46.2515 118.691V116.126L44.8911 115.364V117.915Z" fill="#ADADFA"/>
<path d="M44.8911 124.374L46.2515 125.137V121.339L44.8911 120.562V124.374Z" fill="#ADADFA"/>
<path d="M47.1213 125.622L48.4817 126.385V117.374L47.1213 116.612V125.622Z" fill="#5D5FEF"/>
<path d="M48.6358 126.634L46.981 125.692V116.348L48.6358 117.291V126.634ZM47.2755 125.525L48.3413 126.121V117.444L47.2755 116.847V125.525Z" fill="#3A3A3A"/>
<path d="M47.1213 125.622L48.4817 126.385V123.834L47.1213 123.058V125.622Z" fill="#ADADFA"/>
<path d="M47.1213 120.41L48.4817 121.186V117.374L47.1213 116.612V120.41Z" fill="#ADADFA"/>
<path d="M49.365 126.884L50.7253 127.646V118.636L49.365 117.873V126.884Z" fill="#5D5FEF"/>
<path d="M50.8795 127.896L49.2246 126.967V117.624L50.8795 118.553V127.896ZM49.5191 126.787L50.585 127.383V118.705L49.5191 118.109V126.773V126.787Z" fill="#3A3A3A"/>
<path d="M49.365 120.424L50.7253 121.2V118.636L49.365 117.873V120.424Z" fill="#ADADFA"/>
<path d="M49.365 126.884L50.7253 127.646V123.848L49.365 123.072V126.884Z" fill="#ADADFA"/>
<path d="M51.5952 128.131L52.9556 128.894V119.883L51.5952 119.121V128.131Z" fill="#5D5FEF"/>
<path d="M53.1094 129.143L51.4546 128.215V118.871L53.1094 119.814V129.157V129.143ZM51.7491 128.034L52.8149 128.63V119.966L51.7491 119.37V128.048V128.034Z" fill="#3A3A3A"/>
<path d="M51.5952 128.131L52.9556 128.894V126.343L51.5952 125.567V128.131Z" fill="#ADADFA"/>
<path d="M51.5952 122.919L52.9556 123.695V119.883L51.5952 119.121V122.919Z" fill="#ADADFA"/>
<path d="M37.0376 110.956L36.1821 110.47V119.481L54.1752 129.628V128.298L37.0376 118.635V110.956Z" fill="#5D5FEF"/>
<path d="M54.3298 129.878L36.0422 119.564V110.221L37.1922 110.873V118.553L54.3298 128.215V129.878ZM36.3367 119.398L54.0353 129.379V128.395L36.8977 118.733V111.053L36.3367 110.734V119.412V119.398Z" fill="#3A3A3A"/>
<path d="M33.3914 87.6534L80.5407 114.824L127.424 88.4436L79.9377 61.093L33.3914 87.6534Z" fill="#5D5FEF"/>
<path d="M80.5412 114.99L80.471 114.948L33.1113 87.6532L79.9521 60.9126L80.0223 60.9542L127.733 88.4434L127.508 88.5681L80.5552 114.976L80.5412 114.99ZM33.7003 87.6671L80.5412 114.657L127.13 88.4572L79.9381 61.273L33.7003 87.6671Z" fill="#3A3A3A"/>
<path d="M33.3914 102.985L80.5407 130.142V114.824L33.3914 87.6533V102.985Z" fill="#D3D3FF"/>
<path d="M80.6812 130.391L80.4568 130.266L33.2373 103.068V87.4038L33.4617 87.5286L80.6812 114.727V130.391ZM33.5458 102.888L80.3866 129.878V114.893L33.5458 87.9029V102.888Z" fill="#3A3A3A"/>
<path d="M80.5405 130.211L127.648 103.651V88.2495L80.5405 114.824V130.211Z" fill="#A5A6F6"/>
<path d="M80.3867 130.46V114.726L80.4568 114.685L127.789 87.9995V103.733L127.718 103.775L80.3867 130.46ZM80.6812 114.906V129.961L127.494 103.567V88.5124L80.6812 114.906Z" fill="#3A3A3A"/>
<path d="M83.3459 125.429L108 111.538V102.528L83.3459 116.432V125.429Z" fill="#F3F3FD"/>
<path d="M83.1919 125.691V116.348L83.262 116.307L108.141 102.278V111.621L108.071 111.663L83.1919 125.691ZM83.4864 116.515V125.179L107.846 111.455V102.777L83.4864 116.515Z" fill="#3A3A3A"/>
<path d="M107.145 110.693L83.3459 124.112V125.429L108 111.538V102.528L107.145 103.013V110.693Z" fill="#3A3A3A"/>
<path d="M84.9165 118.095L86.2628 117.332V115.988L84.9165 116.75V118.095Z" fill="#3A3A3A"/>
<path d="M84.9165 120.05L86.2628 119.287V117.943L84.9165 118.705V120.05Z" fill="#ADADFA"/>
<path d="M84.9165 122.004L86.2628 121.242V119.897L84.9165 120.659V122.004Z" fill="#3A3A3A"/>
<path d="M86.8237 117.028L88.1701 116.279V114.935L86.8237 115.683V117.028Z" fill="#3A3A3A"/>
<path d="M86.8237 118.982L88.1701 118.234V116.889L86.8237 117.638V118.982Z" fill="#3A3A3A"/>
<path d="M86.8237 120.937L88.1701 120.188V118.844L86.8237 119.592V120.937Z" fill="#ADADFA"/>
<path d="M88.7451 115.974L90.0774 115.212V113.867L88.7451 114.63V115.974Z" fill="#ADADFA"/>
<path d="M88.7451 117.929L90.0774 117.167V115.822L88.7451 116.584V117.929Z" fill="#3A3A3A"/>
<path d="M88.7451 119.883L90.0774 119.121V117.776L88.7451 118.539V119.883Z" fill="#3A3A3A"/>
<path d="M90.6523 114.907L91.9987 114.144V112.813L90.6523 113.562V114.907Z" fill="#ADADFA"/>
<path d="M90.6523 116.861L91.9987 116.099V114.754L90.6523 115.517V116.861Z" fill="#3A3A3A"/>
<path d="M90.6523 118.816L91.9987 118.054V116.709L90.6523 117.471V118.816Z" fill="#ADADFA"/>
<path d="M92.5176 113.853L93.8639 113.105V111.76L92.5176 112.509V113.853Z" fill="#3A3A3A"/>
<path d="M92.5176 117.762L93.8639 117V115.669L92.5176 116.418V117.762Z" fill="#3A3A3A"/>
<path d="M94.4248 114.741L95.7711 113.992V112.647L94.4248 113.41V114.741Z" fill="#3A3A3A"/>
<path d="M94.4248 116.695L95.7711 115.947V114.602L94.4248 115.364V116.695Z" fill="#ADADFA"/>
<path d="M96.3459 111.732L97.6923 110.97V109.625L96.3459 110.388V111.732Z" fill="#ADADFA"/>
<path d="M96.3459 115.642L97.6923 114.879V113.534L96.3459 114.297V115.642Z" fill="#3A3A3A"/>
<path d="M98.2534 112.62L99.5997 111.871V110.526L98.2534 111.275V112.62Z" fill="#3A3A3A"/>
<path d="M36.1821 101.959L54.1752 112.107V103.096L36.1821 92.9487V101.959Z" fill="#3A3A3A"/>
<path d="M38.1599 103.082L39.5203 103.844V94.8337L38.1599 94.0713V103.082Z" fill="#5D5FEF"/>
<path d="M39.6741 104.094L38.0193 103.151V93.8079L39.6741 94.7505V104.094ZM38.3138 102.985L39.3796 103.581V94.903L38.3138 94.3069V102.985Z" fill="#3A3A3A"/>
<path d="M38.1599 103.082L39.5203 103.844V101.293L38.1599 100.517V103.082Z" fill="#ADADFA"/>
<path d="M38.1599 97.8696L39.5203 98.6459V94.8337L38.1599 94.0713V97.8696Z" fill="#ADADFA"/>
<path d="M40.4031 104.344L41.7774 105.106V96.0954L40.4031 95.333V104.344Z" fill="#5D5FEF"/>
<path d="M41.9183 105.356L40.2634 104.413V95.0698L41.9183 96.0125V105.356ZM40.5579 104.247L41.6238 104.843V96.165L40.5579 95.5689V104.247Z" fill="#3A3A3A"/>
<path d="M40.4031 97.8837L41.7774 98.66V96.0954L40.4031 95.333V97.8837Z" fill="#ADADFA"/>
<path d="M40.4031 104.344L41.7774 105.106V101.308L40.4031 100.532V104.344Z" fill="#ADADFA"/>
<path d="M42.6333 105.591L44.0077 106.354V97.343L42.6333 96.5806V105.591Z" fill="#5D5FEF"/>
<path d="M44.1483 106.603L42.4934 105.675V96.3313L44.1483 97.2739V106.617V106.603ZM42.7879 105.494L43.8538 106.09V97.4126L42.7879 96.8165V105.494Z" fill="#3A3A3A"/>
<path d="M42.6333 105.591L44.0077 106.354V103.803L42.6333 103.027V105.591Z" fill="#ADADFA"/>
<path d="M42.6333 100.379L44.0077 101.155V97.343L42.6333 96.5806V100.379Z" fill="#ADADFA"/>
<path d="M44.8911 106.853L46.2515 107.615V98.6047L44.8911 97.8423V106.853Z" fill="#5D5FEF"/>
<path d="M46.4061 107.865L44.7512 106.936V97.5925L46.4061 98.5352V107.878V107.865ZM45.0457 106.756L46.1116 107.352V98.6877L45.0457 98.0916V106.769V106.756Z" fill="#3A3A3A"/>
<path d="M44.8911 100.393L46.2515 101.169V98.6047L44.8911 97.8423V100.393Z" fill="#ADADFA"/>
<path d="M44.8911 106.853L46.2515 107.615V103.817L44.8911 103.041V106.853Z" fill="#ADADFA"/>
<path d="M47.1213 108.1L48.4817 108.863V99.8523L47.1213 99.0898V108.1Z" fill="#5D5FEF"/>
<path d="M48.6358 109.112L46.981 108.183V98.8401L48.6358 99.7827V109.126V109.112ZM47.2755 108.003L48.3413 108.599V99.9214L47.2755 99.3253V108.003Z" fill="#3A3A3A"/>
<path d="M47.1213 108.1L48.4817 108.863V106.312L47.1213 105.536V108.1Z" fill="#ADADFA"/>
<path d="M47.1213 102.888L48.4817 103.664V99.8523L47.1213 99.0898V102.888Z" fill="#ADADFA"/>
<path d="M49.365 109.362L50.7253 110.125V101.114L49.365 100.352V109.362Z" fill="#5D5FEF"/>
<path d="M50.8795 110.388L49.2246 109.445V100.102L50.8795 101.031V110.374V110.388ZM49.5191 109.279L50.585 109.875V101.197L49.5191 100.601V109.265V109.279Z" fill="#3A3A3A"/>
<path d="M49.365 102.902L50.7253 103.679V101.114L49.365 100.352V102.902Z" fill="#ADADFA"/>
<path d="M49.365 109.362L50.7253 110.124V106.326L49.365 105.55V109.362Z" fill="#ADADFA"/>
<path d="M51.5952 110.609L52.9556 111.372V102.361L51.5952 101.599V110.609Z" fill="#5D5FEF"/>
<path d="M53.1094 111.621L51.4546 110.679V101.335L53.1094 102.264V111.608V111.621ZM51.7491 110.512L52.8149 111.108V102.431L51.7491 101.834V110.512Z" fill="#3A3A3A"/>
<path d="M51.5952 110.609L52.9556 111.372V108.821L51.5952 108.045V110.609Z" fill="#ADADFA"/>
<path d="M51.5952 105.397L52.9556 106.173V102.361L51.5952 101.599V105.397Z" fill="#ADADFA"/>
<path d="M37.0376 93.4339L36.1821 92.9487V101.959L54.1752 112.107V110.776L37.0376 101.114V93.4339Z" fill="#5D5FEF"/>
<path d="M54.3298 112.356L36.0422 102.042V92.699L37.1922 93.3505V101.03L54.3298 110.692V112.356ZM36.3367 101.876L54.0353 111.857V110.873L36.8977 101.211V93.5307L36.3367 93.2119V101.89V101.876Z" fill="#3A3A3A"/>
<path d="M33.3914 69.3267L80.5407 96.4832L127.424 70.1169L79.9377 42.7524L33.3914 69.3267Z" fill="#5D5FEF"/>
<path d="M80.5412 96.6499L80.471 96.6083L33.1113 69.3131L79.9521 42.5725L80.0223 42.6141L127.733 70.1033L127.508 70.2281L80.5552 96.636L80.5412 96.6499ZM33.7003 69.327L80.5412 96.3172L127.13 70.1172L79.9381 42.9329L33.7003 69.327Z" fill="#3A3A3A"/>
<path d="M33.3914 84.6451L80.5407 111.816V96.4837L33.3914 69.3271V84.6451Z" fill="#D3D3FF"/>
<path d="M80.6812 112.065L80.4568 111.94L33.2373 84.7422V69.0776L33.4617 69.2024L80.6812 96.4005V112.065ZM33.5458 84.562L80.3866 111.552V96.5668L33.5458 69.5767V84.562Z" fill="#3A3A3A"/>
<path d="M80.5405 111.871L127.648 85.3102V69.9229L80.5405 96.4833V111.871Z" fill="#A5A6F6"/>
<path d="M80.3867 112.12V96.3862L80.4568 96.3446L127.789 69.6594V85.3933L127.718 85.4349L80.3867 112.12ZM80.6812 96.5664V111.621L127.494 85.2269V70.1723L80.6812 96.5664Z" fill="#3A3A3A"/>
<path d="M83.3459 107.102L108 93.1979V84.2012L83.3459 98.0913V107.102Z" fill="#F3F3FD"/>
<path d="M83.1919 107.352V98.0084L83.262 97.9668L108.141 83.938V93.2813L108.071 93.3229L83.1919 107.352ZM83.4864 98.1747V106.839L107.846 93.1011V84.4232L83.4864 98.1608V98.1747Z" fill="#3A3A3A"/>
<path d="M107.145 92.3661L83.3459 105.771V107.102L108 93.1979V84.2012L107.145 84.6725V92.3661Z" fill="#3A3A3A"/>
<path d="M84.9165 99.7687L86.2628 99.0063V97.6616L84.9165 98.4241V99.7687Z" fill="#3A3A3A"/>
<path d="M84.9165 101.723L86.2628 100.961V99.6162L84.9165 100.379V101.723Z" fill="#ADADFA"/>
<path d="M84.9165 103.664L86.2628 102.915V101.571L84.9165 102.333V103.664Z" fill="#3A3A3A"/>
<path d="M86.8237 98.7013L88.1701 97.9389V96.5942L86.8237 97.3567V98.7013Z" fill="#3A3A3A"/>
<path d="M86.8237 100.656L88.1701 99.8935V98.5488L86.8237 99.3113V100.656Z" fill="#3A3A3A"/>
<path d="M86.8237 102.611L88.1701 101.848V100.503L86.8237 101.266V102.611Z" fill="#ADADFA"/>
<path d="M88.7451 97.6338L90.0774 96.8852V95.5405L88.7451 96.2891V97.6338Z" fill="#ADADFA"/>
<path d="M88.7451 99.5886L90.0774 98.8262V97.4954L88.7451 98.2439V99.5886Z" fill="#3A3A3A"/>
<path d="M88.7451 101.543L90.0774 100.78V99.4497L88.7451 100.198V101.543Z" fill="#3A3A3A"/>
<path d="M90.6523 96.5802L91.9987 95.8178V94.4731L90.6523 95.2356V96.5802Z" fill="#ADADFA"/>
<path d="M90.6523 98.5351L91.9987 97.7726V96.428L90.6523 97.1904V98.5351Z" fill="#3A3A3A"/>
<path d="M90.6523 100.476L91.9987 99.7272V98.3826L90.6523 99.145V100.476Z" fill="#ADADFA"/>
<path d="M92.5176 95.527L93.8639 94.7646V93.4199L92.5176 94.1824V95.527Z" fill="#3A3A3A"/>
<path d="M92.5176 99.4359L93.8639 98.6735V97.3289L92.5176 98.0913V99.4359Z" fill="#3A3A3A"/>
<path d="M94.4248 96.414L95.7711 95.6516V94.3208L94.4248 95.0694V96.414Z" fill="#3A3A3A"/>
<path d="M94.4248 98.3688L95.7711 97.6064V96.2617L94.4248 97.0242V98.3688Z" fill="#ADADFA"/>
<path d="M96.3459 93.4059L97.6923 92.6435V91.2988L96.3459 92.0613V93.4059Z" fill="#ADADFA"/>
<path d="M96.3459 97.3012L97.6923 96.5527V95.208L96.3459 95.9566V97.3012Z" fill="#3A3A3A"/>
<path d="M98.2534 94.2931L99.5997 93.5307V92.186L98.2534 92.9485V94.2931Z" fill="#3A3A3A"/>
<path d="M36.1821 83.453L54.1752 93.6003V84.5897L36.1821 74.4424V83.453Z" fill="#3A3A3A"/>
<path d="M38.1599 84.5619L39.5203 85.3381V76.3276L38.1599 75.5513V84.5619Z" fill="#5D5FEF"/>
<path d="M39.6741 85.5875L38.0193 84.6587V75.3154L39.6741 76.2581V85.6014V85.5875ZM38.3138 84.4785L39.3796 85.0746V76.3967L38.3138 75.8006V84.4785Z" fill="#3A3A3A"/>
<path d="M38.1599 84.5619L39.5203 85.3382V82.7737L38.1599 82.0112V84.5619Z" fill="#ADADFA"/>
<path d="M38.1599 79.3634L39.5203 80.1397V76.3276L38.1599 75.5513V79.3634Z" fill="#ADADFA"/>
<path d="M40.4031 85.8372L41.7774 86.5997V77.5891L40.4031 76.8267V85.8372Z" fill="#5D5FEF"/>
<path d="M41.9183 86.8492L40.2634 85.9204V76.5771L41.9183 77.5059V86.8492ZM40.5579 85.7402L41.6238 86.3363V77.6584L40.5579 77.0623V85.7402Z" fill="#3A3A3A"/>
<path d="M40.4031 79.3773L41.7774 80.1398V77.5891L40.4031 76.8267V79.3773Z" fill="#ADADFA"/>
<path d="M40.4031 85.8371L41.7774 86.5995V82.7873L40.4031 82.0249V85.8371Z" fill="#ADADFA"/>
<path d="M42.6333 87.0709L44.0077 87.8472V78.8366L42.6333 78.0603V87.0709Z" fill="#5D5FEF"/>
<path d="M44.1483 88.097L42.4934 87.1543V77.811L44.1483 78.7398V88.0831V88.097ZM42.7879 86.988L43.8538 87.584V78.9062L42.7879 78.3101V86.988Z" fill="#3A3A3A"/>
<path d="M42.6333 87.071L44.0077 87.8472V85.2827L42.6333 84.5203V87.071Z" fill="#ADADFA"/>
<path d="M42.6333 81.8725L44.0077 82.6488V78.8366L42.6333 78.0603V81.8725Z" fill="#ADADFA"/>
<path d="M44.8911 88.3322L46.2515 89.1085V80.0979L44.8911 79.3354V88.3322Z" fill="#5D5FEF"/>
<path d="M46.4061 89.3582L44.7512 88.4155V79.0723L46.4061 80.0149V89.3582ZM45.0457 88.2492L46.1116 88.8453V80.1674L45.0457 79.5713V88.2492Z" fill="#3A3A3A"/>
<path d="M44.8911 81.8861L46.2515 82.6486V80.0979L44.8911 79.3354V81.8861Z" fill="#ADADFA"/>
<path d="M44.8911 88.3325L46.2515 89.1088V85.2966L44.8911 84.5342V88.3325Z" fill="#ADADFA"/>
<path d="M47.1213 89.5802L48.4817 90.3565V81.3459L47.1213 80.5696V89.5802Z" fill="#5D5FEF"/>
<path d="M48.6358 90.6057L46.981 89.6631V80.3198L48.6358 81.2486V90.5919V90.6057ZM47.2755 89.4968L48.3413 90.0928V81.415L47.2755 80.8189V89.4968Z" fill="#3A3A3A"/>
<path d="M47.1213 89.58L48.4817 90.3563V87.8056L47.1213 87.0293V89.58Z" fill="#ADADFA"/>
<path d="M47.1213 84.3817L48.4817 85.158V81.3459L47.1213 80.5696V84.3817Z" fill="#ADADFA"/>
<path d="M49.365 90.8553L50.7253 91.6177V82.6072L49.365 81.8447V90.8553Z" fill="#5D5FEF"/>
<path d="M50.8795 91.8673L49.2246 90.9385V81.5952L50.8795 82.524V91.8673ZM49.5191 90.7583L50.585 91.3544V82.6765L49.5191 82.0804V90.7583Z" fill="#3A3A3A"/>
<path d="M49.365 84.3954L50.7253 85.1578V82.6072L49.365 81.8447V84.3954Z" fill="#ADADFA"/>
<path d="M49.365 90.8554L50.7253 91.6178V87.8056L49.365 87.0432V90.8554Z" fill="#ADADFA"/>
<path d="M51.5952 92.0892L52.9556 92.8655V83.8549L51.5952 83.0786V92.0892Z" fill="#5D5FEF"/>
<path d="M53.1094 93.115L51.4546 92.1724V82.8291L53.1094 83.7717V93.115ZM51.7491 92.006L52.8149 92.6021V83.9242L51.7491 83.3281V92.006Z" fill="#3A3A3A"/>
<path d="M51.5952 92.0893L52.9556 92.8656V90.3149L51.5952 89.5386V92.0893Z" fill="#ADADFA"/>
<path d="M51.5952 86.8908L52.9556 87.6671V83.8549L51.5952 83.0786V86.8908Z" fill="#ADADFA"/>
<path d="M37.0376 74.9276L36.1821 74.4424V83.453L54.1752 93.6003V92.2695L37.0376 82.6074V74.9276Z" fill="#5D5FEF"/>
<path d="M54.3298 93.8496L36.0422 83.5359V74.1926L37.1922 74.8442V82.524L54.3298 92.1861V93.8496ZM36.3367 83.3696L54.0353 93.3505V92.3663L36.8977 82.7042V75.0244L36.3367 74.7055V83.3834V83.3696Z" fill="#3A3A3A"/>
<path d="M33.3914 50.9869L80.5407 78.1573L127.424 51.791L79.9377 24.4265L33.3914 50.9869Z" fill="#5D5FEF"/>
<path d="M80.5412 78.3237L80.471 78.2821L33.1113 50.987L79.9521 24.2463L80.0223 24.2879L127.733 51.7771L127.508 51.9019L80.5552 78.3098L80.5412 78.3237ZM33.7003 50.987L80.5412 77.9771L127.13 51.7771L79.9381 24.5929L33.7003 50.987Z" fill="#3A3A3A"/>
<path d="M33.3914 66.3187L80.5407 93.4752V78.1572L33.3914 50.9868V66.3187Z" fill="#D3D3FF"/>
<path d="M80.6812 93.7386L80.4568 93.6139L33.2373 66.4158V50.7512L33.4617 50.876L80.6812 78.0741V93.7386ZM33.5458 66.2356L80.3866 93.2257V78.2404L33.5458 51.2503V66.2356Z" fill="#3A3A3A"/>
<path d="M80.5405 93.5448L127.648 66.9844V51.5833L80.5405 78.1575V93.5448Z" fill="#A5A6F6"/>
<path d="M80.3867 93.7944V78.0605L80.4568 78.0189L127.789 51.3337V67.0676L127.718 67.1092L80.3867 93.7944ZM80.6812 78.2407V93.2953L127.494 66.9012V51.8466L80.6812 78.2407Z" fill="#3A3A3A"/>
<path d="M83.3459 88.7762L108 74.8722V65.8616L83.3459 79.7656V88.7762Z" fill="#F3F3FD"/>
<path d="M83.1919 89.0259V79.6827L83.262 79.6411L108.141 65.6123V74.9556L108.071 74.9972L83.1919 89.0259ZM83.4864 79.849V88.513L107.846 74.7754V66.1114L83.4864 79.849Z" fill="#3A3A3A"/>
<path d="M107.145 74.0265L83.3459 87.4454V88.7762L108 74.8722V65.8616L107.145 66.3468V74.0265Z" fill="#3A3A3A"/>
<path d="M36.1821 65.1961L54.1752 75.3434V66.3328L36.1821 56.1855V65.1961Z" fill="#3A3A3A"/>
<path d="M38.1599 66.3187L39.5203 67.0811V58.0705L38.1599 57.3081V66.3187Z" fill="#5D5FEF"/>
<path d="M39.6741 67.3445L38.0193 66.4019V57.0586L39.6741 57.9874V67.3307V67.3445ZM38.3138 66.2355L39.3796 66.8316V58.1537L38.3138 57.5576V66.2355Z" fill="#3A3A3A"/>
<path d="M38.1599 66.3187L39.5203 67.0812V64.5305L38.1599 63.7681V66.3187Z" fill="#ADADFA"/>
<path d="M38.1599 61.1203L39.5203 61.8827V58.0705L38.1599 57.3081V61.1203Z" fill="#ADADFA"/>
<path d="M40.4031 67.5804L41.7774 68.3428V59.3323L40.4031 58.5698V67.5804Z" fill="#5D5FEF"/>
<path d="M41.9183 68.606L40.2634 67.6633V58.3201L41.9183 59.2488V68.5921V68.606ZM40.5579 67.497L41.6238 68.0931V59.4152L40.5579 58.8191V67.4831V67.497Z" fill="#3A3A3A"/>
<path d="M40.4031 61.1205L41.7774 61.8968V59.3323L40.4031 58.5698V61.1205Z" fill="#ADADFA"/>
<path d="M40.4031 67.5802L41.7774 68.3427V64.5444L40.4031 63.7681V67.5802Z" fill="#ADADFA"/>
<path d="M42.6333 68.8275L44.0077 69.5899V60.5793L42.6333 59.8169V68.8275Z" fill="#5D5FEF"/>
<path d="M44.1483 69.8399L42.4934 68.9112V59.5679L44.1483 60.5105V69.8538V69.8399ZM42.7879 68.7309L43.8538 69.327V60.6491L42.7879 60.0531V68.7309Z" fill="#3A3A3A"/>
<path d="M42.6333 68.8282L44.0077 69.5907V67.04L42.6333 66.2637V68.8282Z" fill="#ADADFA"/>
<path d="M42.6333 63.6291L44.0077 64.3915V60.5793L42.6333 59.8169V63.6291Z" fill="#ADADFA"/>
<path d="M44.8911 70.0892L46.2515 70.8516V61.8549L44.8911 61.0786V70.0892Z" fill="#5D5FEF"/>
<path d="M46.4061 71.1153L44.7512 70.1865V60.8433L46.4061 61.7859V71.1292V71.1153ZM45.0457 70.0063L46.1116 70.6024V61.9245L45.0457 61.3284V70.0063Z" fill="#3A3A3A"/>
<path d="M44.8911 63.6293L46.2515 64.4056V61.8549L44.8911 61.0786V63.6293Z" fill="#ADADFA"/>
<path d="M44.8911 70.0893L46.2515 70.8517V67.0534L44.8911 66.2771V70.0893Z" fill="#ADADFA"/>
<path d="M47.1213 71.3375L48.4817 72.0999V63.0893L47.1213 62.3269V71.3375Z" fill="#5D5FEF"/>
<path d="M48.6358 72.3628L46.981 71.4202V62.0769L48.6358 63.0196V72.3628ZM47.2755 71.2538L48.3413 71.8499V63.172L47.2755 62.576V71.2538Z" fill="#3A3A3A"/>
<path d="M47.1213 71.3373L48.4817 72.0997V69.5491L47.1213 68.7866V71.3373Z" fill="#ADADFA"/>
<path d="M47.1213 66.1391L48.4817 66.9015V63.0893L47.1213 62.3269V66.1391Z" fill="#ADADFA"/>
<path d="M49.365 72.5985L50.7253 73.3609V64.3503L49.365 63.5879V72.5985Z" fill="#5D5FEF"/>
<path d="M50.8795 73.6243L49.2246 72.6817V63.3384L50.8795 64.2672V73.6104V73.6243ZM49.5191 72.5153L50.585 73.1114V64.4335L49.5191 63.8374V72.5014V72.5153Z" fill="#3A3A3A"/>
<path d="M49.365 66.1386L50.7253 66.9149V64.3503L49.365 63.5879V66.1386Z" fill="#ADADFA"/>
<path d="M49.365 72.5988L50.7253 73.3612V69.5629L49.365 68.7866V72.5988Z" fill="#ADADFA"/>
<path d="M51.5952 73.8465L52.9556 74.609V65.5984L51.5952 64.8359V73.8465Z" fill="#5D5FEF"/>
<path d="M53.1094 74.858L51.4546 73.9292V64.5859L53.1094 65.5286V74.8719V74.858ZM51.7491 73.749L52.8149 74.3451V65.6811L51.7491 65.085V73.7629V73.749Z" fill="#3A3A3A"/>
<path d="M51.5952 73.8463L52.9556 74.6087V72.058L51.5952 71.2817V73.8463Z" fill="#ADADFA"/>
<path d="M51.5952 68.6481L52.9556 69.4105V65.5984L51.5952 64.8359V68.6481Z" fill="#ADADFA"/>
<path d="M37.0376 56.6707L36.1821 56.1855V65.1961L54.1752 75.3434V74.0126L37.0376 64.3505V56.6707Z" fill="#5D5FEF"/>
<path d="M54.3298 75.593L36.0422 65.2793V55.936L37.1922 56.5876V64.2674L54.3298 73.9295V75.593ZM36.3367 65.113L54.0353 75.0939V74.1097L36.8977 64.4476V56.7678L36.3367 56.4489V65.1268V65.113Z" fill="#3A3A3A"/>
<path d="M84.9165 81.4289L86.2628 80.6665V79.3357L84.9165 80.0843V81.4289Z" fill="#3A3A3A"/>
<path d="M84.9165 83.3835L86.2628 82.6211V81.2903L84.9165 82.0389V83.3835Z" fill="#ADADFA"/>
<path d="M84.9165 85.3381L86.2628 84.5757V83.2449L84.9165 83.9934V85.3381Z" fill="#3A3A3A"/>
<path d="M86.8237 80.3618L88.1701 79.6132V78.2686L86.8237 79.031V80.3618Z" fill="#3A3A3A"/>
<path d="M86.8237 82.3164L88.1701 81.5678V80.2231L86.8237 80.9856V82.3164Z" fill="#3A3A3A"/>
<path d="M86.8237 84.2707L88.1701 83.5221V82.1775L86.8237 82.9261V84.2707Z" fill="#ADADFA"/>
<path d="M88.7451 79.3078L90.0774 78.5453V77.2007L88.7451 77.9631V79.3078Z" fill="#ADADFA"/>
<path d="M88.7451 81.2629L90.0774 80.5004V79.1558L88.7451 79.9182V81.2629Z" fill="#3A3A3A"/>
<path d="M88.7451 83.2172L90.0774 82.4548V81.1101L88.7451 81.8725V83.2172Z" fill="#3A3A3A"/>
<path d="M90.6523 78.2407L91.9987 77.4783V76.1475L90.6523 76.896V78.2407Z" fill="#ADADFA"/>
<path d="M90.6523 80.1953L91.9987 79.4328V78.1021L90.6523 78.8506V80.1953Z" fill="#3A3A3A"/>
<path d="M90.6523 82.1498L91.9987 81.3874V80.0427L90.6523 80.8052V82.1498Z" fill="#ADADFA"/>
<path d="M92.5176 77.187L93.8639 76.4384V75.0938L92.5176 75.8423V77.187Z" fill="#3A3A3A"/>
<path d="M92.5176 81.0959L93.8639 80.3473V79.0027L92.5176 79.7513V81.0959Z" fill="#3A3A3A"/>
<path d="M94.4248 78.088L95.7711 77.3256V75.981L94.4248 76.7434V78.088Z" fill="#3A3A3A"/>
<path d="M94.4248 80.0431L95.7711 79.2807V77.936L94.4248 78.6985V80.0431Z" fill="#ADADFA"/>
<path d="M96.3459 75.0663L97.6923 74.3039V72.9592L96.3459 73.7217V75.0663Z" fill="#ADADFA"/>
<path d="M96.3459 78.9753L97.6923 78.2128V76.8682L96.3459 77.6306V78.9753Z" fill="#3A3A3A"/>
<path d="M98.2534 75.9531L99.5997 75.2045V73.8599L98.2534 74.6084V75.9531Z" fill="#3A3A3A"/>
<path d="M33.3914 31.892L80.5407 59.0623L127.424 32.696L79.9377 5.33154L33.3914 31.892Z" fill="#F3F3FD"/>
<path d="M80.5412 59.229L80.471 59.1874L33.1113 31.8922L79.9521 5.15161L80.0223 5.1932L127.733 32.6824L127.508 32.8072L80.5552 59.2151L80.5412 59.229ZM33.7003 31.8922L80.5412 58.8824L127.13 32.6824L79.9381 5.49817L33.7003 31.8922Z" fill="#3A3A3A"/>
<path d="M33.3914 47.2239L80.5407 74.3804V59.0625L33.3914 31.8921V47.2239Z" fill="#D3D3FF"/>
<path d="M80.6812 74.6439L80.4568 74.5191L33.2373 47.321V31.6565L33.4617 31.7813L80.6812 58.9793V74.6439ZM33.5458 47.1408L80.3866 74.131V59.1457L33.5458 32.1555V47.1408Z" fill="#3A3A3A"/>
<path d="M80.5405 74.4499L127.648 47.8894V32.4883L80.5405 59.0626V74.4499Z" fill="#A5A6F6"/>
<path d="M80.3867 74.6994V58.9655L80.4568 58.9239L127.789 32.2388V47.9726L127.718 48.0142L80.3867 74.6994ZM80.6812 59.1457V74.2003L127.494 47.8063V32.7517L80.6812 59.1457Z" fill="#3A3A3A"/>
<path d="M83.3459 69.6812L108 55.7772V46.7666L83.3459 60.6706V69.6812Z" fill="#F3F3FD"/>
<path d="M83.1919 69.9307V60.5875L83.262 60.5459L108.141 46.5171V55.8604L108.071 55.902L83.1919 69.9307ZM83.4864 60.7538V69.4178L107.846 55.6802V47.0161L83.4864 60.7538Z" fill="#3A3A3A"/>
<path d="M107.145 54.9316L83.3459 68.3504V69.6812L108 55.7772V46.7666L107.145 47.2518V54.9316Z" fill="#3A3A3A"/>
<path d="M36.1821 46.1014L54.1752 56.2487V47.2381L36.1821 37.0908V46.1014Z" fill="#3A3A3A"/>
<path d="M38.1599 47.2235L39.5203 47.9859V38.9753L38.1599 38.2129V47.2235Z" fill="#5D5FEF"/>
<path d="M39.6741 48.2498L38.0193 47.3071V37.9639L39.6741 38.8926V48.2359V48.2498ZM38.3138 47.1408L39.3796 47.7369V39.059L38.3138 38.4629V47.1408Z" fill="#3A3A3A"/>
<path d="M38.1599 47.224L39.5203 47.9865V45.4358L38.1599 44.6733V47.224Z" fill="#ADADFA"/>
<path d="M38.1599 42.0251L39.5203 42.7875V38.9753L38.1599 38.2129V42.0251Z" fill="#ADADFA"/>
<path d="M40.4031 48.4857L41.7774 49.2481V40.2375L40.4031 39.4751V48.4857Z" fill="#5D5FEF"/>
<path d="M41.9183 49.511L40.2634 48.5684V39.2251L41.9183 40.1539V49.4972V49.511ZM40.5579 48.402L41.6238 48.9981V40.3202L40.5579 39.7241V48.3882V48.402Z" fill="#3A3A3A"/>
<path d="M40.4031 42.0258L41.7774 42.8021V40.2375L40.4031 39.4751V42.0258Z" fill="#ADADFA"/>
<path d="M40.4031 48.4855L41.7774 49.2479V45.4496L40.4031 44.6733V48.4855Z" fill="#ADADFA"/>
<path d="M42.6333 49.733L44.0077 50.4954V41.4848L42.6333 40.7224V49.733Z" fill="#5D5FEF"/>
<path d="M44.1483 50.7452L42.4934 49.8164V40.4731L44.1483 41.4158V50.7591V50.7452ZM42.7879 49.6362L43.8538 50.2323V41.5544L42.7879 40.9583V49.6362Z" fill="#3A3A3A"/>
<path d="M42.6333 49.7332L44.0077 50.4957V47.945L42.6333 47.1687V49.7332Z" fill="#ADADFA"/>
<path d="M42.6333 44.5346L44.0077 45.297V41.4848L42.6333 40.7224V44.5346Z" fill="#ADADFA"/>
<path d="M44.8911 50.9945L46.2515 51.7569V42.7602L44.8911 41.9839V50.9945Z" fill="#5D5FEF"/>
<path d="M46.4061 52.0204L44.7512 51.0916V41.7483L46.4061 42.6909V52.0342V52.0204ZM45.0457 50.9114L46.1116 51.5074V42.8296L45.0457 42.2335V50.9114Z" fill="#3A3A3A"/>
<path d="M44.8911 44.5346L46.2515 45.3109V42.7602L44.8911 41.9839V44.5346Z" fill="#ADADFA"/>
<path d="M44.8911 50.9945L46.2515 51.757V47.9587L44.8911 47.1824V50.9945Z" fill="#ADADFA"/>
<path d="M47.1213 52.2425L48.4817 53.0049V43.9944L47.1213 43.2319V52.2425Z" fill="#5D5FEF"/>
<path d="M48.6358 53.2679L46.981 52.3252V42.9819L48.6358 43.9246V53.2679ZM47.2755 52.1589L48.3413 52.7549V44.0771L47.2755 43.481V52.1589Z" fill="#3A3A3A"/>
<path d="M47.1213 52.2423L48.4817 53.0048V50.4541L47.1213 49.6917V52.2423Z" fill="#ADADFA"/>
<path d="M47.1213 47.0441L48.4817 47.8065V43.9944L47.1213 43.2319V47.0441Z" fill="#ADADFA"/>
<path d="M49.365 53.5037L50.7253 54.2662V45.2556L49.365 44.4932V53.5037Z" fill="#5D5FEF"/>
<path d="M50.8795 54.5296L49.2246 53.5869V44.2437L50.8795 45.1724V54.5157V54.5296ZM49.5191 53.4206L50.585 54.0167V45.3388L49.5191 44.7427V53.4067V53.4206Z" fill="#3A3A3A"/>
<path d="M49.365 47.0439L50.7253 47.8201V45.2556L49.365 44.4932V47.0439Z" fill="#ADADFA"/>
<path d="M49.365 53.5038L50.7253 54.2663V50.4679L49.365 49.6917V53.5038Z" fill="#ADADFA"/>
<path d="M51.5952 54.7513L52.9556 55.5137V46.5032L51.5952 45.7407V54.7513Z" fill="#5D5FEF"/>
<path d="M53.1094 55.7635L51.4546 54.8347V45.4915L53.1094 46.4341V55.7774V55.7635ZM51.7491 54.6545L52.8149 55.2506V46.5866L51.7491 45.9905V54.6684V54.6545Z" fill="#3A3A3A"/>
<path d="M51.5952 54.7516L52.9556 55.514V52.9633L51.5952 52.187V54.7516Z" fill="#ADADFA"/>
<path d="M51.5952 49.5529L52.9556 50.3153V46.5032L51.5952 45.7407V49.5529Z" fill="#ADADFA"/>
<path d="M37.0376 37.576L36.1821 37.0908V46.1014L54.1752 56.2487V54.9179L37.0376 45.2558V37.576Z" fill="#5D5FEF"/>
<path d="M54.3298 56.4982L36.0422 46.1846V36.8413L37.1922 37.4928V45.1726L54.3298 54.8347V56.4982ZM36.3367 46.0182L54.0353 55.9992V55.015L36.8977 45.3528V37.6731L36.3367 37.3542V46.0321V46.0182Z" fill="#3A3A3A"/>
<path d="M84.9165 62.3339L86.2628 61.5715V60.2407L84.9165 60.9893V62.3339Z" fill="#3A3A3A"/>
<path d="M84.9165 64.2885L86.2628 63.5261V62.1953L84.9165 62.9439V64.2885Z" fill="#ADADFA"/>
<path d="M84.9165 66.2431L86.2628 65.4807V64.1499L84.9165 64.8985V66.2431Z" fill="#3A3A3A"/>
<path d="M86.8237 61.2671L88.1701 60.5185V59.1738L86.8237 59.9363V61.2671Z" fill="#3A3A3A"/>
<path d="M86.8237 63.2216L88.1701 62.4731V61.1284L86.8237 61.8909V63.2216Z" fill="#3A3A3A"/>
<path d="M86.8237 65.1757L88.1701 64.4272V63.0825L86.8237 63.8311V65.1757Z" fill="#ADADFA"/>
<path d="M88.7451 60.2133L90.0774 59.4509V58.1062L88.7451 58.8686V60.2133Z" fill="#ADADFA"/>
<path d="M88.7451 62.1681L90.0774 61.4057V60.061L88.7451 60.8235V62.1681Z" fill="#3A3A3A"/>
<path d="M88.7451 64.1227L90.0774 63.3603V62.0156L88.7451 62.7781V64.1227Z" fill="#3A3A3A"/>
<path d="M90.6523 59.146L91.9987 58.3835V57.0527L90.6523 57.8013V59.146Z" fill="#ADADFA"/>
<path d="M90.6523 61.1006L91.9987 60.3381V59.0073L90.6523 59.7559V61.1006Z" fill="#3A3A3A"/>
<path d="M90.6523 63.0551L91.9987 62.2927V60.948L90.6523 61.7104V63.0551Z" fill="#ADADFA"/>
<path d="M92.5176 58.0922L93.8639 57.3437V55.999L92.5176 56.7476V58.0922Z" fill="#3A3A3A"/>
<path d="M92.5176 62.0014L93.8639 61.2529V59.9082L92.5176 60.6568V62.0014Z" fill="#3A3A3A"/>
<path d="M94.4248 58.9931L95.7711 58.2306V56.886L94.4248 57.6484V58.9931Z" fill="#3A3A3A"/>
<path d="M94.4248 60.9479L95.7711 60.1855V58.8408L94.4248 59.6033V60.9479Z" fill="#ADADFA"/>
<path d="M96.3459 55.9713L97.6923 55.2089V53.8643L96.3459 54.6267V55.9713Z" fill="#ADADFA"/>
<path d="M96.3459 59.8803L97.6923 59.1179V57.7732L96.3459 58.5356V59.8803Z" fill="#3A3A3A"/>
<path d="M98.2534 56.8584L99.5997 56.1098V54.7651L98.2534 55.5137V56.8584Z" fill="#3A3A3A"/>
<path d="M43.8765 28.6609L79.9747 49.4545L115.863 29.2708L79.512 8.32471L43.8765 28.6609Z" fill="#D3D3FF"/>
<path d="M79.975 49.621L79.9048 49.5794L43.5962 28.661L79.5262 8.15845L79.5963 8.20003L116.171 29.2709L115.947 29.3957L79.975 49.621ZM44.1852 28.661L79.989 49.2883L115.582 29.2709L79.5262 8.49115L44.1852 28.661Z" fill="#3A3A3A"/>
<path d="M43.8765 31.8351L79.9747 52.6427V49.4543L43.8765 28.6606V31.8351Z" fill="#DBE0E6"/>
<path d="M80.115 52.8922L79.8906 52.7674L43.7222 31.9322V28.4111L43.9466 28.5359L80.115 49.3711V52.8922ZM44.0167 31.752L79.8064 52.3793V49.5375L44.0167 28.9102V31.752Z" fill="#3A3A3A"/>
<path d="M79.9749 52.6841L116.045 32.3479V29.1179L79.9749 49.4541V52.6841Z" fill="#C2C7CB"/>
<path d="M79.8208 52.9338V49.3712L79.8909 49.3296L116.186 28.8687V32.4452L116.115 32.4867L79.8208 52.9477V52.9338ZM80.1153 49.5375V52.4348L115.891 32.2649V29.3677L80.1153 49.5375Z" fill="#3A3A3A"/>
<path d="M77.1279 1.94773L79.2175 3.1399L81.251 1.94773L79.2175 0.741699L77.1279 1.94773Z" fill="#D6D6F8"/>
<path d="M79.2176 3.22324L79.1756 3.19552L76.9878 1.9479L79.2036 0.658691L79.2457 0.686417L81.3914 1.96176L79.2176 3.2371V3.22324ZM77.2823 1.96176L79.2036 3.05689L81.0969 1.96176L79.2036 0.838903L77.2823 1.96176Z" fill="#3A3A3A"/>
<path d="M79.2175 21.9379L81.251 20.7457V1.94824L79.2175 3.14041V21.9379Z" fill="#D6D6F8"/>
<path d="M79.1333 22.0621V3.08442L79.1754 3.0567L81.3211 1.80908V20.7729H81.279L79.1333 22.0482V22.0621ZM79.2876 3.18146V21.8126L81.1808 20.7174V2.08633L79.2876 3.18146Z" fill="#3A3A3A"/>
<path d="M77.1279 20.7732L79.2175 21.9377V3.14022L77.1279 1.96191V20.7732Z" fill="#3A3A3A"/>
<path d="M73.4397 3.88889L75.5153 5.08106L77.5628 3.88889L75.5153 2.68286L73.4397 3.88889Z" fill="#D6D6F8"/>
<path d="M75.5292 5.1644L75.4871 5.13668L73.2993 3.88906L75.5292 2.59985L75.5712 2.62758L77.7169 3.88906L75.5432 5.1644H75.5292ZM73.5938 3.90292L75.5151 4.99805L77.4084 3.88906L75.5151 2.7662L73.5938 3.88906V3.90292Z" fill="#3A3A3A"/>
<path d="M75.5151 23.8783L77.5627 22.6861V3.88867L75.5151 5.08084V23.8783Z" fill="#D6D6F8"/>
<path d="M75.4448 24.0033V5.0395H75.4869L77.6326 3.76416V22.728H77.5905L75.4448 24.0033ZM75.5991 5.12268V23.7538L77.4924 22.6587V4.02755L75.5991 5.12268Z" fill="#3A3A3A"/>
<path d="M73.4397 22.7139L75.5153 23.8784V5.0809L73.4397 3.90259V22.7139Z" fill="#3A3A3A"/>
<path d="M69.7515 5.82957L71.827 7.02173L73.8605 5.82957L71.827 4.62354L69.7515 5.82957Z" fill="#D6D6F8"/>
<path d="M71.8268 7.10502L71.7847 7.0773L69.5969 5.82968L71.8268 4.52661L71.8688 4.55434L74.0145 5.82968L71.8408 7.10502H71.8268ZM69.8914 5.84354L71.8127 6.93867L73.706 5.84354L71.8127 4.72068L69.8914 5.84354Z" fill="#3A3A3A"/>
<path d="M71.8267 25.819L73.8602 24.6268V5.82935L71.8267 7.02151V25.819Z" fill="#D6D6F8"/>
<path d="M71.7563 25.9439V6.96626L71.7984 6.93854L73.9441 5.69092V24.6686H73.9021L71.7563 25.9439ZM71.9106 7.0633V25.6944L73.7899 24.5993V5.96817L71.9106 7.0633Z" fill="#3A3A3A"/>
<path d="M69.7515 24.6548L71.827 25.8193V7.02181L69.7515 5.84351V24.6548Z" fill="#3A3A3A"/>
<path d="M66.0627 7.77L68.1383 8.96217L70.1718 7.77L68.1383 6.56396L66.0627 7.77Z" fill="#D6D6F8"/>
<path d="M68.1383 9.04532H68.0962L65.9084 7.78384L68.1383 6.49463L68.1804 6.52235L70.3261 7.78384L68.1523 9.05918L68.1383 9.04532ZM66.203 7.78384L68.1243 8.87897L70.0175 7.78384L68.1243 6.66098L66.203 7.78384Z" fill="#3A3A3A"/>
<path d="M68.1384 27.7596L70.1719 26.5675V7.77002L68.1384 8.96219V27.7596Z" fill="#D6D6F8"/>
<path d="M68.0681 27.8844V8.92061L68.1102 8.89288L70.2559 7.64526V26.6091L70.2138 26.6368L68.0681 27.8844ZM68.2224 9.00378V27.6349L70.1156 26.5398V7.90865L68.2224 9.00378Z" fill="#3A3A3A"/>
<path d="M66.0627 26.5953L68.1383 27.7597V8.96224L66.0627 7.78394V26.5953Z" fill="#3A3A3A"/>
<path d="M62.3745 9.72502L64.4501 10.9033L66.4836 9.71116L64.4501 8.50513L62.3745 9.72502Z" fill="#D6D6F8"/>
<path d="M64.4501 10.9862L64.408 10.9585L62.2202 9.71084L64.4501 8.42163L64.4921 8.44936L66.6378 9.71084L64.4641 10.9862H64.4501ZM62.5147 9.7247L64.4501 10.8198L66.3433 9.7247L64.4501 8.60184L62.5147 9.7247Z" fill="#3A3A3A"/>
<path d="M64.4502 29.7008L66.4837 28.5225V9.71118L64.4502 10.9034V29.7008Z" fill="#D6D6F8"/>
<path d="M64.3799 29.8256V10.8618L64.422 10.834L66.5677 9.58643V28.5641H66.5256L64.3799 29.8394V29.8256ZM64.5341 10.9449V29.5761L66.4134 28.4809V9.84981L64.5341 10.9449Z" fill="#3A3A3A"/>
<path d="M62.3745 28.5362L64.4501 29.7006V10.9032L62.3745 9.72485V28.5362Z" fill="#3A3A3A"/>
<path d="M80.2134 3.778L82.289 4.95631L84.3225 3.76414L82.289 2.55811L80.2134 3.778Z" fill="#D6D6F8"/>
<path d="M82.2889 5.03921H82.2469L80.0591 3.77773L82.2889 2.48853L82.331 2.51625L84.4767 3.79159L82.303 5.06694L82.2889 5.03921ZM80.3536 3.77773L82.2749 4.87286L84.1682 3.76387L82.2749 2.64101L80.3536 3.76387V3.77773Z" fill="#3A3A3A"/>
<path d="M82.2888 23.7538L84.3223 22.5755V3.76416L82.2888 4.95633V23.7538Z" fill="#D6D6F8"/>
<path d="M82.2192 23.8783V4.90059H82.2613L84.407 3.62524V22.5891H84.3649L82.2192 23.8644V23.8783ZM82.3735 4.99762V23.6287L84.2527 22.5336V3.90249L82.3735 4.99762Z" fill="#3A3A3A"/>
<path d="M80.2134 22.5894L82.289 23.7677V4.95638L80.2134 3.77808V22.5894Z" fill="#3A3A3A"/>
<path d="M76.5247 5.71843L78.6002 6.89673L80.6337 5.70457L78.6002 4.49854L76.5247 5.71843Z" fill="#D6D6F8"/>
<path d="M78.6002 6.97989H78.5581L76.3704 5.71841L78.6002 4.4292L78.6423 4.45692L80.788 5.73227L78.6142 7.00761L78.6002 6.97989ZM76.6649 5.71841L78.5862 6.81354L80.4795 5.70454L78.5862 4.58169L76.6649 5.70454V5.71841Z" fill="#3A3A3A"/>
<path d="M78.6003 25.6942L80.6338 24.5159V5.70459L78.6003 6.89676V25.6942Z" fill="#D6D6F8"/>
<path d="M78.5161 25.819V6.85518H78.5582L80.7039 5.57983V24.5436H80.6618L78.5161 25.819ZM78.6704 6.93835V25.5695L80.5496 24.4743V5.84322L78.6704 6.93835Z" fill="#3A3A3A"/>
<path d="M76.5247 24.5298L78.6002 25.7081V6.89681L76.5247 5.71851V24.5298Z" fill="#3A3A3A"/>
<path d="M72.8364 7.6594L74.912 8.83771L76.9455 7.6594L74.912 6.45337L72.8364 7.6594Z" fill="#D6D6F8"/>
<path d="M74.9122 8.9208H74.8701L72.6824 7.65932L74.8982 6.37012L74.9403 6.39784L77.086 7.67319L74.9122 8.94853V8.9208ZM72.9769 7.65932L74.9122 8.75445L76.8055 7.64546L74.9122 6.5226L72.9769 7.64546V7.65932Z" fill="#3A3A3A"/>
<path d="M74.9119 27.635L76.9454 26.4566V7.65918L74.9119 8.83749V27.635Z" fill="#D6D6F8"/>
<path d="M74.8284 27.7738V8.7961H74.8704L77.0161 7.52075V26.4846H76.9741L74.8284 27.7599V27.7738ZM74.9826 8.89313V27.5242L76.8619 26.4291V7.798L74.9826 8.89313Z" fill="#3A3A3A"/>
<path d="M72.8364 26.4705L74.912 27.6488V8.83749L72.8364 7.65918V26.4705Z" fill="#3A3A3A"/>
<path d="M69.1479 9.60007L71.2235 10.7784L73.257 9.60007L71.2235 8.39404L69.1479 9.60007Z" fill="#D6D6F8"/>
<path d="M71.2235 10.8614L71.1814 10.8337L68.9937 9.58608L71.2235 8.29688L71.2656 8.3246L73.4113 9.59994L71.2375 10.8753L71.2235 10.8614ZM69.2882 9.59994L71.2095 10.6951L73.1027 9.59994L71.2095 8.47709L69.2882 9.59994Z" fill="#3A3A3A"/>
<path d="M71.2236 29.5759L73.2571 28.3976V9.6001L71.2236 10.7784V29.5759Z" fill="#D6D6F8"/>
<path d="M71.1394 29.7006V10.7368H71.1815L73.3272 9.46143V28.4252H73.2851L71.1394 29.7006ZM71.2937 10.8199V29.4511L73.1729 28.3559V9.72481L71.2937 10.8199Z" fill="#3A3A3A"/>
<path d="M69.1479 28.4114L71.2235 29.5897V10.7784L69.1479 9.6001V28.4114Z" fill="#3A3A3A"/>
<path d="M65.4456 11.5407L67.5211 12.7191L69.5687 11.5407L67.5211 10.3347L65.4456 11.5407Z" fill="#D6D6F8"/>
<path d="M67.5214 12.8023L67.4793 12.7746L65.2915 11.527L67.5214 10.2378L67.5634 10.2655L69.7091 11.5409L67.5354 12.8162L67.5214 12.8023ZM65.586 11.5409L67.5073 12.636L69.4006 11.5409L67.5073 10.418L65.586 11.5409Z" fill="#3A3A3A"/>
<path d="M67.5215 31.5165L69.569 30.3382V11.5408L67.5215 12.7191V31.5165Z" fill="#D6D6F8"/>
<path d="M67.4512 31.6413V12.6774H67.4932L69.6389 11.4021V30.3659H69.5969L67.4512 31.6413ZM67.6054 12.7606V31.3917L69.4847 30.2966V11.6655L67.6054 12.7606Z" fill="#3A3A3A"/>
<path d="M65.4456 30.3518L67.5211 31.5302V12.7188L65.4456 11.5405V30.3518Z" fill="#3A3A3A"/>
<path d="M83.2844 5.59397L85.36 6.77228L87.4075 5.59397L85.36 4.38794L83.2844 5.59397Z" fill="#D6D6F8"/>
<path d="M85.3602 6.85532L85.3182 6.8276L83.1304 5.57998L85.3462 4.29077L85.3883 4.3185L87.534 5.59384L85.3602 6.86918V6.85532ZM83.4249 5.59384L85.3462 6.68897L87.2395 5.57998L85.3462 4.45712L83.4249 5.57998V5.59384Z" fill="#3A3A3A"/>
<path d="M85.3604 25.5695L87.4079 24.3912V5.59375L85.3604 6.77206V25.5695Z" fill="#D6D6F8"/>
<path d="M85.2896 25.7084V6.74458L85.3316 6.71686L87.4773 5.46924V24.4469H87.4353L85.2896 25.7223V25.7084ZM85.4438 6.82776V25.4589L87.3231 24.3637V5.73263L85.4438 6.82776Z" fill="#3A3A3A"/>
<path d="M83.2844 24.4051L85.36 25.5834V6.77206L83.2844 5.59375V24.4051Z" fill="#3A3A3A"/>
<path d="M79.5962 7.53464L81.6718 8.71295L83.7053 7.53464L81.6718 6.32861L79.5962 7.53464Z" fill="#D6D6F8"/>
<path d="M81.6717 8.79605H81.6297L79.4419 7.53457L81.6577 6.24536L83.8315 7.53457L81.6577 8.80991L81.6717 8.79605ZM79.7504 7.53457L81.6717 8.6297L83.565 7.52071L81.6717 6.39785L79.7504 7.52071V7.53457Z" fill="#3A3A3A"/>
<path d="M81.6721 27.5104L83.7056 26.3321V7.53467L81.6721 8.71298V27.5104Z" fill="#D6D6F8"/>
<path d="M81.6016 27.6488V8.68501L81.6436 8.65729L83.7893 7.40967V26.3873H83.7473L81.6016 27.6627V27.6488ZM81.7558 8.76819V27.3993L83.6491 26.3042V7.67305L81.7558 8.76819Z" fill="#3A3A3A"/>
<path d="M79.5962 26.3458L81.6718 27.5241V8.71278L79.5962 7.54834V26.3458Z" fill="#3A3A3A"/>
<path d="M75.908 9.47556L77.9835 10.6539L80.017 9.47556L77.9835 8.26953L75.908 9.47556Z" fill="#D6D6F8"/>
<path d="M77.9833 10.7372H77.9412L75.7534 9.47573L77.9833 8.18652L78.0253 8.21425L80.171 9.48959L77.9973 10.7649L77.9833 10.7372ZM76.0479 9.47573L77.9692 10.5709L79.8625 9.46187L77.9692 8.33901L76.0479 9.46187V9.47573Z" fill="#3A3A3A"/>
<path d="M77.9834 29.4511L80.0169 28.2728V9.47534L77.9834 10.6536V29.4511Z" fill="#D6D6F8"/>
<path d="M77.9133 29.5895V10.6257L77.9554 10.598L80.1011 9.35034V28.328H80.059L77.9133 29.6034V29.5895ZM78.0676 10.7089V29.34L79.9468 28.2448V9.61373L78.0676 10.7089Z" fill="#3A3A3A"/>
<path d="M75.908 28.287L77.9835 29.4653V10.6539L75.908 9.4895V28.287Z" fill="#3A3A3A"/>
<path d="M72.2195 11.4157L74.2951 12.5941L76.3286 11.4157L74.2951 10.2097L72.2195 11.4157Z" fill="#D6D6F8"/>
<path d="M74.295 12.6772H74.253L72.0652 11.4157L74.281 10.1265L76.4548 11.4157L74.281 12.691L74.295 12.6772ZM72.3737 11.4157L74.295 12.5108L76.1883 11.4157L74.295 10.2928L72.3737 11.4157Z" fill="#3A3A3A"/>
<path d="M74.2952 31.4059L76.3287 30.2137V11.4163L74.2952 12.5946V31.4059Z" fill="#D6D6F8"/>
<path d="M74.2246 31.5304V12.5666L74.2667 12.5389L76.4124 11.2913V30.2551L76.3703 30.2828L74.2246 31.5304ZM74.3789 12.6498V31.2809L76.2581 30.1858V11.5546L74.3789 12.6498Z" fill="#3A3A3A"/>
<path d="M72.2195 30.2274L74.2951 31.4057V12.5944L72.2195 11.4299V30.2274Z" fill="#3A3A3A"/>
<path d="M68.5312 13.3569L70.6068 14.5352L72.6403 13.3569L70.6068 12.1509L68.5312 13.3569Z" fill="#D6D6F8"/>
<path d="M70.6066 14.6183H70.5645L68.3767 13.3568L70.6066 12.0676L70.6486 12.0954L72.7943 13.3707L70.6206 14.646L70.6066 14.6183ZM68.6712 13.3568L70.5925 14.452L72.4858 13.3568L70.5925 12.234L68.6712 13.3568Z" fill="#3A3A3A"/>
<path d="M70.6069 33.3466L72.6404 32.1544V13.3569L70.6069 14.5352V33.3466Z" fill="#D6D6F8"/>
<path d="M70.5227 33.4713V14.4936H70.5648L72.7105 13.2183V32.1821H72.6684L70.5227 33.4574V33.4713ZM70.677 14.5906V33.2218L72.5562 32.1266V13.4955L70.677 14.5906Z" fill="#3A3A3A"/>
<path d="M68.5312 32.1681L70.6068 33.3464V14.5351L68.5312 13.3706V32.1681Z" fill="#3A3A3A"/>
<path d="M86.3699 7.40989L88.4454 8.60206L90.479 7.40989L88.4454 6.20386L86.3699 7.40989Z" fill="#D6D6F8"/>
<path d="M88.4454 8.68516L88.4033 8.65743L86.2156 7.40981L88.4454 6.12061L88.4875 6.14833L90.6332 7.42367L88.4594 8.69902L88.4454 8.68516ZM86.5101 7.42367L88.4314 8.51881L90.3247 7.42367L88.4314 6.30082L86.5101 7.42367Z" fill="#3A3A3A"/>
<path d="M88.4453 27.3993L90.4788 26.2071V7.40967L88.4453 8.60184V27.3993Z" fill="#D6D6F8"/>
<path d="M88.3613 27.524V8.54634H88.4034L90.5491 7.271V26.2348H90.507L88.3613 27.5101V27.524ZM88.5156 8.64338V27.2745L90.3948 26.1794V7.54824L88.5156 8.64338Z" fill="#3A3A3A"/>
<path d="M86.3699 26.2208L88.4454 27.3991V8.60165L86.3699 7.42334V26.2208Z" fill="#3A3A3A"/>
<path d="M82.6814 9.35081L84.757 10.543L86.7905 9.35081L84.757 8.14478L82.6814 9.35081Z" fill="#D6D6F8"/>
<path d="M84.757 10.6258L84.7149 10.5981L82.5271 9.35049L84.757 8.06128L86.9307 9.35049L84.757 10.6258ZM82.8216 9.36435L84.7429 10.4595L86.6362 9.36435L84.7429 8.24149L82.8216 9.36435Z" fill="#3A3A3A"/>
<path d="M84.7571 29.34L86.7906 28.1478V9.35034L84.7571 10.5425V29.34Z" fill="#D6D6F8"/>
<path d="M84.6726 29.465V10.5012H84.7147L86.8604 9.22583V28.2035H86.8183L84.6726 29.4788V29.465ZM84.8269 10.5843V29.2155L86.7061 28.1203V9.48922L84.8269 10.5843Z" fill="#3A3A3A"/>
<path d="M82.6814 28.1758L84.757 29.3403V10.5428L82.6814 9.3645V28.1758Z" fill="#3A3A3A"/>
<path d="M78.979 11.2912L81.0546 12.4834L83.1021 11.2912L81.0546 10.0852L78.979 11.2912Z" fill="#D6D6F8"/>
<path d="M81.0685 12.5669L81.0264 12.5392L78.8386 11.2916L81.0685 9.98853L81.1105 10.0162L83.2562 11.2916L81.0825 12.5531L81.0685 12.5669ZM79.1331 11.3055L81.0544 12.4006L82.9477 11.3055L81.0544 10.1826L79.1331 11.3055Z" fill="#3A3A3A"/>
<path d="M81.0549 31.2809L83.1025 30.0887V11.2913L81.0549 12.4834V31.2809Z" fill="#D6D6F8"/>
<path d="M80.9844 31.4057V12.4418H81.0264L83.1722 11.1665V30.1303H83.1301L80.9844 31.4057ZM81.1386 12.525V31.1561L83.0179 30.061V11.4299L81.1386 12.525Z" fill="#3A3A3A"/>
<path d="M78.979 30.1163L81.0546 31.2807V12.4832L78.979 11.3049V30.1163Z" fill="#3A3A3A"/>
<path d="M75.2905 13.2322L77.3661 14.4243L79.3996 13.2322L77.3661 12.0261L75.2905 13.2322Z" fill="#D6D6F8"/>
<path d="M77.3666 14.5074L77.3245 14.4797L75.1367 13.2321L77.3666 11.9429L79.5403 13.2321L77.3666 14.5074ZM75.4312 13.2459L77.3525 14.3411L79.2458 13.2459L77.3525 12.1231L75.4312 13.2459Z" fill="#3A3A3A"/>
<path d="M77.3665 33.2218L79.4 32.0296V13.2322L77.3665 14.4243V33.2218Z" fill="#D6D6F8"/>
<path d="M77.2961 33.3466V14.3828H77.3382L79.4839 13.1074V32.0851H79.4418L77.2961 33.3604V33.3466ZM77.4504 14.4659V33.0971L79.3296 32.0019V13.3708L77.4504 14.4659Z" fill="#3A3A3A"/>
<path d="M75.2905 32.0572L77.3661 33.2216V14.4242L75.2905 13.2458V32.0572Z" fill="#3A3A3A"/>
<path d="M71.6021 15.1728L73.6776 16.365L75.7111 15.1728L73.6776 13.9668L71.6021 15.1728Z" fill="#D6D6F8"/>
<path d="M73.6778 16.4479L73.6358 16.4201L71.448 15.1725L73.6638 13.8833L73.7059 13.911L75.8516 15.1864L73.6778 16.4617V16.4479ZM71.7425 15.1864L73.6778 16.2815L75.5711 15.1864L73.6778 14.0635L71.7425 15.1864Z" fill="#3A3A3A"/>
<path d="M73.678 35.1622L75.7115 33.9701V15.1726L73.678 16.3648V35.1622Z" fill="#D6D6F8"/>
<path d="M73.6079 35.287V16.3232L73.65 16.2955L75.7957 15.0479V34.0117H75.7536L73.6079 35.287ZM73.7622 16.4064V35.0375L75.6414 33.9423V15.3112L73.7622 16.4064Z" fill="#3A3A3A"/>
<path d="M71.6021 33.9981L73.6776 35.1625V16.3651L71.6021 15.1868V33.9981Z" fill="#3A3A3A"/>
<path d="M89.4409 9.23967L91.5165 10.418L93.55 9.22581L91.5165 8.01978L89.4409 9.23967Z" fill="#D6D6F8"/>
<path d="M91.5165 10.5014H91.4744L89.2866 9.23989L91.5024 7.95068L91.5445 7.97841L93.6902 9.25375L91.5165 10.5291V10.5014ZM89.5952 9.23989L91.5165 10.335L93.4097 9.23989L91.5165 8.11703L89.5952 9.23989Z" fill="#3A3A3A"/>
<path d="M91.5168 29.2155L93.5503 28.0372V9.22583L91.5168 10.418V29.2155Z" fill="#D6D6F8"/>
<path d="M91.446 29.3402V10.3764L91.4881 10.3487L93.6338 9.10107V28.0649L93.5918 28.0926L91.446 29.3402ZM91.6003 10.4596V29.0907L93.4796 27.9956V9.36446L91.6003 10.4596Z" fill="#3A3A3A"/>
<path d="M89.4409 28.0508L91.5165 29.2291V10.4178L89.4409 9.2395V28.0508Z" fill="#3A3A3A"/>
<path d="M85.7524 11.1803L87.828 12.3587L89.8615 11.1665L87.828 9.96045L85.7524 11.1803Z" fill="#D6D6F8"/>
<path d="M87.8282 12.442L87.7862 12.4143L85.5984 11.1666L87.8142 9.87744L87.8563 9.90517L90.002 11.1805L87.8282 12.442ZM85.9069 11.1805L87.8282 12.2756L89.7215 11.1805L87.8282 10.0577L85.9069 11.1805Z" fill="#3A3A3A"/>
<path d="M87.8284 31.1561L89.8619 29.9778V11.1665L87.8284 12.3587V31.1561Z" fill="#D6D6F8"/>
<path d="M87.7583 31.2808V12.3032H87.8004L89.9461 11.0278V29.9916L89.904 30.0194L87.7583 31.267V31.2808ZM87.9126 12.4002V31.0313L89.8058 29.9362V11.3051L87.9126 12.4002Z" fill="#3A3A3A"/>
<path d="M85.7524 29.9915L87.828 31.1698V12.3585L85.7524 11.1802V29.9915Z" fill="#3A3A3A"/>
<path d="M82.0642 13.1215L84.1398 14.2998L86.1733 13.1076L84.1398 11.9016L82.0642 13.1215Z" fill="#D6D6F8"/>
<path d="M84.14 14.3829L84.0979 14.3552L81.9102 13.1076L84.14 11.8184L84.1821 11.8461L86.3278 13.1214L84.154 14.3968L84.14 14.3829ZM82.2047 13.1076L84.126 14.2027L86.0192 13.1076L84.126 11.9847L82.2047 13.1076Z" fill="#3A3A3A"/>
<path d="M84.1399 33.0971L86.1734 31.9187V13.1074L84.1399 14.2996V33.0971Z" fill="#D6D6F8"/>
<path d="M84.0696 33.2216V14.2578H84.1117L86.2574 12.9824V31.9462H86.2153L84.0696 33.2216ZM84.2238 14.3409V32.9721L86.1031 31.8769V13.2458L84.2238 14.3409Z" fill="#3A3A3A"/>
<path d="M82.0642 31.9327L84.1398 33.111V14.2996L82.0642 13.1213V31.9327Z" fill="#3A3A3A"/>
<path d="M78.3762 15.062L80.4518 16.2403L82.4853 15.0481L80.4518 13.856L78.3762 15.062Z" fill="#D6D6F8"/>
<path d="M80.4515 16.3231L80.4095 16.2954L78.2217 15.0478L80.4375 13.7585L80.4796 13.7863L82.6253 15.0616L80.4515 16.337V16.3231ZM78.5302 15.0616L80.4515 16.1567L82.3448 15.0616L80.4515 13.9388L78.5302 15.0616Z" fill="#3A3A3A"/>
<path d="M80.4517 35.0375L82.4852 33.8592V15.0479L80.4517 16.24V35.0375Z" fill="#D6D6F8"/>
<path d="M80.3677 35.1624V16.1848H80.4097L82.5554 14.9094V33.8871L82.5134 33.9148L80.3677 35.1624ZM80.5219 16.2818V34.9129L82.4012 33.8178V15.1867L80.5219 16.2818Z" fill="#3A3A3A"/>
<path d="M78.3762 33.8731L80.4518 35.0514V16.2401L78.3762 15.0618V33.8731Z" fill="#3A3A3A"/>
<path d="M74.6875 17.0024L76.7631 18.1807L78.7966 16.9886L76.7631 15.7964L74.6875 17.0024Z" fill="#D6D6F8"/>
<path d="M76.7633 18.264L76.7212 18.2363L74.5334 16.9887L76.7633 15.6995L76.8054 15.7272L78.9511 17.0025L76.7773 18.2779L76.7633 18.264ZM74.828 16.9887L76.7493 18.0838L78.6425 16.9887L76.7493 15.8658L74.828 16.9887Z" fill="#3A3A3A"/>
<path d="M76.7632 36.9784L78.7967 35.8001V16.9888L76.7632 18.1809V36.9784Z" fill="#D6D6F8"/>
<path d="M76.6792 37.1034V18.1396H76.7213L78.867 16.8643V35.8281H78.8249L76.6792 37.1034ZM76.8335 18.2228V36.8539L78.7127 35.7588V17.1276L76.8335 18.2228Z" fill="#3A3A3A"/>
<path d="M74.6875 35.8138L76.7631 36.9921V18.1807L74.6875 17.0024V35.8138Z" fill="#3A3A3A"/>
<path d="M92.5269 11.0556L94.5884 12.2339L96.6359 11.0556L94.5884 9.84961L92.5269 11.0556Z" fill="#D6D6F8"/>
<path d="M94.6022 12.317L94.5601 12.2893L92.3723 11.0416L94.6022 9.75244L94.6442 9.78017L96.7899 11.0555L94.6162 12.3309L94.6022 12.317ZM92.6668 11.0416L94.5881 12.1368L96.4814 11.0416L94.5881 9.91879L92.6668 11.0416Z" fill="#3A3A3A"/>
<path d="M94.5881 31.0314L96.6357 29.8531V11.0557L94.5881 12.234V31.0314Z" fill="#D6D6F8"/>
<path d="M94.5181 31.1703V12.2065L94.5601 12.1788L96.7058 10.9312V29.895L96.6638 29.9227L94.5181 31.1703ZM94.6723 12.2897V30.9208L96.5516 29.8257V11.1945L94.6723 12.2897Z" fill="#3A3A3A"/>
<path d="M92.5269 29.867L94.5884 31.0453V12.234L92.5269 11.0557V29.867Z" fill="#3A3A3A"/>
<path d="M88.824 12.9966L90.8995 14.1749L92.9331 12.9966L90.8995 11.7905L88.824 12.9966Z" fill="#D6D6F8"/>
<path d="M90.8995 14.2579L90.8574 14.2301L88.6697 12.9825L90.8995 11.6794L90.9416 11.7072L93.0873 12.9825L90.9135 14.2579H90.8995ZM88.9642 12.9964L90.8855 14.0915L92.7788 12.9964L90.8855 11.8735L88.9642 12.9964Z" fill="#3A3A3A"/>
<path d="M90.8999 32.9721L92.9334 31.7938V12.9963L90.8999 14.1746V32.9721Z" fill="#D6D6F8"/>
<path d="M90.8293 33.1107V14.1469L90.8714 14.1192L93.0171 12.8716V31.8354L92.975 31.8631L90.8293 33.1107ZM90.9836 14.2301V32.8612L92.8628 31.7661V13.135L90.9836 14.2301Z" fill="#3A3A3A"/>
<path d="M88.824 31.8079L90.8995 32.9862V14.1749L88.824 12.9966V31.8079Z" fill="#3A3A3A"/>
<path d="M85.1355 14.9372L87.2111 16.1155L89.2446 14.9372L87.2111 13.7312L85.1355 14.9372Z" fill="#D6D6F8"/>
<path d="M87.2113 16.1986H87.1692L84.9814 14.9372L87.2113 13.6479L87.2534 13.6757L89.3991 14.951L87.2253 16.2264L87.2113 16.1986ZM85.276 14.9233L87.1973 16.0184L89.0905 14.9233L87.1973 13.8004L85.276 14.9233Z" fill="#3A3A3A"/>
<path d="M87.2117 34.9128L89.2452 33.7345V14.937L87.2117 16.1153V34.9128Z" fill="#D6D6F8"/>
<path d="M87.1411 35.0514V16.0876L87.1832 16.0599L89.3289 14.8123V33.7761L89.2868 33.8038L87.1411 35.0514ZM87.2954 16.1708V34.8019L89.1746 33.7068V15.0756L87.2954 16.1708Z" fill="#3A3A3A"/>
<path d="M85.1355 33.7486L87.2111 34.9269V16.1156L85.1355 14.9512V33.7486Z" fill="#3A3A3A"/>
<path d="M81.4473 16.8777L83.5229 18.056L85.5564 16.8777L83.5229 15.6716L81.4473 16.8777Z" fill="#D6D6F8"/>
<path d="M83.5231 18.1393H83.481L81.2932 16.8778L83.5231 15.5886L83.5651 15.6163L85.7108 16.8917L83.5371 18.167L83.5231 18.1393ZM81.5877 16.8778L83.509 17.973L85.4023 16.8778L83.509 15.755L81.5877 16.8778Z" fill="#3A3A3A"/>
<path d="M83.5229 36.8535L85.5565 35.6751V16.8777L83.5229 18.056V36.8535Z" fill="#D6D6F8"/>
<path d="M83.4526 36.9923V18.0285L83.4947 18.0008L85.6404 16.7532V35.717L85.5983 35.7447L83.4526 36.9923ZM83.6069 18.1117V36.7428L85.4861 35.6477V17.0166L83.6069 18.1117Z" fill="#3A3A3A"/>
<path d="M81.4473 35.689L83.5229 36.8673V18.056L81.4473 16.8777V35.689Z" fill="#3A3A3A"/>
<path d="M77.759 18.8188L79.8346 19.9971L81.8681 18.8188L79.8346 17.6128L77.759 18.8188Z" fill="#D6D6F8"/>
<path d="M79.8348 20.0802H79.7928L77.605 18.8187L79.8208 17.5295L79.8629 17.5573L82.0086 18.8326L79.8348 20.108V20.0802ZM77.9135 18.8049L79.8348 19.9L81.7281 18.8049L79.8348 17.682L77.9135 18.8049Z" fill="#3A3A3A"/>
<path d="M79.835 38.7946L81.8685 37.6163V18.8188L79.835 19.9972V38.7946Z" fill="#D6D6F8"/>
<path d="M79.7646 38.933V19.9692L79.8067 19.9415L81.9524 18.6938V37.6577L81.9103 37.6854L79.7646 38.933ZM79.9189 20.0524V38.6835L81.8122 37.5883V18.9572L79.9189 20.0524Z" fill="#3A3A3A"/>
<path d="M77.759 37.6302L79.8346 38.8085V19.9972L77.759 18.8188V37.6302Z" fill="#3A3A3A"/>
<defs>
<linearGradient id="paint0_linear_318_12545" x1="171.293" y1="171.98" x2="124.51" y2="96.0878" gradientUnits="userSpaceOnUse">
<stop stop-color="#2743A6"/>
<stop offset="0.46" stop-color="#8F1AEB"/>
<stop offset="0.734" stop-color="#C860D5"/>
<stop offset="1" stop-color="#FFA4C0"/>
</linearGradient>
</defs>
</svg>
