<svg width="279" height="282" viewBox="0 0 279 282" fill="none" xmlns="http://www.w3.org/2000/svg">
<g opacity="0.1">
<path d="M186.97 219.89L220.307 281.194H279L248.369 227.853C274.47 197.869 278.392 162.01 278.392 162.01H229.477C229.477 162.01 222.351 198.787 186.97 219.89Z" fill="url(#paint0_linear_318_12545)"/>
<path d="M278.393 144.22H231.992C232.82 104.827 213.403 79.6591 197.107 66.7134C172.912 46.752 143.718 46.4736 143.718 46.4736C107.784 45.7497 86.2129 62.0084 73.9772 74.2024C55.6099 92.6605 46.2467 118.023 47.2134 144.109C48.5115 185.702 78.645 221.032 117.783 230.609C127.45 232.947 132.615 232.919 135.819 233.253C155.18 233.588 161.091 233.643 174.238 233.643L200.201 281.222C200.201 281.222 154.876 281.222 141.729 281.222C54.4774 280.108 14.3731 215.631 4.4575 176.125C-4.7676 142.606 3.18698 110.255 3.18698 110.255C18.019 44.6361 75.9106 -1.96837 144.933 0.063965C152.667 1.06621 195.892 0.342366 237.709 40.5158C258.424 61.4238 279.029 94.5536 278.393 144.22Z" fill="#19194D"/>
</g>
<path d="M29.3579 215.928L141.481 281.305L250.179 219.44V215.093L137.255 153.568L29.3579 211.581V215.928Z" fill="#3A3A3A"/>
<path d="M29.3579 211.581L141.481 276.975L250.179 215.093L137.255 149.221L29.3579 211.581Z" fill="#F3F3FD"/>
<path d="M141.481 277.179L141.395 277.128L29 211.581L137.272 149.017L137.358 149.068L250.554 215.093L250.281 215.246L141.481 277.179ZM29.7156 211.581L141.481 276.77L249.821 215.093L137.255 149.443L29.7156 211.581Z" fill="#3A3A3A"/>
<path d="M207.603 214.359L214.06 218.127L219.358 215.109L212.867 211.308L207.603 214.359Z" fill="#3A3A3A"/>
<path d="M132.263 169.763L138.721 173.531L144.036 170.513L137.528 166.729L132.263 169.763Z" fill="#3A3A3A"/>
<path d="M136.267 255.171L142.724 258.938L148.023 255.921L141.515 252.119L136.267 255.171Z" fill="#3A3A3A"/>
<path d="M60.928 210.575L67.3851 214.342L72.6838 211.325L66.1925 207.541L60.928 210.575Z" fill="#3A3A3A"/>
<path d="M37.4678 211.598L141.515 272.27L242.035 215.041L137.256 153.926L37.4678 211.598ZM140 263.017L51.5 212.017L137.221 162.467L227 214.017L141 263.017H140Z" fill="#ADADFA"/>
<path d="M141.498 272.474L141.413 272.423L37.1099 211.598L137.255 153.739L137.341 153.79L242.393 215.058L242.12 215.212L141.498 272.491V272.474ZM37.8254 211.598L141.498 272.065L241.66 215.041L137.238 154.148L37.8254 211.598ZM140.5 264.017L140 263.517L51 212.017L137.238 162.279L137.324 162.33L227.5 214.017L227.227 214.17L141 264.017H140.5ZM52.2058 211.861L140.924 263.296L226.784 214.017L137.238 162.705L52.5457 211.649L52.2058 211.861Z" fill="#3A3A3A"/>
<path d="M57.4954 188.575L140.786 236.929L223.606 189.982L139.721 141.257L57.4954 188.575Z" fill="#5D5FEF"/>
<path d="M140.786 237.226L140.662 237.152L57 188.55L139.746 140.936L139.869 141.01L224.151 189.957L223.755 190.179L140.811 237.201L140.786 237.226ZM58.0405 188.575L140.786 236.633L223.086 189.982L139.721 141.578L58.0405 188.575Z" fill="#3A3A3A"/>
<path d="M57.4954 215.85L140.786 264.205V236.93L57.4954 188.575V215.85Z" fill="#D3D3FF"/>
<path d="M141.034 264.674L140.637 264.451L57.2229 216.023V188.13L57.6193 188.353L141.034 236.781V264.674ZM57.7679 215.702L140.513 263.76V237.078L57.7679 189.019V215.702Z" fill="#3A3A3A"/>
<path d="M140.786 264.328L224.002 217.035V189.636L140.786 236.929V264.328Z" fill="#A5A6F6"/>
<path d="M140.513 264.773V236.757L140.637 236.683L224.25 189.167V217.183L224.126 217.257L140.513 264.773ZM141.034 237.078V263.884L223.73 216.887V190.081L141.034 237.078Z" fill="#3A3A3A"/>
<path d="M145.741 255.837L189.294 231.08V215.035L145.741 239.793V255.837Z" fill="#F3F3FD"/>
<path d="M145.468 256.281V239.645L145.592 239.571L189.541 214.591V231.228L189.418 231.302L145.468 256.281ZM145.989 239.941V255.368L189.021 230.907V215.455L145.989 239.916V239.941Z" fill="#3A3A3A"/>
<path d="M187.783 229.599L145.741 253.467V255.837L189.294 231.08V215.035L187.783 215.899V229.599Z" fill="#3A3A3A"/>
<path d="M148.515 243.051L150.893 241.694V239.299L148.515 240.657V243.051Z" fill="#3A3A3A"/>
<path d="M148.515 246.507L150.893 245.174V242.78L148.515 244.137V246.507Z" fill="#ADADFA"/>
<path d="M148.515 249.987L150.893 248.654V246.26L148.515 247.617V249.987Z" fill="#3A3A3A"/>
<path d="M151.885 241.15L154.263 239.793V237.398L151.885 238.756V241.15Z" fill="#3A3A3A"/>
<path d="M151.885 244.631L154.263 243.273V240.879L151.885 242.236V244.631Z" fill="#3A3A3A"/>
<path d="M151.885 248.111L154.263 246.753V244.359L151.885 245.717V248.111Z" fill="#ADADFA"/>
<path d="M155.279 239.25L157.633 237.917V235.522L155.279 236.855V239.25Z" fill="#ADADFA"/>
<path d="M155.279 242.73L157.633 241.372V239.003L155.279 240.336V242.73Z" fill="#3A3A3A"/>
<path d="M155.279 246.21L157.633 244.853V242.458L155.279 243.816V246.21Z" fill="#3A3A3A"/>
<path d="M158.648 237.374L161.027 236.016V233.622L158.648 234.98V237.374Z" fill="#ADADFA"/>
<path d="M158.648 240.829L161.027 239.497V237.102L158.648 238.46V240.829Z" fill="#3A3A3A"/>
<path d="M158.648 244.31L161.027 242.977V240.583L158.648 241.94V244.31Z" fill="#ADADFA"/>
<path d="M161.943 235.498L164.321 234.14V231.746L161.943 233.103V235.498Z" fill="#3A3A3A"/>
<path d="M161.943 242.458L164.321 241.101V238.707L161.943 240.064V242.458Z" fill="#3A3A3A"/>
<path d="M165.312 237.078L167.691 235.72V233.326L165.312 234.683V237.078Z" fill="#3A3A3A"/>
<path d="M165.312 240.558L167.691 239.201V236.806L165.312 238.164V240.558Z" fill="#ADADFA"/>
<path d="M168.706 231.697L171.085 230.364V227.969L168.706 229.327V231.697Z" fill="#ADADFA"/>
<path d="M168.706 238.657L171.085 237.324V234.93L168.706 236.263V238.657Z" fill="#3A3A3A"/>
<path d="M172.075 233.301L174.454 231.943V229.549L172.075 230.907V233.301Z" fill="#3A3A3A"/>
<path d="M62.4253 212.592L94.2105 230.66V214.616L62.4253 196.547V212.592Z" fill="#3A3A3A"/>
<path d="M65.9187 214.591L68.3218 215.949V199.904L65.9187 198.547V214.591Z" fill="#5D5FEF"/>
<path d="M68.5942 216.393L65.6709 214.714V198.078L68.5942 199.756V216.393ZM66.1912 214.418L68.074 215.479V200.028L66.1912 198.966V214.418Z" fill="#3A3A3A"/>
<path d="M65.9187 214.591L68.3218 215.948V211.407L65.9187 210.024V214.591Z" fill="#ADADFA"/>
<path d="M65.9187 205.31L68.3218 206.692V199.904L65.9187 198.547V205.31Z" fill="#ADADFA"/>
<path d="M69.8821 216.837L72.3099 218.195V202.151L69.8821 200.793V216.837Z" fill="#5D5FEF"/>
<path d="M72.5579 218.639L69.6345 216.96V200.324L72.5579 202.002V218.639ZM70.1548 216.664L72.0376 217.726V202.274L70.1548 201.212V216.664Z" fill="#3A3A3A"/>
<path d="M69.8821 205.335L72.3099 206.717V202.151L69.8821 200.793V205.335Z" fill="#ADADFA"/>
<path d="M69.8821 216.837L72.3099 218.195V211.407L69.8821 210.049V216.837Z" fill="#ADADFA"/>
<path d="M73.8213 219.059L76.2492 220.416V204.372L73.8213 203.015V219.059Z" fill="#5D5FEF"/>
<path d="M76.4971 220.861L73.5737 219.182V202.546L76.4971 204.199V220.836V220.861ZM74.094 218.886L75.9768 219.947V204.496L74.094 203.434V218.861V218.886Z" fill="#3A3A3A"/>
<path d="M73.8213 219.059L76.2492 220.417V215.875L73.8213 214.493V219.059Z" fill="#ADADFA"/>
<path d="M73.8213 209.778L76.2492 211.16V204.372L73.8213 203.015V209.778Z" fill="#ADADFA"/>
<path d="M77.8098 221.305L80.2129 222.663V206.618L77.8098 205.261V221.305Z" fill="#5D5FEF"/>
<path d="M80.4856 223.131L77.5623 221.453V204.816L80.4856 206.47V223.107V223.131ZM78.0825 221.157L79.9653 222.218V206.766L78.0825 205.705V221.157Z" fill="#3A3A3A"/>
<path d="M77.8098 209.802L80.2129 211.185V206.618L77.8098 205.261V209.802Z" fill="#ADADFA"/>
<path d="M77.8098 221.305L80.2129 222.662V215.899L77.8098 214.517V221.305Z" fill="#ADADFA"/>
<path d="M81.749 223.526L84.1521 224.884V208.84L81.749 207.482V223.526Z" fill="#5D5FEF"/>
<path d="M84.4248 225.328L81.5015 223.65V207.013L84.4248 208.692V225.328ZM82.0217 223.354L83.9046 224.415V208.963L82.0217 207.902V223.354Z" fill="#3A3A3A"/>
<path d="M81.749 223.527L84.1521 224.884V220.342L81.749 218.96V223.527Z" fill="#ADADFA"/>
<path d="M81.749 214.245L84.1521 215.628V208.84L81.749 207.482V214.245Z" fill="#ADADFA"/>
<path d="M85.7129 225.773L88.116 227.13V211.086L85.7129 209.729V225.773Z" fill="#5D5FEF"/>
<path d="M88.3884 227.575L85.4651 225.921V209.284L88.3884 210.938V227.575ZM85.9854 225.6L87.8682 226.661V211.209L85.9854 210.148V225.575V225.6Z" fill="#3A3A3A"/>
<path d="M85.7129 214.27L88.116 215.653V211.086L85.7129 209.729V214.27Z" fill="#ADADFA"/>
<path d="M85.7129 225.773L88.116 227.13V220.367L85.7129 218.985V225.773Z" fill="#ADADFA"/>
<path d="M89.6523 227.994L92.0554 229.351V213.307L89.6523 211.95V227.994Z" fill="#5D5FEF"/>
<path d="M92.3276 229.796L89.4043 228.142V211.506L92.3276 213.184V229.821V229.796ZM89.9246 227.821L91.8074 228.883V213.456L89.9246 212.394V227.846V227.821Z" fill="#3A3A3A"/>
<path d="M89.6523 227.994L92.0554 229.352V224.81L89.6523 223.428V227.994Z" fill="#ADADFA"/>
<path d="M89.6523 218.713L92.0554 220.095V213.307L89.6523 211.95V218.713Z" fill="#ADADFA"/>
<path d="M63.9365 197.411L62.4253 196.547V212.592L94.2105 230.66V228.29L63.9365 211.086V197.411Z" fill="#5D5FEF"/>
<path d="M94.4832 231.104L62.1777 212.74V196.103L64.2092 197.263V210.938L94.4832 228.142V231.104ZM62.698 212.443L93.9629 230.216V228.463L63.689 211.259V197.584L62.698 197.016V212.468V212.443Z" fill="#3A3A3A"/>
<path d="M57.4954 155.919L140.786 204.298L223.606 157.326L139.721 108.625L57.4954 155.919Z" fill="#5D5FEF"/>
<path d="M140.786 204.594L140.662 204.52L57 155.919L139.746 108.304L139.869 108.378L224.151 157.326L223.755 157.548L140.811 204.57L140.786 204.594ZM58.0405 155.943L140.786 204.002L223.086 157.35L139.721 108.946L58.0405 155.943Z" fill="#3A3A3A"/>
<path d="M57.4954 183.219L140.786 231.573V204.298L57.4954 155.919V183.219Z" fill="#D3D3FF"/>
<path d="M141.034 232.018L140.637 231.795L57.2229 183.367V155.474L57.6193 155.697L141.034 204.125V232.018ZM57.7679 183.046L140.513 231.104V204.422L57.7679 156.363V183.046Z" fill="#3A3A3A"/>
<path d="M140.786 231.697L224.002 184.403V156.98L140.786 204.298V231.697Z" fill="#A5A6F6"/>
<path d="M140.513 232.141V204.125L140.637 204.051L224.25 156.536V184.551L224.126 184.625L140.513 232.141ZM141.034 204.446V231.252L223.73 184.255V157.449L141.034 204.446Z" fill="#3A3A3A"/>
<path d="M145.741 223.181L189.294 198.448V182.404L145.741 207.161V223.181Z" fill="#F3F3FD"/>
<path d="M145.468 223.65V207.013L145.592 206.939L189.541 181.959V198.596L189.418 198.67L145.468 223.65ZM145.989 207.309V222.736L189.021 198.3V182.848L145.989 207.309Z" fill="#3A3A3A"/>
<path d="M187.783 196.942L145.741 220.836V223.181L189.294 198.448V182.404L187.783 183.268V196.942Z" fill="#3A3A3A"/>
<path d="M148.515 210.123L150.893 208.766V206.371L148.515 207.729V210.123Z" fill="#3A3A3A"/>
<path d="M148.515 213.604L150.893 212.246V209.852L148.515 211.209V213.604Z" fill="#ADADFA"/>
<path d="M148.515 217.084L150.893 215.727V213.332L148.515 214.69V217.084Z" fill="#3A3A3A"/>
<path d="M151.885 208.223L154.263 206.89V204.496L151.885 205.829V208.223Z" fill="#3A3A3A"/>
<path d="M151.885 211.703L154.263 210.37V207.976L151.885 209.309V211.703Z" fill="#3A3A3A"/>
<path d="M151.885 215.183L154.263 213.85V211.456L151.885 212.789V215.183Z" fill="#ADADFA"/>
<path d="M155.279 206.347L157.633 204.989V202.595L155.279 203.952V206.347Z" fill="#ADADFA"/>
<path d="M155.279 209.828L157.633 208.47V206.076L155.279 207.433V209.828Z" fill="#3A3A3A"/>
<path d="M155.279 213.308L157.633 211.95V209.556L155.279 210.913V213.308Z" fill="#3A3A3A"/>
<path d="M158.648 204.446L161.027 203.089V200.719L158.648 202.052V204.446Z" fill="#ADADFA"/>
<path d="M158.648 207.926L161.027 206.569V204.175L158.648 205.532V207.926Z" fill="#3A3A3A"/>
<path d="M158.648 211.407L161.027 210.049V207.655L158.648 209.013V211.407Z" fill="#ADADFA"/>
<path d="M161.943 202.57L164.321 201.237V198.843L161.943 200.176V202.57Z" fill="#3A3A3A"/>
<path d="M161.943 209.531L164.321 208.173V205.804L161.943 207.137V209.531Z" fill="#3A3A3A"/>
<path d="M165.312 204.15L167.691 202.817V200.423L165.312 201.78V204.15Z" fill="#3A3A3A"/>
<path d="M165.312 207.63L167.691 206.297V203.903L165.312 205.261V207.63Z" fill="#ADADFA"/>
<path d="M168.706 198.794L171.085 197.436V195.042L168.706 196.4V198.794Z" fill="#ADADFA"/>
<path d="M168.706 205.754L171.085 204.397V202.002L168.706 203.36V205.754Z" fill="#3A3A3A"/>
<path d="M172.075 200.374L174.454 199.041V196.646L172.075 197.979V200.374Z" fill="#3A3A3A"/>
<path d="M62.4253 181.392L94.2105 199.46V183.416L62.4253 165.348V181.392Z" fill="#3A3A3A"/>
<path d="M65.9187 183.391L68.3218 184.749V168.705L65.9187 167.347V183.391Z" fill="#5D5FEF"/>
<path d="M68.5942 185.193L65.6709 183.514V166.878L68.5942 168.556V185.193ZM66.1912 183.218L68.074 184.279V168.828L66.1912 167.766V183.218Z" fill="#3A3A3A"/>
<path d="M65.9187 183.391L68.3218 184.748V180.207L65.9187 178.824V183.391Z" fill="#ADADFA"/>
<path d="M65.9187 174.11L68.3218 175.492V168.705L65.9187 167.347V174.11Z" fill="#ADADFA"/>
<path d="M69.8821 185.637L72.3099 186.995V170.951L69.8821 169.593V185.637Z" fill="#5D5FEF"/>
<path d="M72.5579 187.44L69.6345 185.761V169.125L72.5579 170.803V187.44ZM70.1548 185.465L72.0376 186.526V171.074L70.1548 170.013V185.465Z" fill="#3A3A3A"/>
<path d="M69.8821 174.135L72.3099 175.517V170.951L69.8821 169.593V174.135Z" fill="#ADADFA"/>
<path d="M69.8821 185.638L72.3099 186.995V180.232L69.8821 178.85V185.638Z" fill="#ADADFA"/>
<path d="M73.8213 187.859L76.2492 189.217V173.172L73.8213 171.815V187.859Z" fill="#5D5FEF"/>
<path d="M76.4971 189.661L73.5737 188.007V171.371L76.4971 173.049V189.686V189.661ZM74.094 187.686L75.9768 188.748V173.296L74.094 172.235V187.686Z" fill="#3A3A3A"/>
<path d="M73.8213 187.859L76.2492 189.217V184.675L73.8213 183.293V187.859Z" fill="#ADADFA"/>
<path d="M73.8213 178.578L76.2492 179.96V173.172L73.8213 171.815V178.578Z" fill="#ADADFA"/>
<path d="M77.8098 190.105L80.2129 191.463V175.418L77.8098 174.061V190.105Z" fill="#5D5FEF"/>
<path d="M80.4856 191.907L77.5623 190.253V173.617L80.4856 175.295V191.932V191.907ZM78.0825 189.932L79.9653 190.994V175.567L78.0825 174.505V189.957V189.932Z" fill="#3A3A3A"/>
<path d="M77.8098 178.603L80.2129 179.985V175.418L77.8098 174.061V178.603Z" fill="#ADADFA"/>
<path d="M77.8098 190.105L80.2129 191.463V184.7L77.8098 183.317V190.105Z" fill="#ADADFA"/>
<path d="M81.749 192.327L84.1521 193.684V177.64L81.749 176.282V192.327Z" fill="#5D5FEF"/>
<path d="M84.4248 194.129L81.5015 192.475V175.838L84.4248 177.517V194.153V194.129ZM82.0217 192.154L83.9046 193.215V177.763L82.0217 176.702V192.154Z" fill="#3A3A3A"/>
<path d="M81.749 192.326L84.1521 193.684V189.142L81.749 187.76V192.326Z" fill="#ADADFA"/>
<path d="M81.749 183.046L84.1521 184.428V177.64L81.749 176.282V183.046Z" fill="#ADADFA"/>
<path d="M85.7129 194.573L88.116 195.931V179.886L85.7129 178.529V194.573Z" fill="#5D5FEF"/>
<path d="M88.3884 196.4L85.4651 194.721V178.084L88.3884 179.738V196.375V196.4ZM85.9854 194.425L87.8682 195.486V180.034L85.9854 178.973V194.4V194.425Z" fill="#3A3A3A"/>
<path d="M85.7129 183.071L88.116 184.453V179.886L85.7129 178.529V183.071Z" fill="#ADADFA"/>
<path d="M85.7129 194.573L88.116 195.93V189.167L85.7129 187.785V194.573Z" fill="#ADADFA"/>
<path d="M89.6523 196.794L92.0554 198.152V182.108L89.6523 180.75V196.794Z" fill="#5D5FEF"/>
<path d="M92.3276 198.596L89.4043 196.918V180.281L92.3276 181.935V198.571V198.596ZM89.9246 196.621L91.8074 197.683V182.231L89.9246 181.17V196.621Z" fill="#3A3A3A"/>
<path d="M89.6523 196.794L92.0554 198.152V193.61L89.6523 192.228V196.794Z" fill="#ADADFA"/>
<path d="M89.6523 187.513L92.0554 188.896V182.108L89.6523 180.75V187.513Z" fill="#ADADFA"/>
<path d="M63.9365 166.212L62.4253 165.348V181.392L94.2105 199.46V197.091L63.9365 179.886V166.212Z" fill="#5D5FEF"/>
<path d="M94.4832 199.905L62.1777 181.54V164.904L64.2092 166.064V179.738L94.4832 196.943V199.905ZM62.698 181.244L93.9629 199.016V197.263L63.689 180.059V166.385L62.698 165.817V181.269V181.244Z" fill="#3A3A3A"/>
<path d="M57.4954 123.287L140.786 171.642L223.606 124.694L139.721 75.969L57.4954 123.287Z" fill="#5D5FEF"/>
<path d="M140.786 171.938L140.662 171.864L57 123.262L139.746 75.6482L139.869 75.7222L224.151 124.669L223.755 124.892L140.811 171.913L140.786 171.938ZM58.0405 123.287L140.786 171.346L223.086 124.694L139.721 76.29L58.0405 123.287Z" fill="#3A3A3A"/>
<path d="M57.4954 150.563L140.786 198.942V171.642L57.4954 123.287V150.563Z" fill="#D3D3FF"/>
<path d="M141.034 199.386L140.637 199.164L57.2229 150.735V122.843L57.6193 123.065L141.034 171.494V199.386ZM57.7679 150.414L140.513 198.473V171.79L57.7679 123.732V150.414Z" fill="#3A3A3A"/>
<path d="M140.786 199.04L224.002 151.747V124.348L140.786 171.642V199.04Z" fill="#A5A6F6"/>
<path d="M140.513 199.485V171.469L140.637 171.395L224.25 123.879V151.895L224.126 151.969L140.513 199.485ZM141.034 171.79V198.596L223.73 151.599V124.793L141.034 171.79Z" fill="#3A3A3A"/>
<path d="M145.741 190.549L189.294 165.792V149.772L145.741 174.505V190.549Z" fill="#F3F3FD"/>
<path d="M145.468 190.994V174.357L145.592 174.283L189.541 149.303V165.94L189.418 166.014L145.468 190.994ZM145.989 174.653V190.08L189.021 165.619V150.167L145.989 174.629V174.653Z" fill="#3A3A3A"/>
<path d="M187.783 164.311L145.741 188.18V190.549L189.294 165.792V149.772L187.783 150.611V164.311Z" fill="#3A3A3A"/>
<path d="M148.515 177.492L150.893 176.134V173.74L148.515 175.098V177.492Z" fill="#3A3A3A"/>
<path d="M148.515 180.972L150.893 179.615V177.22L148.515 178.578V180.972Z" fill="#ADADFA"/>
<path d="M148.515 184.428L150.893 183.095V180.7L148.515 182.058V184.428Z" fill="#3A3A3A"/>
<path d="M151.885 175.591L154.263 174.234V171.839L151.885 173.197V175.591Z" fill="#3A3A3A"/>
<path d="M151.885 179.071L154.263 177.714V175.32L151.885 176.677V179.071Z" fill="#3A3A3A"/>
<path d="M151.885 182.552L154.263 181.195V178.8L151.885 180.158V182.552Z" fill="#ADADFA"/>
<path d="M155.279 173.69L157.633 172.357V169.963L155.279 171.296V173.69Z" fill="#ADADFA"/>
<path d="M155.279 177.171L157.633 175.813V173.444L155.279 174.776V177.171Z" fill="#3A3A3A"/>
<path d="M155.279 180.651L157.633 179.294V176.924L155.279 178.257V180.651Z" fill="#3A3A3A"/>
<path d="M158.648 171.815L161.027 170.457V168.063L158.648 169.42V171.815Z" fill="#ADADFA"/>
<path d="M158.648 175.295L161.027 173.937V171.543L158.648 172.901V175.295Z" fill="#3A3A3A"/>
<path d="M158.648 178.75L161.027 177.417V175.023L158.648 176.381V178.75Z" fill="#ADADFA"/>
<path d="M161.943 169.939L164.321 168.581V166.187L161.943 167.544V169.939Z" fill="#3A3A3A"/>
<path d="M161.943 176.9L164.321 175.542V173.148L161.943 174.505V176.9Z" fill="#3A3A3A"/>
<path d="M165.312 171.518L167.691 170.161V167.791L165.312 169.124V171.518Z" fill="#3A3A3A"/>
<path d="M165.312 174.999L167.691 173.641V171.247L165.312 172.605V174.999Z" fill="#ADADFA"/>
<path d="M168.706 166.162L171.085 164.805V162.41L168.706 163.768V166.162Z" fill="#ADADFA"/>
<path d="M168.706 173.098L171.085 171.765V169.371L168.706 170.704V173.098Z" fill="#3A3A3A"/>
<path d="M172.075 167.742L174.454 166.384V163.99L172.075 165.348V167.742Z" fill="#3A3A3A"/>
<path d="M62.4253 148.439L94.2105 166.508V150.464L62.4253 132.395V148.439Z" fill="#3A3A3A"/>
<path d="M65.9187 150.414L68.3218 151.797V135.752L65.9187 134.37V150.414Z" fill="#5D5FEF"/>
<path d="M68.5942 152.241L65.6709 150.587V133.95L68.5942 135.629V152.266V152.241ZM66.1912 150.266L68.074 151.328V135.876L66.1912 134.814V150.266Z" fill="#3A3A3A"/>
<path d="M65.9187 150.414L68.3218 151.797V147.23L65.9187 145.873V150.414Z" fill="#ADADFA"/>
<path d="M65.9187 141.158L68.3218 142.54V135.752L65.9187 134.37V141.158Z" fill="#ADADFA"/>
<path d="M69.8821 152.685L72.3099 154.043V137.999L69.8821 136.641V152.685Z" fill="#5D5FEF"/>
<path d="M72.5579 154.487L69.6345 152.833V136.197L72.5579 137.851V154.487ZM70.1548 152.513L72.0376 153.574V138.122L70.1548 137.061V152.513Z" fill="#3A3A3A"/>
<path d="M69.8821 141.183L72.3099 142.54V137.999L69.8821 136.641V141.183Z" fill="#ADADFA"/>
<path d="M69.8821 152.685L72.3099 154.042V147.255L69.8821 145.897V152.685Z" fill="#ADADFA"/>
<path d="M73.8213 154.882L76.2492 156.264V140.22L73.8213 138.838V154.882Z" fill="#5D5FEF"/>
<path d="M76.4971 156.708L73.5737 155.03V138.393L76.4971 140.047V156.684V156.708ZM74.094 154.734L75.9768 155.795V140.343L74.094 139.282V154.734Z" fill="#3A3A3A"/>
<path d="M73.8213 154.882L76.2492 156.264V151.698L73.8213 150.34V154.882Z" fill="#ADADFA"/>
<path d="M73.8213 145.626L76.2492 147.008V140.22L73.8213 138.838V145.626Z" fill="#ADADFA"/>
<path d="M77.8098 157.128L80.2129 158.51V142.466L77.8098 141.109V157.128Z" fill="#5D5FEF"/>
<path d="M80.4856 158.955L77.5623 157.277V140.64L80.4856 142.318V158.955ZM78.0825 156.98L79.9653 158.042V142.59L78.0825 141.528V156.98Z" fill="#3A3A3A"/>
<path d="M77.8098 145.65L80.2129 147.008V142.466L77.8098 141.109V145.65Z" fill="#ADADFA"/>
<path d="M77.8098 157.128L80.2129 158.511V151.723L77.8098 150.365V157.128Z" fill="#ADADFA"/>
<path d="M81.749 159.35L84.1521 160.732V144.688L81.749 143.305V159.35Z" fill="#5D5FEF"/>
<path d="M84.4248 161.176L81.5015 159.497V142.861L84.4248 144.515V161.151V161.176ZM82.0217 159.201L83.9046 160.263V144.811L82.0217 143.749V159.201Z" fill="#3A3A3A"/>
<path d="M81.749 159.35L84.1521 160.732V156.19L81.749 154.808V159.35Z" fill="#ADADFA"/>
<path d="M81.749 150.093L84.1521 151.476V144.688L81.749 143.305V150.093Z" fill="#ADADFA"/>
<path d="M85.7129 161.621L88.116 162.978V146.934L85.7129 145.576V161.621Z" fill="#5D5FEF"/>
<path d="M88.3884 163.422L85.4651 161.768V145.132L88.3884 146.786V163.422ZM85.9854 161.448L87.8682 162.509V147.057L85.9854 145.996V161.448Z" fill="#3A3A3A"/>
<path d="M85.7129 150.118L88.116 151.476V146.934L85.7129 145.576V150.118Z" fill="#ADADFA"/>
<path d="M85.7129 161.621L88.116 162.978V156.19L85.7129 154.833V161.621Z" fill="#ADADFA"/>
<path d="M89.6523 163.818L92.0554 165.2V149.156L89.6523 147.773V163.818Z" fill="#5D5FEF"/>
<path d="M92.3276 165.644L89.4043 163.966V147.329L92.3276 149.008V165.644ZM89.9246 163.67L91.8074 164.731V149.279L89.9246 148.218V163.67Z" fill="#3A3A3A"/>
<path d="M89.6523 163.817L92.0554 165.2V160.658L89.6523 159.276V163.817Z" fill="#ADADFA"/>
<path d="M89.6523 154.561L92.0554 155.944V149.156L89.6523 147.773V154.561Z" fill="#ADADFA"/>
<path d="M63.9365 133.259L62.4253 132.395V148.439L94.2105 166.508V164.138L63.9365 146.934V133.259Z" fill="#5D5FEF"/>
<path d="M94.4832 166.952L62.1777 148.588V131.951L64.2092 133.111V146.786L94.4832 163.99V166.952ZM62.698 148.291L93.9629 166.063V164.311L63.689 147.107V133.432L62.698 132.864V148.316V148.291Z" fill="#3A3A3A"/>
<path d="M57.4954 90.631L140.786 139.01L223.606 92.0627L139.721 43.3376L57.4954 90.631Z" fill="#5D5FEF"/>
<path d="M140.786 139.307L140.662 139.232L57 90.6309L139.746 43.0166L139.869 43.0907L224.151 92.0378L223.755 92.26L140.811 139.282L140.786 139.307ZM58.0405 90.6309L140.786 138.689L223.086 92.0378L139.721 43.6337L58.0405 90.6309Z" fill="#3A3A3A"/>
<path d="M57.4954 117.931L140.786 166.285V139.01L57.4954 90.6309V117.931Z" fill="#D3D3FF"/>
<path d="M141.034 166.754L140.637 166.532L57.2229 118.103V90.2112L57.6193 90.4333L141.034 138.862V166.754ZM57.7679 117.783L140.513 165.841V139.158L57.7679 91.0998V117.783Z" fill="#3A3A3A"/>
<path d="M140.786 166.409L224.002 119.116V91.6924L140.786 139.01V166.409Z" fill="#A5A6F6"/>
<path d="M140.513 166.853V138.838L140.637 138.764L224.25 91.248V119.264L224.126 119.338L140.513 166.853ZM141.034 139.159V165.965L223.73 118.968V92.1613L141.034 139.159Z" fill="#3A3A3A"/>
<path d="M145.741 157.918L189.294 133.16V117.116L145.741 141.874V157.918Z" fill="#F3F3FD"/>
<path d="M145.468 158.362V141.726L145.592 141.652L189.541 116.672V133.309L189.418 133.383L145.468 158.362ZM145.989 142.022V157.449L189.021 132.988V117.561L145.989 142.022Z" fill="#3A3A3A"/>
<path d="M187.783 131.655L145.741 155.548V157.918L189.294 133.16V117.116L187.783 117.98V131.655Z" fill="#3A3A3A"/>
<path d="M62.4253 115.931L94.2105 134V117.955L62.4253 99.8872V115.931Z" fill="#3A3A3A"/>
<path d="M65.9187 117.93L68.3218 119.288V103.244L65.9187 101.886V117.93Z" fill="#5D5FEF"/>
<path d="M68.5942 119.757L65.6709 118.079V101.442L68.5942 103.096V119.733V119.757ZM66.1912 117.783L68.074 118.844V103.392L66.1912 102.331V117.783Z" fill="#3A3A3A"/>
<path d="M65.9187 117.931L68.3218 119.288V114.747L65.9187 113.389V117.931Z" fill="#ADADFA"/>
<path d="M65.9187 108.674L68.3218 110.032V103.244L65.9187 101.886V108.674Z" fill="#ADADFA"/>
<path d="M69.8821 120.177L72.3099 121.535V105.491L69.8821 104.133V120.177Z" fill="#5D5FEF"/>
<path d="M72.5579 122.003L69.6345 120.325V103.688L72.5579 105.342V121.979V122.003ZM70.1548 120.029L72.0376 121.09V105.638L70.1548 104.577V120.004V120.029Z" fill="#3A3A3A"/>
<path d="M69.8821 108.675L72.3099 110.057V105.491L69.8821 104.133V108.675Z" fill="#ADADFA"/>
<path d="M69.8821 120.177L72.3099 121.534V114.771L69.8821 113.389V120.177Z" fill="#ADADFA"/>
<path d="M73.8213 122.398L76.2492 123.756V107.712L73.8213 106.354V122.398Z" fill="#5D5FEF"/>
<path d="M76.4971 124.201L73.5737 122.547V105.91L76.4971 107.589V124.225V124.201ZM74.094 122.226L75.9768 123.287V107.835L74.094 106.774V122.226Z" fill="#3A3A3A"/>
<path d="M73.8213 122.399L76.2492 123.756V119.215L73.8213 117.832V122.399Z" fill="#ADADFA"/>
<path d="M73.8213 113.142L76.2492 114.5V107.712L73.8213 106.354V113.142Z" fill="#ADADFA"/>
<path d="M77.8098 124.644L80.2129 126.002V109.982L77.8098 108.6V124.644Z" fill="#5D5FEF"/>
<path d="M80.4856 126.471L77.5623 124.817V108.181L80.4856 109.859V126.496V126.471ZM78.0825 124.496L79.9653 125.558V110.106L78.0825 109.045V124.496Z" fill="#3A3A3A"/>
<path d="M77.8098 113.142L80.2129 114.524V109.982L77.8098 108.6V113.142Z" fill="#ADADFA"/>
<path d="M77.8098 124.644L80.2129 126.002V119.239L77.8098 117.856V124.644Z" fill="#ADADFA"/>
<path d="M81.749 126.866L84.1521 128.224V112.18L81.749 110.822V126.866Z" fill="#5D5FEF"/>
<path d="M84.4248 128.693L81.5015 127.014V110.378L84.4248 112.056V128.693ZM82.0217 126.718L83.9046 127.779V112.328L82.0217 111.266V126.718Z" fill="#3A3A3A"/>
<path d="M81.749 126.866L84.1521 128.224V123.682L81.749 122.324V126.866Z" fill="#ADADFA"/>
<path d="M81.749 117.61L84.1521 118.968V112.18L81.749 110.822V117.61Z" fill="#ADADFA"/>
<path d="M85.7129 129.112L88.116 130.47V114.426L85.7129 113.068V129.112Z" fill="#5D5FEF"/>
<path d="M88.3884 130.939L85.4651 129.26V112.624L88.3884 114.278V130.914V130.939ZM85.9854 128.964L87.8682 130.026V114.574L85.9854 113.512V128.94V128.964Z" fill="#3A3A3A"/>
<path d="M85.7129 117.61L88.116 118.992V114.426L85.7129 113.068V117.61Z" fill="#ADADFA"/>
<path d="M85.7129 129.112L88.116 130.47V123.707L85.7129 122.324V129.112Z" fill="#ADADFA"/>
<path d="M89.6523 131.334L92.0554 132.692V116.647L89.6523 115.29V131.334Z" fill="#5D5FEF"/>
<path d="M92.3276 133.136L89.4043 131.482V114.845L92.3276 116.524V133.161V133.136ZM89.9246 131.161L91.8074 132.223V116.795L89.9246 115.734V131.186V131.161Z" fill="#3A3A3A"/>
<path d="M89.6523 131.334L92.0554 132.692V128.15L89.6523 126.768V131.334Z" fill="#ADADFA"/>
<path d="M89.6523 122.078L92.0554 123.435V116.647L89.6523 115.29V122.078Z" fill="#ADADFA"/>
<path d="M63.9365 100.751L62.4253 99.8872V115.931L94.2105 134V131.63L63.9365 114.426V100.751Z" fill="#5D5FEF"/>
<path d="M94.4832 134.444L62.1777 116.08V99.4431L64.2092 100.603V114.278L94.4832 131.482V134.444ZM62.698 115.784L93.9629 133.556V131.803L63.689 114.599V100.924L62.698 100.356V115.808V115.784Z" fill="#3A3A3A"/>
<path d="M148.515 144.836L150.893 143.478V141.109L148.515 142.442V144.836Z" fill="#3A3A3A"/>
<path d="M148.515 148.316L150.893 146.958V144.589L148.515 145.922V148.316Z" fill="#ADADFA"/>
<path d="M148.515 151.797L150.893 150.439V148.069L148.515 149.402V151.797Z" fill="#3A3A3A"/>
<path d="M151.885 142.935L154.263 141.603V139.208L151.885 140.566V142.935Z" fill="#3A3A3A"/>
<path d="M151.885 146.416L154.263 145.083V142.688L151.885 144.046V146.416Z" fill="#3A3A3A"/>
<path d="M151.885 149.896L154.263 148.563V146.169L151.885 147.502V149.896Z" fill="#ADADFA"/>
<path d="M155.279 141.059L157.633 139.702V137.307L155.279 138.665V141.059Z" fill="#ADADFA"/>
<path d="M155.279 144.539L157.633 143.182V140.788L155.279 142.145V144.539Z" fill="#3A3A3A"/>
<path d="M155.279 148.02L157.633 146.663V144.268L155.279 145.626V148.02Z" fill="#3A3A3A"/>
<path d="M158.648 139.159L161.027 137.801V135.431L158.648 136.764V139.159Z" fill="#ADADFA"/>
<path d="M158.648 142.639L161.027 141.281V138.912L158.648 140.245V142.639Z" fill="#3A3A3A"/>
<path d="M158.648 146.119L161.027 144.762V142.367L158.648 143.725V146.119Z" fill="#ADADFA"/>
<path d="M161.943 137.283L164.321 135.95V133.555L161.943 134.888V137.283Z" fill="#3A3A3A"/>
<path d="M161.943 144.243L164.321 142.91V140.516L161.943 141.849V144.243Z" fill="#3A3A3A"/>
<path d="M165.312 138.887L167.691 137.529V135.135L165.312 136.493V138.887Z" fill="#3A3A3A"/>
<path d="M165.312 142.368L167.691 141.01V138.616L165.312 139.973V142.368Z" fill="#ADADFA"/>
<path d="M168.706 133.506L171.085 132.149V129.754L168.706 131.112V133.506Z" fill="#ADADFA"/>
<path d="M168.706 140.467L171.085 139.109V136.715L168.706 138.072V140.467Z" fill="#3A3A3A"/>
<path d="M172.075 135.086L174.454 133.753V131.358L172.075 132.691V135.086Z" fill="#3A3A3A"/>
<path d="M57.4954 56.631L140.786 105.01L223.606 58.0627L139.721 9.33765L57.4954 56.631Z" fill="#F3F3FD"/>
<path d="M140.786 105.307L140.662 105.232L57 56.6309L139.746 9.0166L139.869 9.09065L224.151 58.0378L223.755 58.26L140.811 105.282L140.786 105.307ZM58.0405 56.6309L140.786 104.689L223.086 58.0378L139.721 9.63369L58.0405 56.6309Z" fill="#3A3A3A"/>
<path d="M57.4954 83.9307L140.786 132.285V105.01L57.4954 56.6309V83.9307Z" fill="#D3D3FF"/>
<path d="M141.034 132.754L140.637 132.532L57.2229 84.1034V56.2112L57.6193 56.4333L141.034 104.862V132.754ZM57.7679 83.7825L140.513 131.841V105.158L57.7679 57.0998V83.7825Z" fill="#3A3A3A"/>
<path d="M140.786 132.409L224.002 85.1156V57.6924L140.786 105.01V132.409Z" fill="#A5A6F6"/>
<path d="M140.513 132.853V104.838L140.637 104.764L224.25 57.248V85.2637L224.126 85.3378L140.513 132.853ZM141.034 105.159V131.965L223.73 84.9675V58.1613L141.034 105.159Z" fill="#3A3A3A"/>
<path d="M145.741 123.918L189.294 99.1604V83.1162L145.741 107.874V123.918Z" fill="#F3F3FD"/>
<path d="M145.468 124.362V107.726L145.592 107.652L189.541 82.6721V99.3087L189.418 99.3828L145.468 124.362ZM145.989 108.022V123.449L189.021 98.9878V83.5607L145.989 108.022Z" fill="#3A3A3A"/>
<path d="M187.783 97.6547L145.741 121.548V123.918L189.294 99.1604V83.1162L187.783 83.9801V97.6547Z" fill="#3A3A3A"/>
<path d="M62.4253 81.9314L94.2105 99.9997V83.9555L62.4253 65.8872V81.9314Z" fill="#3A3A3A"/>
<path d="M65.9187 83.9304L68.3218 85.288V69.2438L65.9187 67.8862V83.9304Z" fill="#5D5FEF"/>
<path d="M68.5942 85.7572L65.6709 84.0787V67.4421L68.5942 69.0959V85.7325V85.7572ZM66.1912 83.7825L68.074 84.8439V69.3921L66.1912 68.3307V83.7825Z" fill="#3A3A3A"/>
<path d="M65.9187 83.9307L68.3218 85.2882V80.7465L65.9187 79.3889V83.9307Z" fill="#ADADFA"/>
<path d="M65.9187 74.6742L68.3218 76.0318V69.2438L65.9187 67.8862V74.6742Z" fill="#ADADFA"/>
<path d="M69.8821 86.1773L72.3099 87.5349V71.4906L69.8821 70.1331V86.1773Z" fill="#5D5FEF"/>
<path d="M72.5579 88.0033L69.6345 86.3248V69.6882L72.5579 71.342V87.9786V88.0033ZM70.1548 86.0286L72.0376 87.09V71.6382L70.1548 70.5768V86.004V86.0286Z" fill="#3A3A3A"/>
<path d="M69.8821 74.6748L72.3099 76.0571V71.4906L69.8821 70.1331V74.6748Z" fill="#ADADFA"/>
<path d="M69.8821 86.1769L72.3099 87.5344V80.7712L69.8821 79.3889V86.1769Z" fill="#ADADFA"/>
<path d="M73.8213 88.3982L76.2492 89.7558V73.7116L73.8213 72.354V88.3982Z" fill="#5D5FEF"/>
<path d="M76.4971 90.2006L73.5737 88.5468V71.9102L76.4971 73.5886V90.2252V90.2006ZM74.094 88.2259L75.9768 89.2873V73.8355L74.094 72.7741V88.2259Z" fill="#3A3A3A"/>
<path d="M73.8213 88.3987L76.2492 89.7563V85.2145L73.8213 83.8323V88.3987Z" fill="#ADADFA"/>
<path d="M73.8213 79.1419L76.2492 80.4995V73.7116L73.8213 72.354V79.1419Z" fill="#ADADFA"/>
<path d="M77.8098 90.6443L80.2129 92.0019V75.9824L77.8098 74.6001V90.6443Z" fill="#5D5FEF"/>
<path d="M80.4856 92.4711L77.5623 90.8173V74.1807L80.4856 75.8591V92.4957V92.4711ZM78.0825 90.4964L79.9653 91.5578V76.106L78.0825 75.0446V90.4964Z" fill="#3A3A3A"/>
<path d="M77.8098 79.1418L80.2129 80.5241V75.9824L77.8098 74.6001V79.1418Z" fill="#ADADFA"/>
<path d="M77.8098 90.6444L80.2129 92.002V85.2387L77.8098 83.8564V90.6444Z" fill="#ADADFA"/>
<path d="M81.749 92.8665L84.1521 94.2241V78.1799L81.749 76.8223V92.8665Z" fill="#5D5FEF"/>
<path d="M84.4248 94.6928L81.5015 93.0143V76.3777L84.4248 78.0562V94.6928ZM82.0217 92.7181L83.9046 93.7795V78.3277L82.0217 77.2663V92.7181Z" fill="#3A3A3A"/>
<path d="M81.749 92.8662L84.1521 94.2238V89.682L81.749 88.3245V92.8662Z" fill="#ADADFA"/>
<path d="M81.749 83.6102L84.1521 84.9678V78.1799L81.749 76.8223V83.6102Z" fill="#ADADFA"/>
<path d="M85.7129 95.1123L88.116 96.4699V80.4257L85.7129 79.0681V95.1123Z" fill="#5D5FEF"/>
<path d="M88.3884 96.9389L85.4651 95.2604V78.6238L88.3884 80.2776V96.9142V96.9389ZM85.9854 94.9642L87.8682 96.0256V80.5738L85.9854 79.5124V94.9395V94.9642Z" fill="#3A3A3A"/>
<path d="M85.7129 83.6099L88.116 84.9921V80.4257L85.7129 79.0681V83.6099Z" fill="#ADADFA"/>
<path d="M85.7129 95.1124L88.116 96.47V89.7067L85.7129 88.3245V95.1124Z" fill="#ADADFA"/>
<path d="M89.6523 97.334L92.0554 98.6916V82.6474L89.6523 81.2898V97.334Z" fill="#5D5FEF"/>
<path d="M92.3276 99.1359L89.4043 97.4821V80.8455L92.3276 82.5239V99.1605V99.1359ZM89.9246 97.1612L91.8074 98.2226V82.7954L89.9246 81.7341V97.1859V97.1612Z" fill="#3A3A3A"/>
<path d="M89.6523 97.334L92.0554 98.6916V94.1499L89.6523 92.7676V97.334Z" fill="#ADADFA"/>
<path d="M89.6523 88.0777L92.0554 89.4353V82.6474L89.6523 81.2898V88.0777Z" fill="#ADADFA"/>
<path d="M63.9365 66.7511L62.4253 65.8872V81.9314L94.2105 99.9997V97.6301L63.9365 80.4257V66.7511Z" fill="#5D5FEF"/>
<path d="M94.4832 100.444L62.1777 82.0797V65.4431L64.2092 66.6032V80.2778L94.4832 97.4822V100.444ZM62.698 81.7835L93.9629 99.5556V97.8031L63.689 80.5987V66.9241L62.698 66.3564V81.8082V81.7835Z" fill="#3A3A3A"/>
<path d="M148.515 110.836L150.893 109.478V107.109L148.515 108.442V110.836Z" fill="#3A3A3A"/>
<path d="M148.515 114.316L150.893 112.958V110.589L148.515 111.922V114.316Z" fill="#ADADFA"/>
<path d="M148.515 117.797L150.893 116.439V114.069L148.515 115.402V117.797Z" fill="#3A3A3A"/>
<path d="M151.885 108.935L154.263 107.603V105.208L151.885 106.566V108.935Z" fill="#3A3A3A"/>
<path d="M151.885 112.416L154.263 111.083V108.688L151.885 110.046V112.416Z" fill="#3A3A3A"/>
<path d="M151.885 115.896L154.263 114.563V112.169L151.885 113.502V115.896Z" fill="#ADADFA"/>
<path d="M155.279 107.059L157.633 105.702V103.307L155.279 104.665V107.059Z" fill="#ADADFA"/>
<path d="M155.279 110.539L157.633 109.182V106.788L155.279 108.145V110.539Z" fill="#3A3A3A"/>
<path d="M155.279 114.02L157.633 112.663V110.268L155.279 111.626V114.02Z" fill="#3A3A3A"/>
<path d="M158.648 105.159L161.027 103.801V101.431L158.648 102.764V105.159Z" fill="#ADADFA"/>
<path d="M158.648 108.639L161.027 107.281V104.912L158.648 106.245V108.639Z" fill="#3A3A3A"/>
<path d="M158.648 112.119L161.027 110.762V108.367L158.648 109.725V112.119Z" fill="#ADADFA"/>
<path d="M161.943 103.283L164.321 101.95V99.5554L161.943 100.888V103.283Z" fill="#3A3A3A"/>
<path d="M161.943 110.243L164.321 108.91V106.516L161.943 107.849V110.243Z" fill="#3A3A3A"/>
<path d="M165.312 104.887L167.691 103.529V101.135L165.312 102.493V104.887Z" fill="#3A3A3A"/>
<path d="M165.312 108.368L167.691 107.01V104.616L165.312 105.973V108.368Z" fill="#ADADFA"/>
<path d="M168.706 99.5063L171.085 98.1487V95.7544L168.706 97.112V99.5063Z" fill="#ADADFA"/>
<path d="M168.706 106.467L171.085 105.109V102.715L168.706 104.072V106.467Z" fill="#3A3A3A"/>
<path d="M172.075 101.086L174.454 99.7527V97.3584L172.075 98.6913V101.086Z" fill="#3A3A3A"/>
<path d="M76.0173 50.8771L139.786 87.9021L203.183 51.9631L138.968 14.6665L76.0173 50.8771Z" fill="#D3D3FF"/>
<path d="M139.786 88.1984L139.662 88.1244L75.522 50.8771L138.993 14.3704L139.117 14.4444L203.728 51.9632L203.332 52.1853L139.786 88.1984ZM76.5625 50.8771L139.811 87.606L202.688 51.9632L138.993 14.9628L76.5625 50.8771Z" fill="#3A3A3A"/>
<path d="M76.0173 56.5294L139.786 93.5792V87.902L76.0173 50.877V56.5294Z" fill="#DBE0E6"/>
<path d="M140.034 94.0235L139.637 93.8014L75.7449 56.7022V50.4326L76.1413 50.6548L140.034 87.7539V94.0235ZM76.2651 56.3813L139.489 93.1102V88.0501L76.2651 51.3212V56.3813Z" fill="#3A3A3A"/>
<path d="M139.786 93.6532L203.505 57.4426V51.6914L139.786 87.902V93.6532Z" fill="#C2C7CB"/>
<path d="M139.514 94.0977V87.7541L139.638 87.68L203.753 51.2473V57.6156L203.629 57.6897L139.514 94.1224V94.0977ZM140.034 88.0503V93.2091L203.233 57.2947V52.1359L140.034 88.0503Z" fill="#3A3A3A"/>
<path d="M134.757 3.31225L138.448 5.43502L142.04 3.31225L138.448 1.16479L134.757 3.31225Z" fill="#D6D6F8"/>
<path d="M138.448 5.58303L138.374 5.53367L134.509 3.31216L138.423 1.0166L138.498 1.06597L142.288 3.33684L138.448 5.60772V5.58303ZM135.029 3.33684L138.423 5.28683L141.768 3.33684L138.423 1.33749L135.029 3.33684Z" fill="#3A3A3A"/>
<path d="M138.448 38.9057L142.04 36.7829V3.31226L138.448 5.43503V38.9057Z" fill="#D6D6F8"/>
<path d="M138.3 39.1276V5.33606L138.374 5.28669L142.164 3.06519V36.8321H142.09L138.3 39.1029V39.1276ZM138.572 5.50884V38.6833L141.917 36.7333V3.55885L138.572 5.50884Z" fill="#3A3A3A"/>
<path d="M134.757 36.8325L138.448 38.9059V5.43525L134.757 3.33716V36.8325Z" fill="#3A3A3A"/>
<path d="M128.241 6.76782L131.908 8.89059L135.525 6.76782L131.908 4.62036L128.241 6.76782Z" fill="#D6D6F8"/>
<path d="M131.932 9.03884L131.858 8.98947L127.993 6.76797L131.932 4.47241L132.007 4.52178L135.797 6.76797L131.957 9.03884H131.932ZM128.514 6.79265L131.908 8.74264L135.252 6.76797L131.908 4.76861L128.514 6.76797V6.79265Z" fill="#3A3A3A"/>
<path d="M131.908 42.361L135.525 40.2383V6.76758L131.908 8.89035V42.361Z" fill="#D6D6F8"/>
<path d="M131.784 42.5834V8.81653H131.858L135.649 6.54565V40.3125H135.575L131.784 42.5834ZM132.057 8.96463V42.1391L135.401 40.1891V7.01464L132.057 8.96463Z" fill="#3A3A3A"/>
<path d="M128.241 40.2879L131.908 42.3613V8.89057L128.241 6.79248V40.2879Z" fill="#3A3A3A"/>
<path d="M121.726 10.2236L125.392 12.3464L128.984 10.2236L125.392 8.07617L121.726 10.2236Z" fill="#D6D6F8"/>
<path d="M125.392 12.4944L125.318 12.4451L121.453 10.2236L125.392 7.90332L125.467 7.95269L129.257 10.2236L125.417 12.4944H125.392ZM121.973 10.2482L125.367 12.1982L128.712 10.2482L125.367 8.24889L121.973 10.2482Z" fill="#3A3A3A"/>
<path d="M125.392 45.8168L128.984 43.6941V10.2234L125.392 12.3462V45.8168Z" fill="#D6D6F8"/>
<path d="M125.268 46.039V12.2474L125.343 12.1981L129.133 9.97656V43.7681H129.059L125.268 46.039ZM125.541 12.4202V45.5947L128.861 43.6447V10.4702L125.541 12.4202Z" fill="#3A3A3A"/>
<path d="M121.726 43.7437L125.392 45.8171V12.3464L121.726 10.2483V43.7437Z" fill="#3A3A3A"/>
<path d="M115.21 13.6789L118.877 15.8017L122.469 13.6789L118.877 11.5315L115.21 13.6789Z" fill="#D6D6F8"/>
<path d="M118.877 15.9499H118.802L114.938 13.7038L118.877 11.4082L118.951 11.4576L122.741 13.7038L118.901 15.9746L118.877 15.9499ZM115.458 13.7038L118.852 15.6537L122.196 13.7038L118.852 11.7044L115.458 13.7038Z" fill="#3A3A3A"/>
<path d="M118.877 49.2727L122.469 47.1499V13.6792L118.877 15.802V49.2727Z" fill="#D6D6F8"/>
<path d="M118.753 49.4946V15.7277L118.827 15.6783L122.617 13.4568V47.2237L122.543 47.273L118.753 49.4946ZM119.025 15.8758V49.0502L122.37 47.1003V13.9258L119.025 15.8758Z" fill="#3A3A3A"/>
<path d="M115.21 47.1992L118.877 49.2726V15.8019L115.21 13.7039V47.1992Z" fill="#3A3A3A"/>
<path d="M108.695 17.1597L112.361 19.2578L115.953 17.135L112.361 14.9875L108.695 17.1597Z" fill="#D6D6F8"/>
<path d="M112.361 19.4058L112.287 19.3564L108.422 17.1349L112.361 14.8394L112.435 14.8887L116.226 17.1349L112.386 19.4058H112.361ZM108.942 17.1596L112.361 19.1096L115.705 17.1596L112.361 15.1602L108.942 17.1596Z" fill="#3A3A3A"/>
<path d="M112.361 52.7282L115.954 50.6301V17.1348L112.361 19.2575V52.7282Z" fill="#D6D6F8"/>
<path d="M112.237 52.9506V19.1837L112.311 19.1343L116.102 16.9128V50.7044H116.027L112.237 52.9753V52.9506ZM112.51 19.3318V52.5063L115.829 50.5563V17.3818L112.51 19.3318Z" fill="#3A3A3A"/>
<path d="M108.695 50.655L112.361 52.7284V19.2578L108.695 17.1597V50.655Z" fill="#3A3A3A"/>
<path d="M140.208 6.57033L143.874 8.66842L147.466 6.54565L143.874 4.39819L140.208 6.57033Z" fill="#D6D6F8"/>
<path d="M143.874 8.8164H143.799L139.935 6.57021L143.874 4.27466L143.948 4.32402L147.738 6.5949L143.898 8.86577L143.874 8.8164ZM140.455 6.57021L143.849 8.5202L147.193 6.54553L143.849 4.54617L140.455 6.54553V6.57021Z" fill="#3A3A3A"/>
<path d="M143.874 42.1391L147.466 40.041V6.54565L143.874 8.66843V42.1391Z" fill="#D6D6F8"/>
<path d="M143.75 42.361V8.56946H143.825L147.615 6.29858V40.0655H147.541L143.75 42.3363V42.361ZM144.023 8.74224V41.9167L147.342 39.9667V6.79225L144.023 8.74224Z" fill="#3A3A3A"/>
<path d="M140.208 40.0657L143.874 42.1638V8.6684L140.208 6.57031V40.0657Z" fill="#3A3A3A"/>
<path d="M133.691 10.0261L137.358 12.1242L140.95 10.0015L137.358 7.854L133.691 10.0261Z" fill="#D6D6F8"/>
<path d="M137.358 12.2722H137.284L133.419 10.026L137.358 7.73047L137.432 7.77984L141.223 10.0507L137.383 12.3216L137.358 12.2722ZM133.939 10.026L137.333 11.976L140.678 10.0013L137.333 8.00199L133.939 10.0013V10.026Z" fill="#3A3A3A"/>
<path d="M137.358 45.5947L140.95 43.4966V10.0012L137.358 12.124V45.5947Z" fill="#D6D6F8"/>
<path d="M137.209 45.8171V12.0502H137.284L141.074 9.7793V43.5462H141L137.209 45.8171ZM137.482 12.1983V45.3728L140.801 43.4228V10.2483L137.482 12.1983Z" fill="#3A3A3A"/>
<path d="M133.691 43.5215L137.358 45.6196V12.1242L133.691 10.0261V43.5215Z" fill="#3A3A3A"/>
<path d="M127.176 13.4819L130.842 15.58L134.435 13.4819L130.842 11.3345L127.176 13.4819Z" fill="#D6D6F8"/>
<path d="M130.843 15.728H130.768L126.904 13.4818L130.818 11.1863L130.892 11.2356L134.683 13.5065L130.843 15.7774V15.728ZM127.424 13.4818L130.843 15.4318L134.187 13.4572L130.843 11.4578L127.424 13.4572V13.4818Z" fill="#3A3A3A"/>
<path d="M130.843 49.0502L134.435 46.9521V13.4814L130.843 15.5795V49.0502Z" fill="#D6D6F8"/>
<path d="M130.694 49.2971V15.5055H130.769L134.559 13.2346V47.0015H134.485L130.694 49.2724V49.2971ZM130.967 15.6783V48.8528L134.287 46.9028V13.7283L130.967 15.6783Z" fill="#3A3A3A"/>
<path d="M127.176 46.9768L130.842 49.0749V15.5795L127.176 13.4814V46.9768Z" fill="#3A3A3A"/>
<path d="M120.66 16.9375L124.327 19.0356L127.919 16.9375L124.327 14.79L120.66 16.9375Z" fill="#D6D6F8"/>
<path d="M124.327 19.1836L124.253 19.1342L120.388 16.9127L124.327 14.6172L124.401 14.6666L128.192 16.9374L124.352 19.2083L124.327 19.1836ZM120.908 16.9374L124.302 18.8874L127.647 16.9374L124.302 14.9381L120.908 16.9374Z" fill="#3A3A3A"/>
<path d="M124.327 52.5063L127.919 50.4082V16.9375L124.327 19.0356V52.5063Z" fill="#D6D6F8"/>
<path d="M124.178 52.7282V18.9613H124.253L128.043 16.6904V50.4573H127.969L124.178 52.7282ZM124.451 19.1094V52.2839L127.77 50.3339V17.1594L124.451 19.1094Z" fill="#3A3A3A"/>
<path d="M120.66 50.4329L124.327 52.531V19.0356L120.66 16.9375V50.4329Z" fill="#3A3A3A"/>
<path d="M114.12 20.3928L117.787 22.4909L121.404 20.3928L117.787 18.2454L114.12 20.3928Z" fill="#D6D6F8"/>
<path d="M117.786 22.6394L117.712 22.5901L113.847 20.3686L117.786 18.073L117.861 18.1224L121.651 20.3932L117.811 22.6641L117.786 22.6394ZM114.368 20.3932L117.762 22.3432L121.106 20.3932L117.762 18.3939L114.368 20.3932Z" fill="#3A3A3A"/>
<path d="M117.787 55.9618L121.404 53.8638V20.3931L117.787 22.4912V55.9618Z" fill="#D6D6F8"/>
<path d="M117.663 56.1838V22.4169H117.737L121.527 20.146V53.9129H121.453L117.663 56.1838ZM117.935 22.565V55.7395L121.255 53.7895V20.615L117.935 22.565Z" fill="#3A3A3A"/>
<path d="M114.12 53.8882L117.787 55.9863V22.4909L114.12 20.3928V53.8882Z" fill="#3A3A3A"/>
<path d="M145.633 9.80395L149.299 11.902L152.916 9.80395L149.299 7.65649L145.633 9.80395Z" fill="#D6D6F8"/>
<path d="M149.299 12.0501L149.225 12.0007L145.36 9.7792L149.274 7.48364L149.349 7.53301L153.139 9.80388L149.299 12.0748V12.0501ZM145.88 9.80388L149.274 11.7539L152.619 9.7792L149.274 7.77984L145.88 9.7792V9.80388Z" fill="#3A3A3A"/>
<path d="M149.3 45.3727L152.917 43.2746V9.80396L149.3 11.902V45.3727Z" fill="#D6D6F8"/>
<path d="M149.175 45.6195V11.8527L149.25 11.8033L153.04 9.58179V43.3734H152.966L149.175 45.6442V45.6195ZM149.448 12.0008V45.1753L152.768 43.2253V10.0508L149.448 12.0008Z" fill="#3A3A3A"/>
<path d="M145.633 43.2993L149.299 45.3974V11.902L145.633 9.80396V43.2993Z" fill="#3A3A3A"/>
<path d="M139.117 13.2598L142.784 15.3578L146.376 13.2598L142.784 11.1123L139.117 13.2598Z" fill="#D6D6F8"/>
<path d="M142.784 15.5056H142.709L138.844 13.2594L142.759 10.9639L146.599 13.2594L142.759 15.5303L142.784 15.5056ZM139.39 13.2594L142.784 15.2094L146.128 13.2347L142.784 11.2354L139.39 13.2347V13.2594Z" fill="#3A3A3A"/>
<path d="M142.784 48.8283L146.376 46.7302V13.2595L142.784 15.3576V48.8283Z" fill="#D6D6F8"/>
<path d="M142.66 49.0751V15.3082L142.734 15.2589L146.525 13.0374V46.8289H146.45L142.66 49.0998V49.0751ZM142.932 15.4563V48.6308L146.277 46.6808V13.5063L142.932 15.4563Z" fill="#3A3A3A"/>
<path d="M139.117 46.7551L142.784 48.8532V15.3578L139.117 13.2844V46.7551Z" fill="#3A3A3A"/>
<path d="M132.601 16.7156L136.268 18.8137L139.86 16.7156L136.268 14.5681L132.601 16.7156Z" fill="#D6D6F8"/>
<path d="M136.268 18.9617H136.194L132.329 16.7155L136.268 14.4199L136.342 14.4693L140.133 16.7402L136.293 19.011L136.268 18.9617ZM132.849 16.7155L136.243 18.6655L139.588 16.6908L136.243 14.6914L132.849 16.6908V16.7155Z" fill="#3A3A3A"/>
<path d="M136.268 52.2841L139.861 50.186V16.7153L136.268 18.8134V52.2841Z" fill="#D6D6F8"/>
<path d="M136.144 52.5309V18.764L136.219 18.7147L140.009 16.4932V50.2847H139.935L136.144 52.5556V52.5309ZM136.417 18.9121V52.0866L139.737 50.1366V16.9621L136.417 18.9121Z" fill="#3A3A3A"/>
<path d="M132.601 50.2107L136.268 52.3088V18.8134L132.601 16.74V50.2107Z" fill="#3A3A3A"/>
<path d="M126.086 20.1709L129.753 22.269L133.345 20.1709L129.753 18.0234L126.086 20.1709Z" fill="#D6D6F8"/>
<path d="M129.752 22.417H129.678L125.813 20.1708L129.728 17.8752L133.568 20.1708L129.728 22.4417L129.752 22.417ZM126.358 20.1708L129.752 22.1208L133.097 20.1708L129.752 18.1714L126.358 20.1708Z" fill="#3A3A3A"/>
<path d="M129.752 55.7646L133.344 53.6418V20.1711L129.752 22.2692V55.7646Z" fill="#D6D6F8"/>
<path d="M129.628 55.9865V22.2196L129.703 22.1702L133.493 19.9487V53.7156L133.419 53.765L129.628 55.9865ZM129.901 22.3677V55.5422L133.221 53.5922V20.4177L129.901 22.3677Z" fill="#3A3A3A"/>
<path d="M126.086 53.6662L129.753 55.7643V22.269L126.086 20.1956V53.6662Z" fill="#3A3A3A"/>
<path d="M119.57 23.6267L123.237 25.7248L126.829 23.6267L123.237 21.4792L119.57 23.6267Z" fill="#D6D6F8"/>
<path d="M123.237 25.8728H123.162L119.298 23.6266L123.237 21.3311L123.311 21.3804L127.101 23.6513L123.261 25.9222L123.237 25.8728ZM119.818 23.6266L123.212 25.5766L126.556 23.6266L123.212 21.6273L119.818 23.6266Z" fill="#3A3A3A"/>
<path d="M123.237 59.2202L126.829 57.0974V23.6267L123.237 25.7248V59.2202Z" fill="#D6D6F8"/>
<path d="M123.088 59.4423V25.6508H123.163L126.953 23.3799V57.1468H126.879L123.088 59.4176V59.4423ZM123.361 25.8235V58.998L126.681 57.048V23.8735L123.361 25.8235Z" fill="#3A3A3A"/>
<path d="M119.57 57.1221L123.237 59.2202V25.7248L119.57 23.6514V57.1221Z" fill="#3A3A3A"/>
<path d="M151.083 13.0376L154.75 15.1604L158.342 13.0376L154.75 10.8901L151.083 13.0376Z" fill="#D6D6F8"/>
<path d="M154.75 15.3084L154.675 15.259L150.811 13.0375L154.75 10.7419L154.824 10.7913L158.614 13.0622L154.774 15.3331L154.75 15.3084ZM151.331 13.0622L154.725 15.0122L158.069 13.0622L154.725 11.0628L151.331 13.0622Z" fill="#3A3A3A"/>
<path d="M154.75 48.6308L158.342 46.508V13.0374L154.75 15.1601V48.6308Z" fill="#D6D6F8"/>
<path d="M154.601 48.853V15.0614H154.675L158.466 12.7905V46.5574H158.391L154.601 48.8283V48.853ZM154.873 15.2342V48.4087L158.193 46.4587V13.2842L154.873 15.2342Z" fill="#3A3A3A"/>
<path d="M151.083 46.5327L154.75 48.6308V15.1601L151.083 13.062V46.5327Z" fill="#3A3A3A"/>
<path d="M144.567 16.4932L148.234 18.6159L151.826 16.4932L148.234 14.3457L144.567 16.4932Z" fill="#D6D6F8"/>
<path d="M148.234 18.7639L148.16 18.7146L144.295 16.4931L148.234 14.1975L152.074 16.4931L148.234 18.7639ZM144.815 16.5178L148.209 18.4677L151.554 16.5178L148.209 14.5184L144.815 16.5178Z" fill="#3A3A3A"/>
<path d="M148.234 52.0866L151.826 49.9638V16.4932L148.234 18.6159V52.0866Z" fill="#D6D6F8"/>
<path d="M148.085 52.3088V18.5419H148.159L151.95 16.271V50.0626H151.875L148.085 52.3334V52.3088ZM148.357 18.69V51.8645L151.677 49.9145V16.74L148.357 18.69Z" fill="#3A3A3A"/>
<path d="M144.567 50.0132L148.234 52.0866V18.6159L144.567 16.5178V50.0132Z" fill="#3A3A3A"/>
<path d="M138.027 19.949L141.693 22.0717L145.31 19.949L141.693 17.8015L138.027 19.949Z" fill="#D6D6F8"/>
<path d="M141.718 22.2198L141.644 22.1704L137.779 19.9489L141.718 17.6287L141.793 17.678L145.583 19.9489L141.743 22.1951L141.718 22.2198ZM138.3 19.9736L141.694 21.9236L145.038 19.9736L141.694 17.9742L138.3 19.9736Z" fill="#3A3A3A"/>
<path d="M141.694 55.5422L145.311 53.4194V19.9487L141.694 22.0715V55.5422Z" fill="#D6D6F8"/>
<path d="M141.57 55.7643V21.9974H141.644L145.434 19.7266V53.4935H145.36L141.57 55.7643ZM141.842 22.1455V55.32L145.162 53.37V20.1955L141.842 22.1455Z" fill="#3A3A3A"/>
<path d="M138.027 53.4688L141.693 55.5422V22.0715L138.027 19.9734V53.4688Z" fill="#3A3A3A"/>
<path d="M131.511 23.4045L135.178 25.5273L138.77 23.4045L135.178 21.2571L131.511 23.4045Z" fill="#D6D6F8"/>
<path d="M135.178 25.6753L135.103 25.6259L131.239 23.4044L135.178 21.1089L139.018 23.4044L135.178 25.6753ZM131.759 23.4291L135.153 25.3791L138.497 23.4291L135.153 21.4298L131.759 23.4291Z" fill="#3A3A3A"/>
<path d="M135.178 58.9983L138.77 56.8755V23.4048L135.178 25.5276V58.9983Z" fill="#D6D6F8"/>
<path d="M135.054 59.2201V25.4532H135.128L138.919 23.1824V56.9739H138.844L135.054 59.2448V59.2201ZM135.326 25.6013V58.7758L138.646 56.8258V23.6514L135.326 25.6013Z" fill="#3A3A3A"/>
<path d="M131.511 56.9243L135.178 58.9977V25.527L131.511 23.429V56.9243Z" fill="#3A3A3A"/>
<path d="M124.996 26.8601L128.662 28.9829L132.254 26.8601L128.662 24.7126L124.996 26.8601Z" fill="#D6D6F8"/>
<path d="M128.662 29.1306L128.588 29.0813L124.723 26.8598L128.637 24.5642L128.712 24.6136L132.502 26.8844L128.662 29.1553V29.1306ZM125.243 26.8844L128.662 28.8344L132.007 26.8844L128.662 24.8851L125.243 26.8844Z" fill="#3A3A3A"/>
<path d="M128.662 62.4536L132.255 60.3308V26.8601L128.662 28.9829V62.4536Z" fill="#D6D6F8"/>
<path d="M128.538 62.6757V28.9088L128.613 28.8594L132.403 26.6379V60.4048H132.329L128.538 62.6757ZM128.811 29.0569V62.2314L132.131 60.2814V27.1069L128.811 29.0569Z" fill="#3A3A3A"/>
<path d="M124.996 60.3801L128.662 62.4535V28.9829L124.996 26.8848V60.3801Z" fill="#3A3A3A"/>
<path d="M156.508 16.2957L160.175 18.3938L163.767 16.271L160.175 14.1235L156.508 16.2957Z" fill="#D6D6F8"/>
<path d="M160.175 18.542H160.101L156.236 16.2958L160.15 14.0002L160.224 14.0496L164.015 16.3205L160.175 18.5914V18.542ZM156.781 16.2958L160.175 18.2458L163.519 16.2958L160.175 14.2964L156.781 16.2958Z" fill="#3A3A3A"/>
<path d="M160.175 51.8645L163.767 49.7664V16.271L160.175 18.3938V51.8645Z" fill="#D6D6F8"/>
<path d="M160.051 52.0866V18.3197L160.125 18.2703L163.916 16.0488V49.8157L163.841 49.8651L160.051 52.0866ZM160.323 18.4678V51.6423L163.643 49.6923V16.5178L160.323 18.4678Z" fill="#3A3A3A"/>
<path d="M156.508 49.7908L160.175 51.8889V18.3935L156.508 16.2954V49.7908Z" fill="#3A3A3A"/>
<path d="M149.993 19.7512L153.659 21.8493L157.251 19.7266L153.659 17.5791L149.993 19.7512Z" fill="#D6D6F8"/>
<path d="M153.659 21.9973L153.585 21.948L149.72 19.7265L153.634 17.4309L153.709 17.4803L157.499 19.7511L153.659 21.9973ZM150.265 19.7511L153.659 21.7011L157.004 19.7511L153.659 17.7518L150.265 19.7511Z" fill="#3A3A3A"/>
<path d="M153.659 55.32L157.252 53.2219V19.7266L153.659 21.8493V55.32Z" fill="#D6D6F8"/>
<path d="M153.535 55.5422V21.7506H153.61L157.4 19.4797V53.2466L157.326 53.296L153.535 55.5175V55.5422ZM153.808 21.9234V55.0979L157.152 53.1479V19.9734L153.808 21.9234Z" fill="#3A3A3A"/>
<path d="M149.993 53.2466L153.659 55.3447V21.8493L149.993 19.7512V53.2466Z" fill="#3A3A3A"/>
<path d="M143.477 23.2073L147.144 25.3054L150.736 23.1826L147.144 21.0352L143.477 23.2073Z" fill="#D6D6F8"/>
<path d="M147.144 25.4534L147.069 25.404L143.205 23.1825L147.144 20.887L147.218 20.9363L151.008 23.2072L147.168 25.4781L147.144 25.4534ZM143.725 23.1825L147.119 25.1325L150.463 23.1825L147.119 21.1832L143.725 23.1825Z" fill="#3A3A3A"/>
<path d="M147.144 58.7758L150.736 56.6778V23.1824L147.144 25.3051V58.7758Z" fill="#D6D6F8"/>
<path d="M147.02 58.998V25.2311H147.094L150.885 22.9602V56.7271H150.81L147.02 58.998ZM147.292 25.3792V58.5537L150.612 56.6037V23.4292L147.292 25.3792Z" fill="#3A3A3A"/>
<path d="M143.477 56.7022L147.144 58.8002V25.3049L143.477 23.2068V56.7022Z" fill="#3A3A3A"/>
<path d="M136.962 26.6626L140.628 28.7607L144.221 26.6379L140.628 24.5151L136.962 26.6626Z" fill="#D6D6F8"/>
<path d="M140.628 28.9087L140.554 28.8593L136.689 26.6378L140.604 24.3423L140.678 24.3917L144.468 26.6625L140.628 28.9334V28.9087ZM137.234 26.6625L140.628 28.6125L143.973 26.6625L140.628 24.6632L137.234 26.6625Z" fill="#3A3A3A"/>
<path d="M140.628 62.2314L144.22 60.1333V26.6379L140.628 28.7607V62.2314Z" fill="#D6D6F8"/>
<path d="M140.48 62.4533V28.6617H140.554L144.345 26.3909V60.1824L144.27 60.2318L140.48 62.4533ZM140.752 28.8345V62.009L144.072 60.059V26.8845L140.752 28.8345Z" fill="#3A3A3A"/>
<path d="M136.962 60.1577L140.628 62.2558V28.7604L136.962 26.6624V60.1577Z" fill="#3A3A3A"/>
<path d="M130.446 30.1182L134.112 32.2163L137.705 30.0935L134.112 27.9707L130.446 30.1182Z" fill="#D6D6F8"/>
<path d="M134.113 32.3643L134.038 32.3149L130.174 30.0934L134.113 27.7979L134.187 27.8472L137.977 30.1181L134.137 32.389L134.113 32.3643ZM130.694 30.0934L134.088 32.0434L137.432 30.0934L134.088 28.0941L130.694 30.0934Z" fill="#3A3A3A"/>
<path d="M134.113 65.6872L137.705 63.5891V30.0938L134.113 32.2165V65.6872Z" fill="#D6D6F8"/>
<path d="M133.964 65.9093V32.1425H134.038L137.829 29.8716V63.6385H137.755L133.964 65.9093ZM134.237 32.2906V65.465L137.556 63.5151V30.3406L134.237 32.2906Z" fill="#3A3A3A"/>
<path d="M130.446 63.6138L134.112 65.7119V32.2165L130.446 30.1184V63.6138Z" fill="#3A3A3A"/>
<path d="M161.959 19.5295L165.601 21.6276L169.218 19.5295L165.601 17.3821L161.959 19.5295Z" fill="#D6D6F8"/>
<path d="M165.626 21.7754L165.551 21.726L161.687 19.5045L165.626 17.209L165.7 17.2584L169.49 19.5292L165.65 21.8001L165.626 21.7754ZM162.207 19.5045L165.601 21.4545L168.945 19.5045L165.601 17.5052L162.207 19.5045Z" fill="#3A3A3A"/>
<path d="M165.601 55.0978L169.218 52.9997V19.5291L165.601 21.6271V55.0978Z" fill="#D6D6F8"/>
<path d="M165.477 55.3449V21.578L165.551 21.5286L169.341 19.3071V53.074L169.267 53.1234L165.477 55.3449ZM165.749 21.7261V54.9006L169.069 52.9506V19.7761L165.749 21.7261Z" fill="#3A3A3A"/>
<path d="M161.959 53.0244L165.601 55.1225V21.6271L161.959 19.5291V53.0244Z" fill="#3A3A3A"/>
<path d="M155.418 22.9849L159.085 25.0829L162.677 22.9849L159.085 20.8374L155.418 22.9849Z" fill="#D6D6F8"/>
<path d="M159.085 25.231L159.011 25.1816L155.146 22.9601L159.085 20.6399L159.159 20.6893L162.95 22.9601L159.11 25.231H159.085ZM155.666 22.9848L159.06 24.9348L162.405 22.9848L159.06 20.9855L155.666 22.9848Z" fill="#3A3A3A"/>
<path d="M159.085 58.5534L162.677 56.4553V22.9846L159.085 25.0827V58.5534Z" fill="#D6D6F8"/>
<path d="M158.961 58.8002V25.0333L159.035 24.984L162.826 22.7625V56.5293L162.751 56.5787L158.961 58.8002ZM159.233 25.1814V58.3559L162.553 56.4059V23.2314L159.233 25.1814Z" fill="#3A3A3A"/>
<path d="M155.418 56.4802L159.085 58.5783V25.083L155.418 22.9849V56.4802Z" fill="#3A3A3A"/>
<path d="M148.903 26.4404L152.569 28.5385L156.161 26.4404L152.569 24.293L148.903 26.4404Z" fill="#D6D6F8"/>
<path d="M152.569 28.6865H152.495L148.63 26.4403L152.569 24.1448L152.644 24.1941L156.434 26.465L152.594 28.7359L152.569 28.6865ZM149.15 26.4156L152.544 28.3656L155.889 26.4156L152.544 24.4163L149.15 26.4156Z" fill="#3A3A3A"/>
<path d="M152.57 62.0095L156.162 59.9114V26.4407L152.57 28.5388V62.0095Z" fill="#D6D6F8"/>
<path d="M152.446 62.2563V28.4894L152.52 28.44L156.31 26.2185V59.9854L156.236 60.0348L152.446 62.2563ZM152.718 28.6375V61.812L156.038 59.862V26.6875L152.718 28.6375Z" fill="#3A3A3A"/>
<path d="M148.903 59.936L152.569 62.0341V28.5387L148.903 26.4653V59.936Z" fill="#3A3A3A"/>
<path d="M142.387 29.8962L146.054 31.9943L149.646 29.8962L146.054 27.7488L142.387 29.8962Z" fill="#D6D6F8"/>
<path d="M146.054 32.1426H145.98L142.115 29.8964L146.054 27.6008L146.128 27.6502L149.919 29.9211L146.079 32.1919L146.054 32.1426ZM142.635 29.8964L146.029 31.8464L149.374 29.8964L146.029 27.897L142.635 29.8964Z" fill="#3A3A3A"/>
<path d="M146.054 65.4648L149.646 63.3667V29.896L146.054 31.9941V65.4648Z" fill="#D6D6F8"/>
<path d="M145.93 65.7118V31.9449L146.004 31.8956L149.795 29.6741V63.441L149.72 63.4903L145.93 65.7118ZM146.202 32.093V65.2675L149.522 63.3176V30.1431L146.202 32.093Z" fill="#3A3A3A"/>
<path d="M142.387 63.3914L146.054 65.4895V31.9941L142.387 29.896V63.3914Z" fill="#3A3A3A"/>
<path d="M135.872 33.352L139.538 35.4501L143.13 33.352L139.538 31.2046L135.872 33.352Z" fill="#D6D6F8"/>
<path d="M139.538 35.5979H139.464L135.599 33.3517L139.513 31.0562L139.588 31.1055L143.378 33.3764L139.538 35.6473V35.5979ZM136.144 33.327L139.538 35.277L142.883 33.327L139.538 31.3277L136.144 33.327Z" fill="#3A3A3A"/>
<path d="M139.539 68.9208L143.131 66.8227V33.3521L139.539 35.4501V68.9208Z" fill="#D6D6F8"/>
<path d="M139.415 69.1674V35.4005L139.489 35.3511L143.279 33.1296V66.8965L143.205 66.9459L139.415 69.1674ZM139.687 35.5486V68.7231L143.032 66.7731V33.5986L139.687 35.5486Z" fill="#3A3A3A"/>
<path d="M135.872 66.8472L139.538 68.9453V35.4499L135.872 33.3518V66.8472Z" fill="#3A3A3A"/>
<defs>
<linearGradient id="paint0_linear_318_12545" x1="298.693" y1="302.279" x2="216.173" y2="169.472" gradientUnits="userSpaceOnUse">
<stop stop-color="#2743A6"/>
<stop offset="0.46" stop-color="#8F1AEB"/>
<stop offset="0.734" stop-color="#C860D5"/>
<stop offset="1" stop-color="#FFA4C0"/>
</linearGradient>
</defs>
</svg>
